<svg xmlns="http://www.w3.org/2000/svg" xmlns:xlink="http://www.w3.org/1999/xlink" viewBox="0 0 350 350"><defs><style>.cls-1,.cls-17,.cls-6,.cls-9{fill:none;}.cls-2{isolation:isolate;}.cls-3{fill:#f4f0e6;}.cls-4,.cls-8{opacity:0.85;}.cls-5{fill:url(#linear-gradient);}.cls-10,.cls-15,.cls-16,.cls-17,.cls-6,.cls-7,.cls-9{stroke:#000;stroke-width:0.62px;}.cls-10,.cls-15,.cls-16,.cls-6,.cls-9{stroke-linecap:round;}.cls-15,.cls-16,.cls-17,.cls-6,.cls-7{stroke-miterlimit:10;}.cls-7{fill:#792ee5;}.cls-8{fill:url(#linear-gradient-2);}.cls-10,.cls-9{stroke-linejoin:round;}.cls-10{fill:#feda7c;}.cls-11{opacity:0.16;mix-blend-mode:multiply;}.cls-12{fill:gray;}.cls-13{fill:#fff;}.cls-14{clip-path:url(#clip-path);}.cls-15{fill-opacity:0.85;fill:url(#linear-gradient-3);}.cls-16{fill-opacity:0.54;fill:url(#linear-gradient-4);}</style><linearGradient id="linear-gradient" x1="29.25" y1="125.27" x2="114.49" y2="125.27" gradientUnits="userSpaceOnUse"><stop offset="0" stop-color="#792ee5"/><stop offset="0.13" stop-color="#924fd1"/><stop offset="0.34" stop-color="#b980b3"/><stop offset="0.54" stop-color="#d7a79b"/><stop offset="0.72" stop-color="#ecc38a"/><stop offset="0.88" stop-color="#f9d480"/><stop offset="1" stop-color="#feda7c"/><stop offset="1" stop-color="#fedb7e"/><stop offset="1" stop-color="#fedc85"/><stop offset="1" stop-color="#fee090"/><stop offset="1" stop-color="#fee5a1"/><stop offset="1" stop-color="#feebb7"/><stop offset="1" stop-color="#fff2d3"/><stop offset="1" stop-color="#fffbf2"/><stop offset="1" stop-color="#fff"/></linearGradient><linearGradient id="linear-gradient-2" x1="244.06" y1="227.3" x2="309.2" y2="227.3" gradientUnits="userSpaceOnUse"><stop offset="0" stop-color="#fff"/><stop offset="0" stop-color="#fffbf2"/><stop offset="0" stop-color="#fff2d3"/><stop offset="0" stop-color="#feebb7"/><stop offset="0" stop-color="#fee5a1"/><stop offset="0" stop-color="#fee090"/><stop offset="0" stop-color="#fedc85"/><stop offset="0" stop-color="#fedb7e"/><stop offset="0" stop-color="#feda7c"/><stop offset="0.12" stop-color="#f9d480"/><stop offset="0.28" stop-color="#ecc38a"/><stop offset="0.46" stop-color="#d7a79b"/><stop offset="0.66" stop-color="#b980b3"/><stop offset="0.87" stop-color="#924fd1"/><stop offset="1" stop-color="#792ee5"/></linearGradient><clipPath id="clip-path"><circle class="cls-1" cx="174.6" cy="186.01" r="84.13"/></clipPath><linearGradient id="linear-gradient-3" x1="174.6" y1="142.82" x2="174.6" y2="191.72" xlink:href="#linear-gradient-2"/><linearGradient id="linear-gradient-4" x1="35.85" y1="191.72" x2="313.34" y2="191.72" gradientUnits="userSpaceOnUse"><stop offset="0" stop-color="#fff"/><stop offset="0.04" stop-color="#feda7c"/><stop offset="1" stop-color="#ac82e6"/></linearGradient></defs><g class="cls-2"><g id="Layer_2" data-name="Layer 2"><g id="boundary_boxes" data-name="boundary boxes"><rect class="cls-3" width="350" height="350"/></g><g id="audio_classification" data-name="audio classification"><g id="additional_icons" data-name="additional icons"><g class="cls-4"><path class="cls-5" d="M74,147.36H39.09a8.72,8.72,0,0,0-3.85.55c-1.4.64-2.29-.6-3-1.6a16.67,16.67,0,0,1-2.72-7.57,24,24,0,0,1,1.34-12.3,8.39,8.39,0,0,1,2.62-3.72c.65-.51,1.38-1,2,0,.3.46.66.83,1.25.5s.4-.75.37-1.18c-.28-3.94-.49-7.88-.9-11.81-.2-1.85-1.84-3.21-2-5.22-.15-1.79.21-2.62,2.13-2.59q6.81.07,13.61,0c1.93,0,2.49.69,2.3,2.67s-1.75,3.2-2,5-.32,3.78-.46,5.68-.27,3.65-.39,5.47c0,.36-.14.89,0,1.07,1.79,1.71,4,.51,6,.77,1.28.16,1.58-.77,1.56-1.86s0-2.05,0-3.07c0-2.82.46-3.29,3.35-3.31,7.73-.07,7.15-.28,6.93,6.32-.05,1.41.53,1.92,1.93,2,4.45.2,4.45.25,4.45-4.29,0-.58,0-1.17,0-1.75-.14-1.6.59-2.33,2.16-2.27.15,0,.29,0,.44,0,7.28,0,6.32-.44,6.3,5.93,0,1.83.69,2.55,2.47,2.38a10.23,10.23,0,0,1,1.75,0c1.56.14,2.27-.44,2.23-2.12-.09-3.29,0-6.58,0-9.88a4.58,4.58,0,0,0-.89-2.86,4.61,4.61,0,0,1-.23-4.8c.64-1.42,2.14-1,3.34-1,6.51,0,13,0,19.55,0,1.23,0,2.7-.21,3.26,1.2a4.49,4.49,0,0,1-.17,4.41,4.84,4.84,0,0,0-.84,3.28q0,16,0,32.07c0,3.61-.3,3.92-3.84,3.92Zm26.16-25.56c1.61,0,3.22,0,4.83,0,1.18,0,1.75-.52,1.74-1.71,0-2.71,0-5.41,0-8.12,0-1.42-.66-2-2-1.91-2,0-4,0-5.92,0-5.66,0-5.17-.6-5.18,5.2C93.62,121.81,93.63,121.81,100.17,121.8Z"/></g><path class="cls-6" d="M74,147.36H39.09a8.72,8.72,0,0,0-3.85.55c-1.4.64-2.29-.6-3-1.6a16.67,16.67,0,0,1-2.72-7.57,24,24,0,0,1,1.34-12.3,8.39,8.39,0,0,1,2.62-3.72c.65-.51,1.38-1,2,0,.3.46.66.83,1.25.5s.4-.75.37-1.18c-.28-3.94-.49-7.88-.9-11.81-.2-1.85-1.84-3.21-2-5.22-.15-1.79.21-2.62,2.13-2.59q6.81.07,13.61,0c1.93,0,2.49.69,2.3,2.67s-1.75,3.2-2,5-.32,3.78-.46,5.68-.27,3.65-.39,5.47c0,.36-.14.89,0,1.07,1.79,1.71,4,.51,6,.77,1.28.16,1.58-.77,1.56-1.86s0-2.05,0-3.07c0-2.82.46-3.29,3.35-3.31,7.73-.07,7.15-.28,6.93,6.32-.05,1.41.53,1.92,1.93,2,4.45.2,4.45.25,4.45-4.29,0-.58,0-1.17,0-1.75-.14-1.6.59-2.33,2.16-2.27.15,0,.29,0,.44,0,7.28,0,6.32-.44,6.3,5.93,0,1.83.69,2.55,2.47,2.38a10.23,10.23,0,0,1,1.75,0c1.56.14,2.27-.44,2.23-2.12-.09-3.29,0-6.58,0-9.88a4.58,4.58,0,0,0-.89-2.86,4.61,4.61,0,0,1-.23-4.8c.64-1.42,2.14-1,3.34-1,6.51,0,13,0,19.55,0,1.23,0,2.7-.21,3.26,1.2a4.49,4.49,0,0,1-.17,4.41,4.84,4.84,0,0,0-.84,3.28q0,16,0,32.07c0,3.61-.3,3.92-3.84,3.92Zm26.16-25.56c1.61,0,3.22,0,4.83,0,1.18,0,1.75-.52,1.74-1.71,0-2.71,0-5.41,0-8.12,0-1.42-.66-2-2-1.91-2,0-4,0-5.92,0-5.66,0-5.17-.6-5.18,5.2C93.62,121.81,93.63,121.81,100.17,121.8Z"/><path class="cls-7" d="M72.78,149.84h37.33c2.86,0,2.94.09,3,3,0,2.64,0,5.27,0,7.91,0,1.29,0,2.51-1.83,2.59-1.59.06-2.31-.39-2.59-2.11-.65-3.92-2.9-6.78-6.82-7.79s-7.45-.28-10.2,2.89c-.86,1-1.34,1.14-2.36.07-4.35-4.58-10.43-4.62-14.73-.12-1,1-1.5,1.17-2.57.09-4.53-4.59-10.27-4.61-14.68,0-1.33,1.4-1.84.56-2.71-.31A9.75,9.75,0,0,0,39,157.89a6.28,6.28,0,0,0-1.12,3.52c.13,2.36-.77,4.4-1.64,6.51a3.24,3.24,0,0,1-3.47,2.36c-2.12-.08-4.25,0-6.37,0-1.47,0-2-.64-1.42-2.08q3.66-8.46,7.31-16.93c.64-1.48,1.89-1.39,3.15-1.39H72.78Z"/><path class="cls-7" d="M55,162.75a7.63,7.63,0,0,1-7.58,7.51,7.53,7.53,0,0,1,0-15A7.64,7.64,0,0,1,55,162.75Z"/><path class="cls-7" d="M72.15,162.71a7.59,7.59,0,0,1-7.51,7.55,7.53,7.53,0,1,1,.16-15A7.62,7.62,0,0,1,72.15,162.71Z"/><path class="cls-7" d="M89.29,162.81a7.5,7.5,0,0,1-7.58,7.44,7.52,7.52,0,0,1,.17-15A7.46,7.46,0,0,1,89.29,162.81Z"/><path class="cls-7" d="M106.45,162.65A7.44,7.44,0,1,1,99,155.21,7.46,7.46,0,0,1,106.45,162.65Z"/><rect class="cls-7" x="237.54" y="259.42" width="78.78" height="12.73"/><path class="cls-8" d="M276.63,197.25h0a32.57,32.57,0,0,0-32.57,32.57v27.53H309.2V229.82A32.57,32.57,0,0,0,276.63,197.25Z"/><path class="cls-6" d="M276.63,197.25h0a32.57,32.57,0,0,0-32.57,32.57v27.53H309.2V229.82A32.57,32.57,0,0,0,276.63,197.25Z"/><path class="cls-9" d="M301.52,227.3a20.15,20.15,0,0,0-20.15-20.15h0"/><line class="cls-10" x1="276.63" y1="173.92" x2="276.63" y2="191.59"/><path class="cls-10" d="M276.63,192.62a1,1,0,0,1-1-1V173.92a1,1,0,1,1,2.06,0v17.67A1,1,0,0,1,276.63,192.62Z"/><line class="cls-10" x1="220.72" y1="237.25" x2="238.39" y2="237.25"/><path class="cls-10" d="M238.39,238.28H220.72a1,1,0,1,1,0-2.06h17.67a1,1,0,1,1,0,2.06Z"/><line class="cls-10" x1="234.15" y1="189.14" x2="246.65" y2="201.64"/><path class="cls-10" d="M246.65,202.67a1,1,0,0,1-.73-.3l-12.5-12.5a1,1,0,0,1,0-1.46,1,1,0,0,1,1.46,0l12.5,12.5a1,1,0,0,1-.73,1.76Z"/><line class="cls-10" x1="332.04" y1="237.25" x2="314.36" y2="237.25"/><path class="cls-10" d="M314.36,238.28H332a1,1,0,0,0,0-2.06H314.36a1,1,0,0,0,0,2.06Z"/><line class="cls-10" x1="318.6" y1="189.14" x2="306.11" y2="201.64"/><path class="cls-10" d="M306.11,202.67a1.06,1.06,0,0,0,.73-.3l12.5-12.5a1,1,0,0,0,0-1.46,1,1,0,0,0-1.46,0l-12.5,12.5a1,1,0,0,0,.73,1.76Z"/></g><g id="Layer_28" data-name="Layer 28"><g class="cls-11"><circle class="cls-12" cx="181.6" cy="193.01" r="84.13"/></g><circle class="cls-13" cx="174.6" cy="186.01" r="84.13"/></g><g id="graphs_7" data-name="graphs 7"><g class="cls-14"><circle class="cls-13" cx="174.6" cy="186.01" r="84.13"/><path class="cls-7" d="M35.85,191.72s12.38-15.91,18.3-15.25c10.18,1.14,14.67,32.19,24.9,32.53,14.85.48,24.49-47.19,39.14-44.73,20,3.37,10.28,77,30.49,75.22,31-2.74,8.29-122,30.14-122,18.8,0,10.61,117.69,42,116.89,19-.49,5.45-70.22,24.39-72.17,13.48-1.38,14,45.15,27.45,46.76,10.52,1.25,18.88-30.85,29.47-30.5,4.33.15,11.18,13.22,11.18,13.22"/><path class="cls-15" d="M35.85,191.72S51.44,180.54,57.58,181c10.55.73,15.21,7.84,25.82,8.06,15.4.31,18.74-16.62,33.66-16,20.84.93,17.58,17.11,38.54,16,32.2-1.77,10.74-46.22,33.4-46.21,19.5,0,6.85,43.74,39.43,43.22,19.74-.31,14-11.67,28.4-12,14-.33,13.4,16.31,27.36,17.35,10.91.81,6.57-8.44,17.56-8.21,4.48.09,11.59,8.55,11.59,8.55"/><line class="cls-16" x1="313.34" y1="191.72" x2="35.85" y2="191.72"/></g></g><g id="overlapping_circles" data-name="overlapping circles"><circle class="cls-17" cx="174.6" cy="186.01" r="84.13"/></g></g></g></g></svg>
