<svg xmlns="http://www.w3.org/2000/svg" xmlns:xlink="http://www.w3.org/1999/xlink" viewBox="0 0 350 350"><defs><style>.cls-1{fill:#f4f0e6;}.cls-2,.cls-3{stroke:#000;stroke-linecap:round;stroke-width:0.6px;}.cls-2{stroke-miterlimit:10;fill:url(#linear-gradient);}.cls-3{fill:#fff;stroke-linejoin:round;}</style><linearGradient id="linear-gradient" x1="212.81" y1="462.68" x2="72.44" y2="322.31" gradientTransform="translate(26.2 -219.01)" gradientUnits="userSpaceOnUse"><stop offset="0" stop-color="#fff"/><stop offset="0" stop-color="#fffbf2"/><stop offset="0" stop-color="#fff2d3"/><stop offset="0" stop-color="#feebb7"/><stop offset="0" stop-color="#fee5a1"/><stop offset="0" stop-color="#fee090"/><stop offset="0" stop-color="#fedc85"/><stop offset="0" stop-color="#fedb7e"/><stop offset="0" stop-color="#feda7c"/><stop offset="0.28" stop-color="#d3a39e"/><stop offset="0.62" stop-color="#a364c4"/><stop offset="0.87" stop-color="#853ddc"/><stop offset="1" stop-color="#792ee5"/></linearGradient></defs><g id="Layer_2" data-name="Layer 2"><g id="boundary_boxes" data-name="boundary boxes"><rect class="cls-1" width="350" height="350"/></g><g id="introduction_to_pytorch" data-name="introduction to pytorch"><g id="book"><rect class="cls-2" x="98.65" y="103.31" width="140.37" height="140.37" transform="translate(0.45 -0.44) rotate(0.15)"/><path class="cls-3" d="M176.26,118a2.54,2.54,0,0,1,1.68-1.09c2.06-.44,4.11-.91,6.17-1.32a2.32,2.32,0,0,1,3,1.55c.61,1.38,1.15,2.79,1.67,4.2a2.44,2.44,0,0,0,2.12,1.68c1.27.18,2.52.44,3.77.72a2.62,2.62,0,0,0,2.74-.79q1.47-1.64,3-3.22c1.15-1.22,2-1.34,3.38-.46,1.78,1.13,3.54,2.27,5.3,3.43,1.39.91,1.62,1.71,1,3.27-.56,1.35-1.15,2.69-1.73,4a2.42,2.42,0,0,0,.32,2.69c.84,1.08,1.59,2.23,2.34,3.38a2.29,2.29,0,0,0,2.17,1.16c1.32-.07,2.65-.11,4-.21,2-.15,3,.52,3.43,2.48s.84,3.75,1.22,5.63a2.46,2.46,0,0,1-1.66,3.17c-1.43.62-2.88,1.18-4.31,1.77a2.17,2.17,0,0,0-1.43,1.85c-.2,1.35-.46,2.7-.72,4.05a2.61,2.61,0,0,0,.85,2.71c1.15,1,2.22,2,3.33,3.06a2.23,2.23,0,0,1,.42,3.09q-1.74,2.79-3.57,5.53a2.27,2.27,0,0,1-3.1.91c-1.37-.61-2.78-1.17-4.16-1.78a2.49,2.49,0,0,0-2.7.3,36.55,36.55,0,0,1-3.27,2.26,2.48,2.48,0,0,0-1.3,2.62c.1,1.37.15,2.74.18,4.11,0,1.71-.53,2.47-2.15,2.86q-3.06.72-6.17,1.32a2.35,2.35,0,0,1-3-1.73c-.5-1.27-1-2.54-1.49-3.83a2.6,2.6,0,0,0-2.4-1.91,22.94,22.94,0,0,1-3.5-.64,2.84,2.84,0,0,0-3.16,1.05c-.9,1-1.83,2-2.77,3a2.21,2.21,0,0,1-3.18.37c-1.83-1.21-3.69-2.37-5.52-3.59a2.17,2.17,0,0,1-.89-3.08c.55-1.3,1.15-2.59,1.73-3.88a2.63,2.63,0,0,0-.41-3,17.17,17.17,0,0,1-1.92-2.83,2.81,2.81,0,0,0-2.93-1.57c-1.41.1-2.83.13-4.24.21a2.31,2.31,0,0,1-2.56-2q-.74-3.13-1.35-6.3a2.47,2.47,0,0,1,1.81-3.09l4-1.54a2.38,2.38,0,0,0,1.63-2.15,34.71,34.71,0,0,1,.7-3.77,2.68,2.68,0,0,0-.88-2.84c-1.1-1-2.13-2-3.22-3a2.25,2.25,0,0,1-.45-3.19c1.16-1.87,2.37-3.7,3.58-5.53a2.25,2.25,0,0,1,3-.91c1.35.56,2.72,1.08,4,1.72a2.72,2.72,0,0,0,3.17-.42,25.39,25.39,0,0,1,3.05-2.1,2.38,2.38,0,0,0,1.27-2.5c-.1-1.5-.14-3-.2-4.52A2.28,2.28,0,0,1,176.26,118Zm.55,24a13.44,13.44,0,1,0,18.7-4A13.45,13.45,0,0,0,176.81,141.93Z"/><path class="cls-3" d="M187.61,231.45a2.5,2.5,0,0,1-1-1.3c-.32-.81-.63-1.63-1-2.43a3.27,3.27,0,0,0-.44-.85c-.83-1-4.94-1.1-5.84-.18-.61.62-1.17,1.28-1.75,1.93a1.73,1.73,0,0,1-2.45.4c-1.27-.8-2.54-1.63-3.8-2.45a1.65,1.65,0,0,1-.73-2.13,2.08,2.08,0,0,1,.2-.51c1.78-2.44,1.06-4.57-.74-6.63a1.83,1.83,0,0,0-1.58-.85c-1,.06-2,.08-3,.13a1.85,1.85,0,0,1-2.12-1.53c-.34-1.47-.66-2.94-.91-4.43a1.67,1.67,0,0,1,1.12-2,2.41,2.41,0,0,1,.5-.21,4.61,4.61,0,0,0,4-4.69,2.84,2.84,0,0,0-.89-2.67c-3.64-3.05-3-2.9-.82-6.29,1.81-2.84,1.82-2.82,5-1.52.78.32,1.57,1,2.45.55a11.29,11.29,0,0,0,3.46-2.42c.7-.84.27-2,.23-3.07-.09-2.48.06-2.73,2.43-3.25l3.22-.7a1.9,1.9,0,0,1,2.34,1.19,2,2,0,0,1,.22.5c.37,2.82,2.2,3.78,4.81,4a2.37,2.37,0,0,0,2.21-.7c.33-.37.68-.74,1-1.11,2-2.12,2.06-2.14,4.43-.61l2.53,1.65a1.78,1.78,0,0,1,.78,2.36c-.08.22-.19.42-.28.63-1.84,4.26-1.26,2.81,1,6.59a1.53,1.53,0,0,0,1.55.66c1-.05,1.92-.12,2.88-.16a1.93,1.93,0,0,1,2.19,1.63c.31,1.43.63,2.86.89,4.3a1.69,1.69,0,0,1-1,1.94,3,3,0,0,1-.88.39c-2.69.48-3.7,2.23-3.83,4.79a2.66,2.66,0,0,0,.84,2.44c3.47,3.06,3.2,2.58.83,6.28l-.08.11c-1.82,2.83-1.86,2.9-4.85,1.45-1.55-.75-2.84-.81-4.09.48a3.09,3.09,0,0,1-1,.68,1.78,1.78,0,0,0-1.1,2.1c.09,1,.07,1.92.09,2.88a1.58,1.58,0,0,1-1.1,1.72,28.56,28.56,0,0,1-5.08,1.09A3,3,0,0,1,187.61,231.45Zm6.3-18.42a9.33,9.33,0,1,0-12.94,2.7A9.09,9.09,0,0,0,193.91,213Z"/><path class="cls-3" d="M122.41,194.89c-3.5-2.2-3.12-2-1.65-5.34a3.65,3.65,0,0,0-.37-3.65c-1.19-2.2-2.83-2.51-5-2.23-2,.26-2.49-.2-2.93-2.16-.22-1-.44-2-.64-2.95-.37-1.83-.06-2.4,1.64-3.05,3.63-1.4,3.62-1.4,4-5.24a2.37,2.37,0,0,0-1-2.11c-3.5-3-2.83-2.86-.83-6s2-3.14,5.35-1.62c1.41.64,2.34.27,3.64-.42,2.14-1.14,2.49-2.67,2.22-4.82s.2-2.71,2.42-3.14c1-.2,2-.44,2.95-.64,1.37-.27,2.43.18,2.74,1.58.58,2.62,2,3.93,4.8,4a2.82,2.82,0,0,0,2.54-.91c3.1-3.67,2.92-2.93,6.3-.78,2.85,1.81,2.83,1.83,1.52,5-.33.79-1.08,1.6-.59,2.44a12.18,12.18,0,0,0,2.51,3.54c.75.61,1.78.18,2.68.16,3-.08,3.05-.07,3.68,2.91.18.9.36,1.8.57,2.69a2.28,2.28,0,0,1-1.54,2.48c-2.7.53-4,2.15-4.09,4.92a2.52,2.52,0,0,0,.78,2.31c.73.61,1.4,1.3,2.11,2a1.59,1.59,0,0,1,.27,2.22c-.8,1.28-1.63,2.55-2.45,3.81a1.72,1.72,0,0,1-2.27.68,2.27,2.27,0,0,1-.5-.23c-2.62-1.89-4.77-.72-6.84,1a1.61,1.61,0,0,0-.53,1.47c.06,1,.09,2,.13,3a1.75,1.75,0,0,1-1.5,2l-4.15.91a1.9,1.9,0,0,1-2.41-1.27,2.05,2.05,0,0,1-.16-.38c-.4-3.06-2.54-3.85-5.19-4.06a2,2,0,0,0-1.84.66c-.12.14-.22.29-.35.42C125.68,197,126.11,197.36,122.41,194.89Zm7.89-11.95a9.21,9.21,0,0,0,12.87-2.7,9.31,9.31,0,0,0-2.76-13,9.33,9.33,0,1,0-10.11,15.69Z"/></g></g></g></svg>
