<svg xmlns="http://www.w3.org/2000/svg" xmlns:xlink="http://www.w3.org/1999/xlink" viewBox="0 0 350 350"><defs><style>.cls-1{isolation:isolate;}.cls-2{fill:#f4f0e6;}.cls-14,.cls-3{fill:#fff;}.cls-10,.cls-11,.cls-12,.cls-13,.cls-14,.cls-15,.cls-3,.cls-4,.cls-5,.cls-6,.cls-7,.cls-9{stroke:#000;}.cls-10,.cls-12,.cls-14,.cls-3,.cls-4,.cls-5,.cls-6,.cls-7{stroke-linecap:round;}.cls-10,.cls-12,.cls-14,.cls-3{stroke-linejoin:round;}.cls-10,.cls-13,.cls-14,.cls-3,.cls-4,.cls-5,.cls-6,.cls-7,.cls-9{stroke-width:0.6px;}.cls-4,.cls-5,.cls-6,.cls-7{fill-opacity:0.85;}.cls-11,.cls-13,.cls-15,.cls-4,.cls-5,.cls-6,.cls-7,.cls-9{stroke-miterlimit:10;}.cls-4{fill:url(#linear-gradient);}.cls-5{fill:url(#linear-gradient-2);}.cls-6{fill:url(#linear-gradient-3);}.cls-7{fill:url(#linear-gradient-4);}.cls-8{opacity:0.16;mix-blend-mode:multiply;}.cls-11,.cls-9{fill:#006;}.cls-10{fill:gray;}.cls-10,.cls-14{opacity:0.58;}.cls-11,.cls-15{stroke-width:0.57px;}.cls-12{fill:none;stroke-width:0.65px;}.cls-13,.cls-15{fill:#792ee5;}</style><linearGradient id="linear-gradient" x1="161.47" y1="112.57" x2="190.68" y2="112.57" gradientUnits="userSpaceOnUse"><stop offset="0" stop-color="#fff"/><stop offset="0" stop-color="#fffbf2"/><stop offset="0" stop-color="#fff2d3"/><stop offset="0" stop-color="#feebb7"/><stop offset="0" stop-color="#fee5a1"/><stop offset="0" stop-color="#fee090"/><stop offset="0" stop-color="#fedc85"/><stop offset="0" stop-color="#fedb7e"/><stop offset="0" stop-color="#feda7c"/><stop offset="0.12" stop-color="#f9d480"/><stop offset="0.28" stop-color="#ecc38a"/><stop offset="0.46" stop-color="#d7a79b"/><stop offset="0.66" stop-color="#b980b3"/><stop offset="0.87" stop-color="#924fd1"/><stop offset="1" stop-color="#792ee5"/></linearGradient><linearGradient id="linear-gradient-2" x1="118.82" y1="174.45" x2="133.42" y2="149.15" xlink:href="#linear-gradient"/><linearGradient id="linear-gradient-3" x1="240.75" y1="172.13" x2="220.1" y2="151.48" xlink:href="#linear-gradient"/><linearGradient id="linear-gradient-4" x1="176.07" y1="203.11" x2="176.07" y2="232.31" xlink:href="#linear-gradient"/></defs><g class="cls-1"><g id="Layer_2" data-name="Layer 2"><g id="boundary_boxes" data-name="boundary boxes"><rect class="cls-2" width="350" height="350"/></g><g id="graph_classification" data-name="graph classification"><g id="graph_magnifying" data-name="graph + magnifying"><circle class="cls-3" cx="176.48" cy="165.14" r="92.11"/><circle class="cls-4" cx="176.07" cy="112.57" r="14.6"/><circle class="cls-5" cx="126.12" cy="161.8" r="14.6"/><circle class="cls-6" cx="230.43" cy="161.8" r="14.6"/><circle class="cls-7" cx="176.07" cy="217.71" r="14.6"/><line class="cls-3" x1="136.79" y1="151.83" x2="164.85" y2="121.91"/><line class="cls-3" x1="187.3" y1="121.91" x2="219.76" y2="151.83"/><line class="cls-3" x1="215.83" y1="161.8" x2="140.72" y2="161.8"/><line class="cls-3" x1="187.3" y1="208.37" x2="219.76" y2="171.77"/><g class="cls-8"><path class="cls-9" d="M148.07,253.72l-12.54,12.53a4.19,4.19,0,0,1-5.95,0l-1.92-1.92a4.19,4.19,0,0,1,0-5.95l12.53-12.54Z"/><path class="cls-9" d="M146.37,259.91,88,318.3a6.6,6.6,0,0,1-9.34,0l-3-3a6.6,6.6,0,0,1,0-9.34L134,247.54Z"/><circle class="cls-10" cx="175.92" cy="217.99" r="41.56"/><path class="cls-11" d="M175.92,172.14A45.85,45.85,0,1,0,221.77,218,45.85,45.85,0,0,0,175.92,172.14Zm0,85.64A39.8,39.8,0,1,1,215.72,218,39.78,39.78,0,0,1,175.92,257.78Z"/><path class="cls-12" d="M205.18,198.73a32.28,32.28,0,0,1,2.52,34"/></g><path class="cls-13" d="M141.07,246.72l-12.54,12.53a4.19,4.19,0,0,1-6,0l-1.92-1.92a4.19,4.19,0,0,1,0-5.95l12.53-12.54Z"/><path class="cls-13" d="M139.37,252.91,81,311.3a6.6,6.6,0,0,1-9.34,0l-3-3a6.6,6.6,0,0,1,0-9.34L127,240.54Z"/><circle class="cls-14" cx="168.92" cy="210.99" r="41.56"/><path class="cls-15" d="M168.92,165.14A45.85,45.85,0,1,0,214.77,211,45.85,45.85,0,0,0,168.92,165.14Zm0,85.64A39.8,39.8,0,1,1,208.72,211,39.78,39.78,0,0,1,168.92,250.78Z"/><path class="cls-12" d="M198.18,191.73a32.28,32.28,0,0,1,2.52,34"/></g></g></g></g></svg>
