<svg xmlns="http://www.w3.org/2000/svg" xmlns:xlink="http://www.w3.org/1999/xlink" viewBox="0 0 350 350"><defs><style>.cls-1,.cls-7{fill:#f4f0e6;}.cls-2,.cls-3,.cls-6{fill:#fff;stroke-linejoin:round;}.cls-2{fill-opacity:0.64;}.cls-2,.cls-3,.cls-4,.cls-5,.cls-6,.cls-7,.cls-8{stroke:#000;}.cls-2,.cls-3,.cls-4,.cls-5,.cls-6{stroke-linecap:round;}.cls-2,.cls-3,.cls-4,.cls-5,.cls-7{stroke-width:0.6px;}.cls-4,.cls-5{fill-opacity:0.85;}.cls-4,.cls-5,.cls-7,.cls-8{stroke-miterlimit:10;}.cls-4{fill:url(#linear-gradient);}.cls-5{fill:url(#linear-gradient-2);}.cls-6{stroke-width:0.65px;}.cls-8{fill:#792ee5;stroke-width:0.2px;}</style><linearGradient id="linear-gradient" x1="143.11" y1="114.45" x2="133.67" y2="130.81" gradientUnits="userSpaceOnUse"><stop offset="0" stop-color="#fff"/><stop offset="0" stop-color="#fffbf2"/><stop offset="0" stop-color="#fff2d3"/><stop offset="0" stop-color="#feebb7"/><stop offset="0" stop-color="#fee5a1"/><stop offset="0" stop-color="#fee090"/><stop offset="0" stop-color="#fedc85"/><stop offset="0" stop-color="#fedb7e"/><stop offset="0" stop-color="#feda7c"/><stop offset="0.09" stop-color="#e6bb8f"/><stop offset="0.24" stop-color="#c590a9"/><stop offset="0.39" stop-color="#aa6dbf"/><stop offset="0.54" stop-color="#9451cf"/><stop offset="0.69" stop-color="#853edb"/><stop offset="0.84" stop-color="#7c32e3"/><stop offset="1" stop-color="#792ee5"/></linearGradient><linearGradient id="linear-gradient-2" x1="88.37" y1="213.54" x2="128.69" y2="143.71" xlink:href="#linear-gradient"/></defs><g id="Layer_2" data-name="Layer 2"><g id="boundary_boxes" data-name="boundary boxes"><rect class="cls-1" width="350" height="350"/></g><g id="image_embedder" data-name="image embedder"><path class="cls-2" d="M151.51,147.13h79.7c1-5.09,5.77-9,11.58-9h17.83c6.49,0,11.76,4.84,11.76,10.82V266.92H132.22V164.87C132.22,155.07,140.85,147.13,151.51,147.13Z"/><rect class="cls-3" x="60.11" y="105.1" width="95.68" height="95.68" rx="8.42"/><circle class="cls-4" cx="138.39" cy="122.63" r="9.44"/><path class="cls-5" d="M155.79,159.35s-24.5,14-33.26,14c-10.64,0-24.4-28-35-28-11.23,0-27.38,19.32-27.38,19.32v27.72a8.42,8.42,0,0,0,8.42,8.42h78.84a8.42,8.42,0,0,0,8.42-8.42Z"/><path class="cls-6" d="M269.62,167.19H170.93c-11.58,0-22.17,7.15-23.66,16l-14.09,83.73H273.79l14.1-83.73C289.38,174.35,281.2,167.19,269.62,167.19Z"/><path class="cls-7" d="M214.47,205.41l51.77.05a4,4,0,0,1,4.11,4.86l-6.28,35.53a6.09,6.09,0,0,1-5.82,4.84l-51.77,0a4,4,0,0,1-4.11-4.86l6.28-35.54A6.09,6.09,0,0,1,214.47,205.41Z"/><path class="cls-7" d="M165,178.14l39.26,0a3,3,0,0,1,3.11,3.69l-7.2,42.52a4.62,4.62,0,0,1-4.41,3.67l-39.26,0a3.05,3.05,0,0,1-3.12-3.69l7.21-42.52A4.6,4.6,0,0,1,165,178.14Z"/><g id="Za"><path class="cls-8" d="M171.6,195.22l.31-2.28h11.28L183,194.5l-10.5,13h9.21l-.31,2.28H168.9l.22-1.56,10.54-13Z"/><path class="cls-8" d="M187,217.74l.08-.61a3.3,3.3,0,0,1-2.13.75,2.88,2.88,0,0,1-1.6-.44,2.71,2.71,0,0,1-1.05-1.24,3.27,3.27,0,0,1-.22-1.75,4,4,0,0,1,.7-1.77,4.09,4.09,0,0,1,1.41-1.24,3.38,3.38,0,0,1,1.66-.42,2.73,2.73,0,0,1,2,.74l.08-.6h1.29l-.9,6.58Zm.23-2.06.34-2.46a1.93,1.93,0,0,0-1.75-.94,2.23,2.23,0,0,0-1.6.64,2.46,2.46,0,0,0-.81,1.53,1.88,1.88,0,0,0,.42,1.53,1.83,1.83,0,0,0,1.47.64A2.52,2.52,0,0,0,187.24,215.68Z"/><path class="cls-8" d="M227.43,220.16l.27-2.28H239l-.18,1.56-10.23,13h9.21l-.26,2.28H225l.18-1.56,10.28-13Z"/><path class="cls-8" d="M239.85,242.07l-.07.6h-1.29l1.15-9.94H241l-.45,3.93a3.38,3.38,0,0,1,2.09-.71,2.81,2.81,0,0,1,2.65,1.67,3.23,3.23,0,0,1,.26,1.76,4,4,0,0,1-.66,1.76,3.85,3.85,0,0,1-1.37,1.23,3.42,3.42,0,0,1-1.7.44A2.63,2.63,0,0,1,239.85,242.07Zm.49-3.92-.28,2.46a1.88,1.88,0,0,0,1.69.94,2.34,2.34,0,0,0,1.64-.64,2.4,2.4,0,0,0,.8-1.53,1.94,1.94,0,0,0-.42-1.53,1.75,1.75,0,0,0-1.44-.64A2.54,2.54,0,0,0,240.34,238.15Z"/></g></g></g></svg>
