<svg xmlns="http://www.w3.org/2000/svg" xmlns:xlink="http://www.w3.org/1999/xlink" viewBox="0 0 350 350"><defs><style>.cls-1,.cls-14,.cls-15,.cls-16,.cls-3{fill:none;}.cls-2,.cls-5{fill:#f4f0e6;}.cls-10,.cls-12,.cls-14,.cls-15,.cls-16,.cls-17,.cls-18,.cls-3,.cls-4,.cls-5,.cls-6,.cls-7,.cls-8,.cls-9{stroke:#000;stroke-width:0.6px;}.cls-12,.cls-15,.cls-16,.cls-17,.cls-18,.cls-3,.cls-4,.cls-6,.cls-7,.cls-8,.cls-9{stroke-linecap:round;}.cls-12,.cls-16,.cls-3,.cls-4{stroke-linejoin:round;}.cls-10,.cls-4{fill:#fff;}.cls-10,.cls-14,.cls-15,.cls-17,.cls-18,.cls-5,.cls-6,.cls-7,.cls-8,.cls-9{stroke-miterlimit:10;}.cls-17,.cls-18,.cls-6,.cls-7,.cls-8,.cls-9{fill-opacity:0.85;}.cls-6{fill:url(#linear-gradient);}.cls-7{fill:url(#linear-gradient-2);}.cls-8{fill:url(#linear-gradient-3);}.cls-9{fill:url(#linear-gradient-4);}.cls-11{clip-path:url(#clip-path);}.cls-12{fill:#feda7c;}.cls-13{clip-path:url(#clip-path-2);}.cls-16{stroke-dasharray:2.39 2.39;}.cls-17{fill:url(#linear-gradient-5);}.cls-18{fill:url(#linear-gradient-6);}</style><linearGradient id="linear-gradient" x1="75.42" y1="260.32" x2="90.9" y2="260.32" gradientUnits="userSpaceOnUse"><stop offset="0" stop-color="#fff"/><stop offset="0" stop-color="#fffbf2"/><stop offset="0" stop-color="#fff2d3"/><stop offset="0" stop-color="#feebb7"/><stop offset="0" stop-color="#fee5a1"/><stop offset="0" stop-color="#fee090"/><stop offset="0" stop-color="#fedc85"/><stop offset="0" stop-color="#fedb7e"/><stop offset="0" stop-color="#feda7c"/><stop offset="0.09" stop-color="#e6bb8f"/><stop offset="0.24" stop-color="#c590a9"/><stop offset="0.39" stop-color="#aa6dbf"/><stop offset="0.54" stop-color="#9451cf"/><stop offset="0.69" stop-color="#853edb"/><stop offset="0.84" stop-color="#7c32e3"/><stop offset="1" stop-color="#792ee5"/></linearGradient><linearGradient id="linear-gradient-2" x1="42.29" y1="259.84" x2="59.48" y2="259.84" xlink:href="#linear-gradient"/><linearGradient id="linear-gradient-3" x1="63.79" y1="260.48" x2="76.3" y2="260.48" gradientTransform="translate(325.58 174.13) rotate(86.38)" xlink:href="#linear-gradient"/><linearGradient id="linear-gradient-4" x1="59.44" y1="260.57" x2="63.86" y2="260.57" gradientTransform="translate(196.99 29.53) rotate(43.67)" xlink:href="#linear-gradient"/><clipPath id="clip-path"><path class="cls-1" d="M89.45,155.3C91,158.72,94.23,162,96,161.17s1.39-5.36-.17-8.78-4.27-5.54-6-4.74S87.88,151.88,89.45,155.3Z"/></clipPath><clipPath id="clip-path-2"><path class="cls-1" d="M119.5,256.78c-2.28,6.43-2.13,15.05,1.24,16.63s8.71-4.48,11-10.91,1.38-12.91-2-14.49S121.77,250.36,119.5,256.78Z"/></clipPath><linearGradient id="linear-gradient-5" x1="292.37" y1="77.95" x2="276.5" y2="105.44" xlink:href="#linear-gradient"/><linearGradient id="linear-gradient-6" x1="152.91" y1="176.41" x2="313.67" y2="176.41" xlink:href="#linear-gradient"/></defs><g id="Layer_2" data-name="Layer 2"><g id="boundary_boxes" data-name="boundary boxes"><rect class="cls-2" width="350" height="350"/></g><g id="image_classification" data-name="image classification"><g id="foldr_and_image" data-name="foldr and image"><path class="cls-3" d="M149.6,194.18H76.46c-.88-4.67-5.29-8.22-10.62-8.22H49.48c-6,0-10.8,4.44-10.8,9.92V304.1H167.3V210.45C167.3,201.47,159.37,194.18,149.6,194.18Z"/><path class="cls-4" d="M41.22,212.59h90.56c10.62,0,20.34,6.57,21.7,14.68l12.94,76.83h-129L24.45,227.26C23.09,219.16,30.59,212.59,41.22,212.59Z"/></g><g id="ant_and_bee" data-name="ant and bee"><path class="cls-5" d="M90.9,240.66l-51.77.05A4,4,0,0,0,35,245.57L41.3,281.1a6.09,6.09,0,0,0,5.82,4.84l51.77,0A4,4,0,0,0,103,281L96.72,245.5A6.09,6.09,0,0,0,90.9,240.66Z"/><path class="cls-5" d="M140.74,233.21l-33.23,0a4,4,0,0,0-4.11,4.86l6.28,35.53a6.11,6.11,0,0,0,5.82,4.85l33.23-.05a4,4,0,0,0,4.11-4.86l-6.28-35.54A6.1,6.1,0,0,0,140.74,233.21Z"/><path class="cls-6" d="M75.58,258.29c-.73-4,1.13-5.11,5.13-5.15s9,2.61,9.73,6.63.71,7-.84,7.64C87.34,268.28,76.3,262.31,75.58,258.29Z"/><path class="cls-7" d="M59.1,262.8c1.06-2.45-.05-5.36-3.87-7.11s-9.14-1.34-10.64,2.2a50.25,50.25,0,0,0-2.3,6.66S57.57,266.33,59.1,262.8Z"/><ellipse class="cls-8" cx="70.05" cy="260.48" rx="3.44" ry="6.27" transform="translate(-194.33 313.95) rotate(-86.38)"/><ellipse class="cls-9" cx="61.65" cy="260.57" rx="2.02" ry="2.4" transform="translate(-162.88 114.67) rotate(-43.67)"/><ellipse class="cls-10" cx="92.07" cy="256.29" rx="1.16" ry="1.39" transform="translate(-177.42 217.15) rotate(-61.98)"/><path class="cls-3" d="M91.25,255.08s-1.93-3.18-4-3.15a3.94,3.94,0,0,0-3.07,1.79"/><path class="cls-3" d="M83.76,273s.62-.94,1.33-.9a2.41,2.41,0,0,1,1.45.87l-2.78,0-4.12-9-4.38.77L74,263.3"/><path class="cls-3" d="M76.48,273.06s.72-.89,1.43-.94,1.64.9,1.64.9l-3.07,0-3.14-7.8-3.14.65.47-2"/><ellipse class="cls-10" cx="79.53" cy="263.91" rx="0.5" ry="0.6" transform="translate(-190.81 210.13) rotate(-61.98)"/><ellipse class="cls-10" cx="73.36" cy="265.34" rx="0.5" ry="0.6" transform="translate(-195.34 205.44) rotate(-61.98)"/><path class="cls-3" d="M55.88,273.28s-1-1-1.76-1-1.3,1-1.3,1l3.06,0,3-8.37,2.07.84.52-3"/><ellipse class="cls-10" cx="58.9" cy="264.99" rx="0.5" ry="0.6" transform="translate(-202.69 192.48) rotate(-61.98)"/></g><g id="top_b" data-name="top b"><g class="cls-11"><path class="cls-12" d="M89.45,155.3C91,158.72,94.23,162,96,161.17s1.39-5.36-.17-8.78-4.27-5.54-6-4.74S87.88,151.88,89.45,155.3Z"/><line class="cls-10" x1="96.04" y1="151.93" x2="88.81" y2="155.25"/><line class="cls-10" x1="95.2" y1="150.09" x2="87.97" y2="153.4"/><line class="cls-10" x1="93.72" y1="146.87" x2="86.49" y2="150.19"/><line class="cls-10" x1="94.35" y1="148.25" x2="87.13" y2="151.57"/><line class="cls-10" x1="96.88" y1="153.77" x2="89.66" y2="157.09"/><line class="cls-10" x1="97.73" y1="155.61" x2="90.5" y2="158.92"/><line class="cls-10" x1="98.57" y1="157.45" x2="91.34" y2="160.76"/><line class="cls-10" x1="99.41" y1="159.29" x2="92.18" y2="162.6"/><line class="cls-10" x1="99.62" y1="159.75" x2="92.39" y2="163.06"/></g></g><g id="bottom_bee" data-name="bottom bee"><g class="cls-13"><path class="cls-12" d="M119.5,256.78c-2.28,6.43-2.13,15.05,1.24,16.63s8.71-4.48,11-10.91,1.38-12.91-2-14.49S121.77,250.36,119.5,256.78Z"/><line class="cls-10" x1="132.62" y1="262.3" x2="118.72" y2="255.79"/><line class="cls-10" x1="133.85" y1="258.83" x2="119.95" y2="252.33"/><line class="cls-10" x1="135.99" y1="252.79" x2="122.09" y2="246.28"/><line class="cls-10" x1="135.68" y1="253.65" x2="121.78" y2="247.15"/><line class="cls-10" x1="135.07" y1="255.38" x2="121.17" y2="248.88"/><line class="cls-10" x1="131.4" y1="265.75" x2="117.5" y2="259.25"/><line class="cls-10" x1="130.18" y1="269.21" x2="116.28" y2="262.7"/><line class="cls-10" x1="128.96" y1="272.66" x2="115.06" y2="266.16"/><line class="cls-10" x1="127.73" y1="276.11" x2="113.84" y2="269.61"/><line class="cls-10" x1="127.43" y1="276.98" x2="113.53" y2="270.47"/></g></g><g id="bee_outlie" data-name="bee outlie"><path class="cls-14" d="M119.7,256.44c-2.28,6.42-2.14,15,1.24,16.62s8.71-4.47,11-10.9,1.38-12.92-2-14.5S122,250,119.7,256.44Z"/><path class="cls-3" d="M89.45,155.24c1.56,3.42,4.78,6.67,6.53,5.87s1.39-5.37-.17-8.79-4.27-5.54-6-4.73S87.88,151.82,89.45,155.24Z"/><path class="cls-10" d="M88.08,147.66a1.58,1.58,0,1,0,2.85-1.3,1.57,1.57,0,0,0-2.85,1.3Z"/><path class="cls-15" d="M88.88,145.64a3.28,3.28,0,0,1,.58-2.06,4.14,4.14,0,0,1,1.88-1"/><path class="cls-15" d="M88.88,145.64a3.28,3.28,0,0,0-1.94-.91,4.25,4.25,0,0,0-2,.8"/><path class="cls-10" d="M81.8,154.42c.1,1.48,1.82,3,4.65,1.68s3.84-7.53,3.84-7.53a9.06,9.06,0,0,0-4.48,1.08C83,150.94,81.71,153,81.8,154.42Z"/><path class="cls-10" d="M100.27,146c1,1,1.06,3.32-1.77,4.62s-8.21-2-8.21-2A9,9,0,0,1,94,145.88C96.86,144.58,99.24,145,100.27,146Z"/><path class="cls-3" d="M96.53,162.39c0,.4.11.78.15,1.16"/><path class="cls-16" d="M96.94,165.92c1.29,14.81-4.29,16.06-8.08,19.33s-16,2.09-14.12-4.53c2.27-8.1,9.76-2.44,11.22,2.66,2,6.86,6,19.13-2.68,25.51a20.7,20.7,0,0,0-3.52,3"/><path class="cls-3" d="M78.66,212.29l-1.13.29"/><path class="cls-10" d="M127.73,245.29a3.73,3.73,0,0,0,1.65,4.32,2.93,2.93,0,0,0,3.81-1.76,3.25,3.25,0,0,0-1.82-3.85A2.56,2.56,0,0,0,127.73,245.29Z"/><path class="cls-15" d="M131.37,244a5.25,5.25,0,0,1,3.41-1.66,8.45,8.45,0,0,1,3.74,1.57"/><path class="cls-15" d="M131.37,244a6.94,6.94,0,0,0-1.44-3.93,8.56,8.56,0,0,0-3.63-1.88"/><path class="cls-10" d="M110.69,244.35c-1.76,1.92-1.36,6.25,4.07,8.8s14.76-3.55,14.76-3.55-1.93-2.67-7.37-5.21S112.4,242.47,110.69,244.35Z"/><path class="cls-10" d="M146.19,261c.08,2.78-2.82,5.57-8.26,3s-8.41-14.39-8.41-14.39,3-.36,8.44,2.18S146.1,258.24,146.19,261Z"/></g><rect class="cls-4" x="152.91" y="62.24" width="160.76" height="160.76" rx="14.14"/><circle class="cls-17" cx="284.43" cy="91.7" r="15.87"/><path class="cls-18" d="M313.67,153.39s-41.17,23.54-55.89,23.54c-17.87,0-41-47.08-58.87-47.11-18.86,0-46,32.46-46,32.46v46.57A14.14,14.14,0,0,0,167.06,223H299.52a14.14,14.14,0,0,0,14.15-14.14Z"/></g></g></svg>
