<svg xmlns="http://www.w3.org/2000/svg" xmlns:xlink="http://www.w3.org/1999/xlink" viewBox="0 0 350 350"><defs><style>.cls-1{isolation:isolate;}.cls-2{fill:#f4f0e6;}.cls-12,.cls-3{fill:none;}.cls-12,.cls-3,.cls-4,.cls-5,.cls-6,.cls-7{stroke:#000;stroke-linecap:round;stroke-width:0.6px;}.cls-3,.cls-4{stroke-linejoin:round;}.cls-10,.cls-4{fill:#fff;}.cls-5,.cls-6{fill-opacity:0.85;}.cls-12,.cls-5,.cls-6,.cls-7{stroke-miterlimit:10;}.cls-5{fill:url(#linear-gradient);}.cls-6{fill:url(#linear-gradient-2);}.cls-7{fill:url(#linear-gradient-3);}.cls-8{opacity:0.16;mix-blend-mode:multiply;}.cls-9{fill:gray;}.cls-11{fill:url(#linear-gradient-4);}</style><linearGradient id="linear-gradient" x1="147.57" y1="205.5" x2="142.86" y2="213.67" gradientUnits="userSpaceOnUse"><stop offset="0" stop-color="#fff"/><stop offset="0" stop-color="#fffbf2"/><stop offset="0" stop-color="#fff2d3"/><stop offset="0" stop-color="#feebb7"/><stop offset="0" stop-color="#fee5a1"/><stop offset="0" stop-color="#fee090"/><stop offset="0" stop-color="#fedc85"/><stop offset="0" stop-color="#fedb7e"/><stop offset="0" stop-color="#feda7c"/><stop offset="0.09" stop-color="#e6bb8f"/><stop offset="0.24" stop-color="#c590a9"/><stop offset="0.39" stop-color="#aa6dbf"/><stop offset="0.54" stop-color="#9451cf"/><stop offset="0.69" stop-color="#853edb"/><stop offset="0.84" stop-color="#7c32e3"/><stop offset="1" stop-color="#792ee5"/></linearGradient><linearGradient id="linear-gradient-2" x1="106.14" y1="234.75" x2="153.9" y2="234.75" xlink:href="#linear-gradient"/><linearGradient id="linear-gradient-3" x1="74.83" y1="140.51" x2="186.6" y2="140.51" gradientUnits="userSpaceOnUse"><stop offset="0" stop-color="#792ee5"/><stop offset="0.15" stop-color="#8740da"/><stop offset="0.44" stop-color="#ac70bd"/><stop offset="0.85" stop-color="#e7bc8e"/><stop offset="1" stop-color="#feda7c"/><stop offset="1" stop-color="#fedb7e"/><stop offset="1" stop-color="#fedc85"/><stop offset="1" stop-color="#fee090"/><stop offset="1" stop-color="#fee5a1"/><stop offset="1" stop-color="#feebb7"/><stop offset="1" stop-color="#fff2d3"/><stop offset="1" stop-color="#fffbf2"/><stop offset="1" stop-color="#fff"/></linearGradient><linearGradient id="linear-gradient-4" x1="182.55" y1="208.57" x2="275.57" y2="208.57" gradientUnits="userSpaceOnUse"><stop offset="0" stop-color="#fff"/><stop offset="0" stop-color="#fffbf2"/><stop offset="0" stop-color="#fff2d3"/><stop offset="0" stop-color="#feebb7"/><stop offset="0" stop-color="#fee5a1"/><stop offset="0" stop-color="#fee090"/><stop offset="0" stop-color="#fedc85"/><stop offset="0" stop-color="#fedb7e"/><stop offset="0" stop-color="#feda7c"/><stop offset="0.12" stop-color="#f9d480"/><stop offset="0.28" stop-color="#ecc38a"/><stop offset="0.46" stop-color="#d7a79b"/><stop offset="0.66" stop-color="#b980b3"/><stop offset="0.87" stop-color="#924fd1"/><stop offset="1" stop-color="#792ee5"/></linearGradient></defs><g class="cls-1"><g id="Layer_2" data-name="Layer 2"><g id="boundary_boxes" data-name="boundary boxes"><rect class="cls-2" width="350" height="350"/></g><g id="instance_segmentation" data-name="instance segmentation"><path class="cls-3" d="M130.13,218.9H87.35a6.19,6.19,0,0,0-6.22-4.81H71.56a6.08,6.08,0,0,0-6.31,5.8v63.3h75.23V228.42C140.48,223.16,135.85,218.9,130.13,218.9Z"/><rect class="cls-4" x="106.14" y="200.83" width="47.77" height="47.77" rx="4.2"/><circle class="cls-5" cx="145.22" cy="209.58" r="4.72"/><path class="cls-6" d="M153.9,227.91s-12.23,7-16.6,7c-5.31,0-12.18-14-17.5-14-5.6,0-13.66,9.64-13.66,9.64v13.84a4.2,4.2,0,0,0,4.2,4.2H149.7a4.2,4.2,0,0,0,4.2-4.2Z"/><rect class="cls-4" x="61.78" y="69.54" width="141.48" height="122.5"/><path class="cls-7" d="M185.46,110.51a20,20,0,0,0-4.28-1.85,28.86,28.86,0,0,1-3.58-1.74,2.43,2.43,0,0,1-1.06-1.41,8,8,0,0,0-5.66-5.08c-4.61-1.42-9.09-1.17-13.24,1.58a6.7,6.7,0,0,0-2.17,2.32,7.24,7.24,0,0,1-1.5,1.42c-.6.55-1.18,1.11-1.76,1.68-1.14,1.15-2.23,2.34-3.29,3.56s-2.22,2.63-3.32,4a35.13,35.13,0,0,1-4.77,5.07,11.88,11.88,0,0,1-4.67,2,51.77,51.77,0,0,1-10,1.38c-4.16.26-8.32.37-12.49.56a92,92,0,0,0-10.21,1,31.6,31.6,0,0,0-8.5,2.45.88.88,0,0,1-1,0,35.15,35.15,0,0,1-12.67-12.59,42.39,42.39,0,0,1-4.43-10,5.07,5.07,0,0,0-1.29-2.44l-.06,0s-.06,0-.08,0a1.88,1.88,0,0,0-.52.78,3.89,3.89,0,0,0,0,1.73c.07.61.15,1.21.24,1.81.19,1.21.42,2.42.71,3.61a35.76,35.76,0,0,0,1.64,5,46.65,46.65,0,0,0,10.32,15.31c.3.3.58.62.86.92-.49,1.57-1.26,3-1.74,4.56-.78,2.58-1.31,5.22-1.87,7.85-.83,3.94-1.51,7.91-3.38,11.55a15.78,15.78,0,0,1-3.06,4,4.55,4.55,0,0,0-1.27,4.27,13.54,13.54,0,0,1-.13,4.17c-.34,3-.82,6-.09,9.08a7.36,7.36,0,0,0,2.09,3.38c1.1,1.13,2.64,1.06,4.06,1.13a6.49,6.49,0,0,0,2.36-.44c.35-.12.61-.24.57-.67-.07-.66-.08-1.33-.2-2a3,3,0,0,0-1.8-2.06,2.65,2.65,0,0,1-1.5-2.58,18.31,18.31,0,0,1,1.05-6.52,1.87,1.87,0,0,1,.75-1c.63-.37.73-1,.94-1.62l1.23-3.59-1.61,4.92a2.39,2.39,0,0,1,.57,1.8,19.58,19.58,0,0,0,.74,6.72,3.08,3.08,0,0,0,.19.47c1.13,2,2.39,3.77,4.93,4a8.15,8.15,0,0,0,2.15-.09,8.91,8.91,0,0,0,2-.68.24.24,0,0,0,.08-.06s0-.05,0-.07c-.07-.49-.12-1-.2-1.45a3.19,3.19,0,0,0-1.29-2.21,3.07,3.07,0,0,0-.39-.23,3.94,3.94,0,0,1-2.27-3.62,15.22,15.22,0,0,1,2.84-10.7,88.15,88.15,0,0,1,6.45-6.8,1.25,1.25,0,0,1,.94-.38c.88,0,1.77-.08,2.65-.09a103.12,103.12,0,0,1,10.4.46c3.15.29,6.32.45,9.46.79s6,.52,9,.73c1,.07,1.22.2,1.22,1.23a70.88,70.88,0,0,1-.64,11.74,1.79,1.79,0,0,0,.47,1.87c.42.33.35.73.37,1.15a11.38,11.38,0,0,0,1.78,6.25,3.92,3.92,0,0,0,2.85,1.82,18.18,18.18,0,0,0,2.55.15c1.13,0,2.2.06,2.86,1.23a2.2,2.2,0,0,0,1.5,1,15.3,15.3,0,0,0,6.46.08.29.29,0,0,0,.13-.05.41.41,0,0,0,.13-.1l.13-.14a.1.1,0,0,0,0-.05.08.08,0,0,0,0-.07,6,6,0,0,0-2.94-4.7l-.08,0a4,4,0,0,1-1.87-3.23,37.49,37.49,0,0,1,.59-10.2c.58-3.63,1.47-7.2,2.23-10.79a3,3,0,0,1,1.22-2,27.87,27.87,0,0,0,3.14-2.82,20.24,20.24,0,0,0,5.09-9.37c.73-2.61,1.37-5.24,2.1-7.85.32-1.16,1.31-2.15.83-3.5a.52.52,0,0,1,0-.47,11.79,11.79,0,0,0,1.23,2.65,4.51,4.51,0,0,0,2.18,1c1,.3,2-.34,2.74-1.49a11.62,11.62,0,0,0,1.5-4.35,10.9,10.9,0,0,0,.22-1.41c0-.69.57-.85,1.21-.87,1.83,0,3.65,0,5.49-.15a8.14,8.14,0,0,0,7.47-5.61c.26-.7.59-1.37.84-2.08A2,2,0,0,0,185.46,110.51Zm-43.91,61.31a3.19,3.19,0,0,1-.53-2c.14-2.71.36-5.42.55-8.13l.43,8,1,4.8C142.51,173.7,142.07,172.57,141.55,171.82Z"/><rect class="cls-3" x="142.98" y="87.21" width="52.56" height="52.56"/><g class="cls-8"><rect class="cls-9" x="169.88" y="159.93" width="132.37" height="114.61"/><rect class="cls-3" x="169.88" y="159.93" width="132.37" height="114.61"/></g><rect class="cls-10" x="162.88" y="152.93" width="132.37" height="114.61"/><rect class="cls-3" x="162.88" y="152.93" width="132.37" height="114.61"/><path class="cls-11" d="M194.63,191l-.17.26a3.41,3.41,0,0,1-1.13.59l0,.67c0,.74.06,1.48.11,2.22a1.39,1.39,0,0,1-.94,1.52,7.58,7.58,0,0,0-4,3.86,8.39,8.39,0,0,1-1.65,2.22,4.61,4.61,0,0,0-.58.59,1.66,1.66,0,0,0-.19,2.17c.6.86,1,1.83,1.67,2.66a2.42,2.42,0,0,0,2.49.89,4.51,4.51,0,0,1,4.22,1.28c.42.4,1.06.53,1.34,1.12.65,1.37,1.42,2.7,1.94,4.11a6.37,6.37,0,0,1,0,2.27c0,1.13-.12,2.26-.17,3.39-.07,1.65-.16,3.31-.16,5a6.84,6.84,0,0,1-.52,2.4,28,28,0,0,1-5.47,8.46c-1.21,1.39-2.59,2.64-3.84,4a3,3,0,0,1-2.52.88,2.63,2.63,0,0,0-2.39,1.22,1.42,1.42,0,0,0,1,2.15,10.69,10.69,0,0,0,4.1.15c1.2-.24,2-1.12,3.07-1.62a6,6,0,0,0,2-1c.79-.82,1.56-1.63,2.43-2.37a41.8,41.8,0,0,1,3.59-2.63l.6-.4a16.51,16.51,0,0,0,3.48-2.94c.8-.92,1.83-1.64,2.72-2.49a8.78,8.78,0,0,0,.94-1.22,6.31,6.31,0,0,1,2-1.72c.37-.22.74-.45,1.09-.7a2.79,2.79,0,0,1,1-.58,3.58,3.58,0,0,1,1.4.26,13,13,0,0,0,1.54.26,22.87,22.87,0,0,1,2.61.28,2.81,2.81,0,0,1,1.94,1.44,63.74,63.74,0,0,1,3.85,7.26l.56,1.38c.59,1.46.77,3,.4,3.37l-.38.15a1.72,1.72,0,0,0-1.19,2.41,1.35,1.35,0,0,0,1.48,1.19c1.11,0,2.21.23,3.34.17s1.46-.5,1.5-1.72a31.32,31.32,0,0,0-.16-3.62,82.12,82.12,0,0,0-1.57-8.95c-.25-1.26-.44-2.53-.64-3.8l0-.19c0-.22.06-.4.06-.41s0,0,0,0h0a11.93,11.93,0,0,1,4.39-.87c2.72.18,5.45.23,8.18.38.76,0,1.52.18,2.27.28a8.3,8.3,0,0,0,2.17-.07,2.29,2.29,0,0,1,1.72.33,2.78,2.78,0,0,1,.67,1.06,17,17,0,0,0,2.45,4c1.11,1.4,2.13,2.87,3.17,4.32a1.84,1.84,0,0,1-.06,2.45c-1.05,1.23-2.13,2.43-3.22,3.63a1.32,1.32,0,0,1-1.28.25,2.6,2.6,0,0,0-2.64,3.2,1,1,0,0,0,1.06.76c1.6-.06,3.2-.1,4.8-.19a1.26,1.26,0,0,0,.75-.4c1.11-1.23,2.19-2.49,3.28-3.74a4.08,4.08,0,0,1,.47-.46,7.68,7.68,0,0,0,2.1-2.7c.57-1.15,1.07-2.35,1.65-3.5a2.93,2.93,0,0,0,.05-1.87c-.22-1.7-.45-3.39-.63-5.09-.1-.89.13-1.11,1.1-.81,2.07.62,4.11,1.35,6.2,1.9a9.43,9.43,0,0,1,3.33,1.31,6.93,6.93,0,0,1,2.38,3.45,25.68,25.68,0,0,1,1.59,5.55l.23,2a3.57,3.57,0,0,0,3.85.11l.09-1.15a7.45,7.45,0,0,0-.71-3.1,39.75,39.75,0,0,1-2.33-7.17,13.8,13.8,0,0,0-1.78-5.1,3.93,3.93,0,0,0-.75-.88c-.47-.45-1-.85-1.46-1.3a10.66,10.66,0,0,1-1.42-1.43c-.43-.62-.77-1.3-1.16-1.94a6.1,6.1,0,0,1-.52-.93,11.43,11.43,0,0,1-.49-3.83,11.6,11.6,0,0,0-.41-3c-.31-1-.84-1.89-1.16-2.88a15.33,15.33,0,0,1-.52-2.7,7.91,7.91,0,0,1-.09-1.75,6.63,6.63,0,0,1,1.4-2.82c.69-1.09,1.38-2.18,2-3.29s1.24-2.36,1.82-3.57a28.17,28.17,0,0,0,2.78-8.88,16.08,16.08,0,0,0-1.08-7.78,17.22,17.22,0,0,0-2-3.74c-.13-.18-.24-.44-.41-.51-1.53-.64-2.55-2-4.08-2.66a11.73,11.73,0,0,0-2.93-1,7.54,7.54,0,0,0-3.57.29,6.06,6.06,0,0,0-3.44,2.28,6.2,6.2,0,0,0-.88,3.62,1.17,1.17,0,0,0,1.16,1,2.58,2.58,0,0,0,2-.81,4.43,4.43,0,0,1,2.45-1.31,3.07,3.07,0,0,1,1.7.25,7.4,7.4,0,0,1,4.14,4.45,9.44,9.44,0,0,1,.29,4.32,29.58,29.58,0,0,1-1.58,6.89,12.88,12.88,0,0,1-2.34,4.55,25,25,0,0,1-3.22,2.86,4.39,4.39,0,0,1-3.43.56c-2.06-.33-4.12-.71-6.2-.85a49.41,49.41,0,0,0-6,0c-1.85.09-3.7.31-5.55.52s-3.94.5-5.91.75c-1.23.16-2.46.29-3.68.47s-2.65.44-4,.64c-1.55.23-3.12.43-4.67.65a2.07,2.07,0,0,0-.7.18,5.85,5.85,0,0,1-3.75.45c-1.08-.2-2.14-.47-3.21-.69a9,9,0,0,1-3.16-1.71c-1.14-.79-2.24-1.66-3.4-2.43a12.2,12.2,0,0,0-2.16-1.17,10.59,10.59,0,0,1-4.15-3c-.57-.67-1.16-1.33-1.76-2a4.51,4.51,0,0,0-.69-.53"/><path class="cls-12" d="M194.63,191l-.17.26a3.41,3.41,0,0,1-1.13.59l0,.67c0,.74.06,1.48.11,2.22a1.39,1.39,0,0,1-.94,1.52,7.58,7.58,0,0,0-4,3.86,8.39,8.39,0,0,1-1.65,2.22,4.61,4.61,0,0,0-.58.59,1.66,1.66,0,0,0-.19,2.17c.6.86,1,1.83,1.67,2.66a2.42,2.42,0,0,0,2.49.89,4.51,4.51,0,0,1,4.22,1.28c.42.4,1.06.53,1.34,1.12.65,1.37,1.42,2.7,1.94,4.11a6.37,6.37,0,0,1,0,2.27c0,1.13-.12,2.26-.17,3.39-.07,1.65-.16,3.31-.16,5a6.84,6.84,0,0,1-.52,2.4,28,28,0,0,1-5.47,8.46c-1.21,1.39-2.59,2.64-3.84,4a3,3,0,0,1-2.52.88,2.63,2.63,0,0,0-2.39,1.22,1.42,1.42,0,0,0,1,2.15,10.69,10.69,0,0,0,4.1.15c1.2-.24,2-1.12,3.07-1.62a6,6,0,0,0,2-1c.79-.82,1.56-1.63,2.43-2.37a41.8,41.8,0,0,1,3.59-2.63l.6-.4a16.51,16.51,0,0,0,3.48-2.94c.8-.92,1.83-1.64,2.72-2.49a8.78,8.78,0,0,0,.94-1.22,6.31,6.31,0,0,1,2-1.72c.37-.22.74-.45,1.09-.7a2.79,2.79,0,0,1,1-.58,3.58,3.58,0,0,1,1.4.26,13,13,0,0,0,1.54.26,22.87,22.87,0,0,1,2.61.28,2.81,2.81,0,0,1,1.94,1.44,63.74,63.74,0,0,1,3.85,7.26l.56,1.38c.59,1.46.77,3,.4,3.37l-.38.15a1.72,1.72,0,0,0-1.19,2.41,1.35,1.35,0,0,0,1.48,1.19c1.11,0,2.21.23,3.34.17s1.46-.5,1.5-1.72a31.32,31.32,0,0,0-.16-3.62,82.12,82.12,0,0,0-1.57-8.95c-.25-1.26-.44-2.53-.64-3.8l0-.19c0-.22.06-.4.06-.41s0,0,0,0h0a11.93,11.93,0,0,1,4.39-.87c2.72.18,5.45.23,8.18.38.76,0,1.52.18,2.27.28a8.3,8.3,0,0,0,2.17-.07,2.29,2.29,0,0,1,1.72.33,2.78,2.78,0,0,1,.67,1.06,17,17,0,0,0,2.45,4c1.11,1.4,2.13,2.87,3.17,4.32a1.84,1.84,0,0,1-.06,2.45c-1.05,1.23-2.13,2.43-3.22,3.63a1.32,1.32,0,0,1-1.28.25,2.6,2.6,0,0,0-2.64,3.2,1,1,0,0,0,1.06.76c1.6-.06,3.2-.1,4.8-.19a1.26,1.26,0,0,0,.75-.4c1.11-1.23,2.19-2.49,3.28-3.74a4.08,4.08,0,0,1,.47-.46,7.68,7.68,0,0,0,2.1-2.7c.57-1.15,1.07-2.35,1.65-3.5a2.93,2.93,0,0,0,.05-1.87c-.22-1.7-.45-3.39-.63-5.09-.1-.89.13-1.11,1.1-.81,2.07.62,4.11,1.35,6.2,1.9a9.43,9.43,0,0,1,3.33,1.31,6.93,6.93,0,0,1,2.38,3.45,25.68,25.68,0,0,1,1.59,5.55l.23,2a3.57,3.57,0,0,0,3.85.11l.09-1.15a7.45,7.45,0,0,0-.71-3.1,39.75,39.75,0,0,1-2.33-7.17,13.8,13.8,0,0,0-1.78-5.1,3.93,3.93,0,0,0-.75-.88c-.47-.45-1-.85-1.46-1.3a10.66,10.66,0,0,1-1.42-1.43c-.43-.62-.77-1.3-1.16-1.94a6.1,6.1,0,0,1-.52-.93,11.43,11.43,0,0,1-.49-3.83,11.6,11.6,0,0,0-.41-3c-.31-1-.84-1.89-1.16-2.88a15.33,15.33,0,0,1-.52-2.7,7.91,7.91,0,0,1-.09-1.75,6.63,6.63,0,0,1,1.4-2.82c.69-1.09,1.38-2.18,2-3.29s1.24-2.36,1.82-3.57a28.17,28.17,0,0,0,2.78-8.88,16.08,16.08,0,0,0-1.08-7.78,17.22,17.22,0,0,0-2-3.74c-.13-.18-.24-.44-.41-.51-1.53-.64-2.55-2-4.08-2.66a11.73,11.73,0,0,0-2.93-1,7.54,7.54,0,0,0-3.57.29,6.06,6.06,0,0,0-3.44,2.28,6.2,6.2,0,0,0-.88,3.62,1.17,1.17,0,0,0,1.16,1,2.58,2.58,0,0,0,2-.81,4.43,4.43,0,0,1,2.45-1.31,3.07,3.07,0,0,1,1.7.25,7.4,7.4,0,0,1,4.14,4.45,9.44,9.44,0,0,1,.29,4.32,29.58,29.58,0,0,1-1.58,6.89,12.88,12.88,0,0,1-2.34,4.55,25,25,0,0,1-3.22,2.86,4.39,4.39,0,0,1-3.43.56c-2.06-.33-4.12-.71-6.2-.85a49.41,49.41,0,0,0-6,0c-1.85.09-3.7.31-5.55.52s-3.94.5-5.91.75c-1.23.16-2.46.29-3.68.47s-2.65.44-4,.64c-1.55.23-3.12.43-4.67.65a2.07,2.07,0,0,0-.7.18,5.85,5.85,0,0,1-3.75.45c-1.08-.2-2.14-.47-3.21-.69a9,9,0,0,1-3.16-1.71c-1.14-.79-2.24-1.66-3.4-2.43a12.2,12.2,0,0,0-2.16-1.17,10.59,10.59,0,0,1-4.15-3c-.57-.67-1.16-1.33-1.76-2a4.51,4.51,0,0,0-.69-.53"/><rect class="cls-3" x="170.39" y="170.59" width="49.17" height="49.17"/><path class="cls-4" d="M66.73,229.66h53c6.22,0,11.9,3.84,12.7,8.58L140,283.19H64.49l-7.56-44.94C56.13,233.51,60.52,229.66,66.73,229.66Z"/></g></g></g></svg>
