<svg xmlns="http://www.w3.org/2000/svg" xmlns:xlink="http://www.w3.org/1999/xlink" viewBox="0 0 350 350"><defs><style>.cls-1{isolation:isolate;}.cls-2{fill:#f4f0e6;}.cls-10,.cls-3,.cls-4,.cls-9{fill:#fff;}.cls-10,.cls-11,.cls-12,.cls-13,.cls-14,.cls-15,.cls-16,.cls-17,.cls-18,.cls-19,.cls-20,.cls-21,.cls-22,.cls-23,.cls-24,.cls-25,.cls-26,.cls-3,.cls-4,.cls-5,.cls-8{stroke:#000;stroke-width:0.6px;}.cls-10,.cls-11,.cls-13,.cls-14,.cls-15,.cls-16,.cls-17,.cls-18,.cls-19,.cls-20,.cls-21,.cls-22,.cls-23,.cls-24,.cls-25,.cls-26,.cls-3,.cls-5,.cls-8{stroke-linecap:round;}.cls-3,.cls-5{stroke-linejoin:round;}.cls-10,.cls-11,.cls-12,.cls-13,.cls-14,.cls-15,.cls-16,.cls-17,.cls-18,.cls-19,.cls-20,.cls-21,.cls-22,.cls-23,.cls-24,.cls-25,.cls-26,.cls-4,.cls-8{stroke-miterlimit:10;}.cls-12,.cls-5,.cls-8{fill:none;}.cls-6{opacity:0.16;mix-blend-mode:multiply;}.cls-7{fill:gray;}.cls-11{fill:url(#linear-gradient);}.cls-13{fill:url(#linear-gradient-2);}.cls-14{fill:url(#linear-gradient-3);}.cls-15{fill:url(#linear-gradient-4);}.cls-16{fill:url(#linear-gradient-5);}.cls-17{fill:url(#linear-gradient-6);}.cls-18{fill:url(#linear-gradient-7);}.cls-19{fill:url(#linear-gradient-8);}.cls-20{fill:url(#linear-gradient-9);}.cls-21{fill:url(#linear-gradient-10);}.cls-22{fill:url(#linear-gradient-11);}.cls-23{fill:url(#linear-gradient-12);}.cls-24{fill:url(#linear-gradient-13);}.cls-25{fill:url(#linear-gradient-14);}.cls-26{fill:url(#linear-gradient-15);}</style><linearGradient id="linear-gradient" x1="158.86" y1="250.39" x2="297.18" y2="112.06" gradientUnits="userSpaceOnUse"><stop offset="0" stop-color="#792ee5"/><stop offset="0.15" stop-color="#8740da"/><stop offset="0.44" stop-color="#ac70bd"/><stop offset="0.85" stop-color="#e7bc8e"/><stop offset="1" stop-color="#feda7c"/><stop offset="1" stop-color="#fedb7e"/><stop offset="1" stop-color="#fedc85"/><stop offset="1" stop-color="#fee090"/><stop offset="1" stop-color="#fee5a1"/><stop offset="1" stop-color="#feebb7"/><stop offset="1" stop-color="#fff2d3"/><stop offset="1" stop-color="#fffbf2"/><stop offset="1" stop-color="#fff"/></linearGradient><linearGradient id="linear-gradient-2" x1="221" y1="188.23" x2="223.7" y2="188.23" xlink:href="#linear-gradient"/><linearGradient id="linear-gradient-3" x1="222.35" y1="204.99" x2="225.06" y2="204.99" xlink:href="#linear-gradient"/><linearGradient id="linear-gradient-4" x1="226.89" y1="213.21" x2="229.59" y2="213.21" xlink:href="#linear-gradient"/><linearGradient id="linear-gradient-5" x1="231.7" y1="220.17" x2="234.4" y2="220.17" xlink:href="#linear-gradient"/><linearGradient id="linear-gradient-6" x1="226.89" y1="204.79" x2="229.59" y2="204.79" xlink:href="#linear-gradient"/><linearGradient id="linear-gradient-7" x1="226.89" y1="244.42" x2="229.59" y2="244.42" xlink:href="#linear-gradient"/><linearGradient id="linear-gradient-8" x1="201.86" y1="198.11" x2="204.57" y2="198.11" xlink:href="#linear-gradient"/><linearGradient id="linear-gradient-9" x1="235.36" y1="188.23" x2="238.06" y2="188.23" xlink:href="#linear-gradient"/><linearGradient id="linear-gradient-10" x1="220.84" y1="163.96" x2="223.55" y2="163.96" xlink:href="#linear-gradient"/><linearGradient id="linear-gradient-11" x1="236.14" y1="163.96" x2="238.84" y2="163.96" xlink:href="#linear-gradient"/><linearGradient id="linear-gradient-12" x1="244.18" y1="143.18" x2="246.89" y2="143.18" xlink:href="#linear-gradient"/><linearGradient id="linear-gradient-13" x1="212.64" y1="143.18" x2="215.34" y2="143.18" xlink:href="#linear-gradient"/><linearGradient id="linear-gradient-14" x1="236.14" y1="124.64" x2="238.84" y2="124.64" xlink:href="#linear-gradient"/><linearGradient id="linear-gradient-15" x1="220.04" y1="125.76" x2="222.75" y2="125.76" xlink:href="#linear-gradient"/></defs><g class="cls-1"><g id="Layer_2" data-name="Layer 2"><g id="boundary_boxes" data-name="boundary boxes"><rect class="cls-2" width="350" height="350"/></g><g id="keypoint"><rect class="cls-3" x="60.59" y="73.57" width="123.05" height="141" rx="10.63"/><path class="cls-4" d="M134.29,164.62l-7.62-4.88-1.69-8.2-8.5.18-1.69,8.2-3.64,2.33-4,2.58h0c-7.26,4.54-12.08,14-12.08,31.68h51.88C146.94,178.82,141.86,169.14,134.29,164.62Z"/><ellipse class="cls-4" cx="103.33" cy="135.69" rx="2.89" ry="3.88" transform="translate(-35.91 37.19) rotate(-17.43)"/><ellipse class="cls-4" cx="138.67" cy="135.69" rx="3.88" ry="2.89" transform="translate(-32.33 227.34) rotate(-72.57)"/><path class="cls-4" d="M103.33,134.7c0,11,9.1,20,17.67,20,7.51,0,17.67-8.95,17.67-20S130.54,116,120.78,116,103.33,123.66,103.33,134.7Z"/><path class="cls-5" d="M107.69,97.32H89.09a5.2,5.2,0,0,0-5.22,5.19V121"/><path class="cls-5" d="M107.69,173.4H89.09a5.2,5.2,0,0,1-5.22-5.18V149.77"/><path class="cls-5" d="M136.13,97.32h18.6a5.2,5.2,0,0,1,5.22,5.19V121"/><path class="cls-5" d="M136.13,173.4h18.6a5.2,5.2,0,0,0,5.22-5.18V149.77"/><path class="cls-4" d="M111.88,161.77a10.49,10.49,0,0,0,8.9,5.11c5.34,0,8.89-5.11,8.89-5.11"/><g class="cls-6"><rect class="cls-7" x="174.19" y="92.48" width="121.67" height="191.49" rx="19.09"/><rect class="cls-8" x="174.19" y="92.48" width="121.67" height="191.49" rx="19.09"/></g><rect class="cls-9" x="167.19" y="85.48" width="121.67" height="191.49" rx="19.09"/><rect class="cls-8" x="167.19" y="85.48" width="121.67" height="191.49" rx="19.09"/><rect class="cls-10" x="172.19" y="90.48" width="111.67" height="181.48" rx="14.09"/><rect class="cls-11" x="172.19" y="90.48" width="111.67" height="181.48" rx="14.09"/><path class="cls-4" d="M224.84,156.56c.65-1.22.81-2.39.18-3.09-2.25-2.51-.84-5.06,0-7.33a5,5,0,0,1,5.47-3.42,5.47,5.47,0,0,1,4.79,4.41c.41,2.11,1.64,4.4-.28,6.56-.52.59-.44,1.67.16,2.75a7.86,7.86,0,0,0,3.24-4.21c1.89-4.9,5.65-9.57,2.46-15.39-.81-1.49-.85-3.39-1.32-5.08a3.84,3.84,0,0,0-2.12-2.71c-1.65-.81-5-.77-2.77-4.4.47-.77-1.17-1.65-2.12-2.19s-1.39-1.19-1.06-2.16c.39-1.15,1.4-.85,2.23-.64a7.38,7.38,0,0,1,4.11,2.41,50.76,50.76,0,0,1,10,18.36c1.34,4.41.09,9.57-2.16,13.6-4.41,7.88-4.61,16.64-6,25.09-.67,3.92.8,8.22,1.42,12.34a21.67,21.67,0,0,1-.95,9.33c-1.82,6.49-4.64,12.84-4,19.85.32,3.66-1.54,6.8-2.63,10.12-1.49,4.52-4,8.94-1.07,13.83a1.35,1.35,0,0,1-.68,2,10.43,10.43,0,0,1-5.11,1,2,2,0,0,1-1.82-2.64c1.94-8.25,1.49-16.73,2.46-25.07.47-4.06-1.87-7.53-3.57-10.95-1.2-2.41-4.16-2.12-6.57-2.09-5.62.08-11.13-1-16.7-1.54a7.28,7.28,0,0,1-4.87-2.49,4,4,0,0,1,1.17-6.55,83.15,83.15,0,0,1,14-5.64c10-2.84,9-3.8,8.93-13.2a56.59,56.59,0,0,0-5.51-23.83c-2.74-5.89-3.84-12.36.12-18.82,2.57-4.19,4.66-8.65,7.76-12.54a7.31,7.31,0,0,1,4.38-2.57c.73-.18,1.61-.44,2,.49a1.71,1.71,0,0,1-.89,2.22c-1.4.93-3.28,1.37-1.49,3.87.88,1.23-1.18,2-2.14,2.24-2.69.75-3.56,2.65-4,5.06-.16,1-.48,1.91-.69,2.88-.52,2.34-2.56,5-1.57,6.89C220,147.67,220.48,153,224.84,156.56Zm-8.38,43.22a18.81,18.81,0,0,0,9.23,2.75c1.07,0,2.73.59,2.54-1.46-.17-1.75-.48-3.8-3-3.37C222.29,198.22,219.39,199.07,216.46,199.78Z"/><polyline class="cls-12" points="224.51 163.96 237.49 163.96 245.54 143.18 237.49 124.7 233.38 121.24"/><polyline class="cls-12" points="235.02 163.96 229.54 163.96 222.04 163.96 213.99 143.18 221.4 125.82 226.47 121.24"/><polyline class="cls-12" points="228.24 213.21 223.77 204.98 203.22 198.49 222.35 188.23 229.63 188.23"/><polyline class="cls-12" points="228.24 243.93 233.24 219.97 236.71 188.23 229.63 188.23"/><line class="cls-12" x1="222.35" y1="188.23" x2="222.04" y2="163.96"/><line class="cls-12" x1="237.49" y1="163.96" x2="236.71" y2="188.23"/><polyline class="cls-12" points="228.24 213.21 228.24 204.62 223.45 204.99"/><circle class="cls-13" cx="222.35" cy="188.23" r="1.35"/><circle class="cls-14" cx="223.7" cy="204.99" r="1.35"/><circle class="cls-15" cx="228.24" cy="213.21" r="1.35"/><circle class="cls-16" cx="233.05" cy="220.17" r="1.35"/><circle class="cls-17" cx="228.24" cy="204.79" r="1.35"/><circle class="cls-18" cx="228.24" cy="244.42" r="1.35"/><circle class="cls-19" cx="203.21" cy="198.11" r="1.35"/><circle class="cls-20" cx="236.71" cy="188.23" r="1.35"/><circle class="cls-21" cx="222.2" cy="163.96" r="1.35"/><circle class="cls-22" cx="237.49" cy="163.96" r="1.35"/><circle class="cls-23" cx="245.54" cy="143.18" r="1.35"/><circle class="cls-24" cx="213.99" cy="143.18" r="1.35"/><circle class="cls-25" cx="237.49" cy="124.64" r="1.35"/><circle class="cls-26" cx="221.4" cy="125.76" r="1.35"/></g></g></g></svg>
