<svg xmlns="http://www.w3.org/2000/svg" xmlns:xlink="http://www.w3.org/1999/xlink" viewBox="0 0 350 350"><defs><style>.cls-1,.cls-17,.cls-8{fill:none;}.cls-2,.cls-9{fill:#f4f0e6;}.cls-18,.cls-3,.cls-4{fill:#fff;}.cls-11,.cls-12,.cls-13,.cls-14,.cls-17,.cls-18,.cls-19,.cls-3,.cls-4,.cls-5,.cls-6,.cls-8,.cls-9{stroke:#000;stroke-width:0.6px;}.cls-11,.cls-12,.cls-13,.cls-14,.cls-17,.cls-18,.cls-19,.cls-3,.cls-4,.cls-6{stroke-linecap:round;}.cls-3,.cls-4,.cls-6{stroke-linejoin:round;}.cls-4{fill-opacity:0.69;}.cls-5{fill:#792ee5;}.cls-11,.cls-12,.cls-13,.cls-14,.cls-17,.cls-18,.cls-19,.cls-5,.cls-8,.cls-9{stroke-miterlimit:10;}.cls-6{fill:#feda7c;}.cls-7{fill:#f1efe6;}.cls-10{clip-path:url(#clip-path);}.cls-11,.cls-12,.cls-13,.cls-19{fill-opacity:0.85;}.cls-11{fill:url(#linear-gradient);}.cls-12{fill:url(#linear-gradient-2);}.cls-13{fill:url(#linear-gradient-3);}.cls-14{fill:#ac82e6;}.cls-15{clip-path:url(#clip-path-2);}.cls-16{opacity:0.85;fill:url(#linear-gradient-4);}.cls-19{fill:url(#linear-gradient-5);}</style><clipPath id="clip-path"><path class="cls-1" d="M282.89,220.9l-36.78,8.9a.51.51,0,0,1-.65-.46l-.17-2.42a.76.76,0,0,1,.56-.75l34.54-8.37a2.38,2.38,0,0,1,3.05,2.19v.15A.77.77,0,0,1,282.89,220.9Z"/></clipPath><linearGradient id="linear-gradient" x1="219.06" y1="241.07" x2="215.96" y2="246.45" gradientTransform="matrix(0.7, 0.71, -0.83, 0.59, 273.37, -53.93)" gradientUnits="userSpaceOnUse"><stop offset="0" stop-color="#fff"/><stop offset="0" stop-color="#fffbf2"/><stop offset="0" stop-color="#fff2d3"/><stop offset="0" stop-color="#feebb7"/><stop offset="0" stop-color="#fee5a1"/><stop offset="0" stop-color="#fee090"/><stop offset="0" stop-color="#fedc85"/><stop offset="0" stop-color="#fedb7e"/><stop offset="0" stop-color="#feda7c"/><stop offset="0.09" stop-color="#e6bb8f"/><stop offset="0.24" stop-color="#c590a9"/><stop offset="0.39" stop-color="#aa6dbf"/><stop offset="0.54" stop-color="#9451cf"/><stop offset="0.69" stop-color="#853edb"/><stop offset="0.84" stop-color="#7c32e3"/><stop offset="1" stop-color="#792ee5"/></linearGradient><linearGradient id="linear-gradient-2" x1="191.79" y1="260.33" x2="223.23" y2="260.33" gradientTransform="matrix(0.99, 0, -0.17, 1.01, 45.61, -2.27)" xlink:href="#linear-gradient"/><linearGradient id="linear-gradient-3" x1="241.33" y1="244.51" x2="278.48" y2="244.51" gradientTransform="matrix(1.01, 0, -0.16, 0.99, 37.6, 2.63)" gradientUnits="userSpaceOnUse"><stop offset="0" stop-color="#fff"/><stop offset="0" stop-color="#fffbf2"/><stop offset="0" stop-color="#fff2d3"/><stop offset="0" stop-color="#feebb7"/><stop offset="0" stop-color="#fee5a1"/><stop offset="0" stop-color="#fee090"/><stop offset="0" stop-color="#fedc85"/><stop offset="0" stop-color="#fedb7e"/><stop offset="0" stop-color="#feda7c"/><stop offset="0.15" stop-color="#f0c887"/><stop offset="0.44" stop-color="#cb98a4"/><stop offset="0.85" stop-color="#904cd3"/><stop offset="1" stop-color="#792ee5"/></linearGradient><clipPath id="clip-path-2"><path class="cls-1" d="M282.47,233.57l-37.57,0,.48-3a.86.86,0,0,1,.83-.7l36.13,0a.59.59,0,0,1,.61.7Z"/></clipPath><linearGradient id="linear-gradient-4" x1="127.44" y1="152.96" x2="181.62" y2="152.96" gradientTransform="matrix(1, 0, 0, 1, 0, 0)" xlink:href="#linear-gradient"/><linearGradient id="linear-gradient-5" x1="80.51" y1="146.77" x2="134.22" y2="146.77" gradientTransform="matrix(1, 0, 0, 1, 0, 0)" xlink:href="#linear-gradient"/></defs><g id="Layer_2" data-name="Layer 2"><g id="boundary_boxes" data-name="boundary boxes"><rect class="cls-2" width="350" height="350"/></g><g id="multi-label_image_class" data-name="multi-label image class"><g id="film"><rect class="cls-3" x="63.71" y="82.28" width="134.71" height="179.52"/><rect class="cls-3" x="67.75" y="87.66" width="126.63" height="168.76"/><polygon class="cls-4" points="78.87 68.53 78.87 61.89 43.34 97.41 49.98 97.41 49.98 104.05 56.62 104.05 56.62 110.69 92.15 75.17 85.51 75.17 85.51 68.53 78.87 68.53"/><polygon class="cls-4" points="182.49 68.53 182.49 61.89 218.01 97.41 211.37 97.41 211.37 104.05 204.73 104.05 204.73 110.69 169.21 75.17 175.84 75.17 175.84 68.53 182.49 68.53"/><line class="cls-3" x1="94.07" y1="219.14" x2="171.13" y2="219.14"/><line class="cls-3" x1="100.6" y1="224.47" x2="164.6" y2="224.47"/><line class="cls-3" x1="104.69" y1="229.81" x2="160.5" y2="229.81"/><line class="cls-3" x1="84.65" y1="249.01" x2="140.46" y2="249.01"/><line class="cls-3" x1="84.65" y1="246.69" x2="140.46" y2="246.69"/><line class="cls-3" x1="84.65" y1="244.38" x2="104.26" y2="244.38"/><rect class="cls-5" x="107.74" y="198.95" width="48.32" height="11.6" rx="3.34"/><rect class="cls-5" x="81.15" y="92.86" width="31" height="7.37" rx="1.15"/><rect class="cls-5" x="115.65" y="92.86" width="31" height="7.37" rx="1.15"/><rect class="cls-5" x="149.98" y="92.86" width="31" height="7.37" rx="1.15"/><circle class="cls-6" cx="101.38" cy="204.75" r="2.07"/><circle class="cls-6" cx="92.96" cy="204.75" r="2.07"/><circle class="cls-6" cx="84.11" cy="204.75" r="2.07"/><circle class="cls-6" cx="180.55" cy="204.75" r="2.07"/><circle class="cls-6" cx="172.12" cy="204.75" r="2.07"/><circle class="cls-6" cx="163.28" cy="204.75" r="2.07"/><line class="cls-3" x1="67.75" y1="105.68" x2="194.38" y2="105.68"/><line class="cls-3" x1="67.75" y1="192.24" x2="194.38" y2="192.24"/><line class="cls-3" x1="67.75" y1="236.46" x2="194.38" y2="236.46"/><rect class="cls-5" x="73.6" y="241.95" width="8.15" height="8.15"/><path class="cls-7" d="M265.19,175.94H202.46a9.06,9.06,0,0,0-9.11-7.06h-14c-5.12,0-9.27,3.82-9.27,8.52v92.82H280.37V189.9C280.37,182.19,273.58,175.94,265.19,175.94Z"/><path class="cls-8" d="M265.19,175.94H202.46a9.06,9.06,0,0,0-9.11-7.06h-14c-5.12,0-9.27,3.82-9.27,8.52v92.82H280.37V189.9C280.37,182.19,273.58,175.94,265.19,175.94Z"/><path class="cls-7" d="M270.27,180.86H207.55a9.08,9.08,0,0,0-9.12-7.05h-14c-5.11,0-9.26,3.81-9.26,8.51v92.82H285.46V194.82C285.46,187.11,278.66,180.86,270.27,180.86Z"/><path class="cls-8" d="M270.27,180.86H207.55a9.08,9.08,0,0,0-9.12-7.05h-14c-5.11,0-9.26,3.81-9.26,8.51v92.82H285.46V194.82C285.46,187.11,278.66,180.86,270.27,180.86Z"/><path class="cls-3" d="M275.76,185.77H213a9.06,9.06,0,0,0-9.11-7.05h-14c-5.12,0-9.26,3.81-9.26,8.52v92.82H291V199.73C291,192,284.15,185.77,275.76,185.77Z"/><path class="cls-3" d="M288,201.57H210.34c-9.11,0-17.45,5.63-18.62,12.58l-11.09,65.91H291.3l11.09-65.9C303.56,207.21,297.13,201.57,288,201.57Z"/><path class="cls-9" d="M290.61,211.77l-46.29,0a4.15,4.15,0,0,0-4,3.36l-7.19,45.28a2.82,2.82,0,0,0,2.9,3.36l46.29,0a4.13,4.13,0,0,0,4-3.36l7.2-45.28A2.83,2.83,0,0,0,290.61,211.77Z"/></g><g id="outline_film_top" data-name="outline film top"><path class="cls-3" d="M282.89,220.9l-36.78,8.9a.51.51,0,0,1-.65-.46l-.17-2.42a.76.76,0,0,1,.56-.75l34.54-8.37a2.38,2.38,0,0,1,3.05,2.19v.15A.77.77,0,0,1,282.89,220.9Z"/><path class="cls-3" d="M282.47,233.57l-37.57,0,.48-3a.86.86,0,0,1,.83-.7l36.13,0a.59.59,0,0,1,.61.7Z"/></g><g id="bottom_stripes" data-name="bottom stripes"><g class="cls-10"><line class="cls-3" x1="244.57" y1="234.09" x2="254.91" y2="220.17"/><line class="cls-3" x1="252.05" y1="232.28" x2="262.39" y2="218.36"/><line class="cls-3" x1="259.52" y1="230.47" x2="269.86" y2="216.55"/><line class="cls-3" x1="267" y1="228.66" x2="277.33" y2="214.74"/><line class="cls-3" x1="274.32" y1="226.88" x2="284.66" y2="212.96"/></g></g><g id="film_shutter" data-name="film shutter"><path class="cls-3" d="M194.11,269.46h25.7a3.4,3.4,0,0,0,3.2-2.79l4.27-26.12a2.29,2.29,0,0,0-2.29-2.79H199.3a3.38,3.38,0,0,0-3.2,2.79l-4.28,26.12A2.29,2.29,0,0,0,194.11,269.46Z"/><ellipse class="cls-11" cx="221.12" cy="243.58" rx="3.37" ry="2.86" transform="translate(-107.59 230.47) rotate(-45.48)"/><path class="cls-12" d="M224.8,255.75s-8.75,4.63-11.6,4.63c-3.47,0-6.44-9.28-9.9-9.29-3.66,0-10,6.4-10,6.4l-1.5,9.18a2.29,2.29,0,0,0,2.29,2.79h25.7a3.4,3.4,0,0,0,3.2-2.79Z"/><ellipse class="cls-5" cx="245.81" cy="229.76" rx="1.22" ry="1.04" transform="translate(-89.7 204.33) rotate(-38.73)"/><path class="cls-13" d="M279.37,253l-.19,1.22a1.81,1.81,0,0,1-1.69,1.51H242.82a1.25,1.25,0,0,1-1.21-1.52l.2-1.22,3.09-19.46,37.57,0Z"/><line class="cls-14" x1="245.74" y1="240.32" x2="279.7" y2="240.35"/><polyline class="cls-14" points="244.98 245.09 257.13 245.1 278.94 245.12"/><polyline class="cls-14" points="244.27 249.59 256.42 249.6 278.23 249.61"/><polyline class="cls-14" points="243.9 251.9 256.05 251.91 277.86 251.93"/><line class="cls-14" x1="257.13" y1="245.1" x2="256.42" y2="249.6"/><line class="cls-14" x1="265.02" y1="245.1" x2="264.3" y2="249.6"/></g><g id="top_stripes" data-name="top stripes"><g class="cls-15"><line class="cls-3" x1="243.08" y1="237.5" x2="255.92" y2="225.97"/><line class="cls-3" x1="250.47" y1="237.51" x2="263.32" y2="225.97"/><line class="cls-3" x1="257.86" y1="237.51" x2="270.71" y2="225.98"/><line class="cls-3" x1="265.25" y1="237.52" x2="278.1" y2="225.98"/><line class="cls-3" x1="272.49" y1="237.52" x2="285.34" y2="225.99"/></g></g><g id="mask"><path class="cls-16" d="M136.56,126.27c-12.27,21.26-12.14,44.32.3,51.51,11.18,6.45,32.48-4.24,44.76-25.5l-3.41-.49A60.47,60.47,0,0,1,138.69,129Z"/><path class="cls-17" d="M136.56,126.27c-12.27,21.26-12.14,44.32.3,51.51,11.18,6.45,32.48-4.24,44.76-25.5l-3.41-.49A60.47,60.47,0,0,1,138.69,129Z"/><path class="cls-18" d="M133.63,143.74c-.17.24.05.47.33.55a34.33,34.33,0,0,1,6.49,2.59,31.74,31.74,0,0,1,5.49,4.3c.22.2.52.29.64,0a7.5,7.5,0,0,0-13-7.45Z"/><path class="cls-18" d="M153.71,155.33c-.17.24,0,.47.33.55a33.83,33.83,0,0,1,6.48,2.59,31.36,31.36,0,0,1,5.49,4.3c.22.2.53.29.65,0a7.51,7.51,0,0,0-12.95-7.46Z"/><path class="cls-18" d="M132.44,163.77c-.25.35.08.63.48.8,4.52,2,7.66,3.7,9,4.45,1.6.91,4.18,2.78,8.36,5.54.36.24.76.42.94,0a10.88,10.88,0,0,0-18.78-10.81Z"/><path class="cls-19" d="M125.56,119.94l-2.13,2.7a60.4,60.4,0,0,1-39.51,22.82l-3.41.49c12.28,21.26,32.32,32.68,44.76,25.49C136.44,165,137.84,141.2,125.56,119.94ZM117.33,136a7.5,7.5,0,0,1,9.85,2.13c.18.24-.05.47-.33.55a31.55,31.55,0,0,0-6.47,2.61,33.89,33.89,0,0,0-5.48,4.32c-.22.2-.53.28-.65,0A7.52,7.52,0,0,1,117.33,136Zm-10.56,14.28a31.7,31.7,0,0,0-6.47,2.6,34.5,34.5,0,0,0-5.48,4.32c-.22.2-.52.28-.65,0a7.51,7.51,0,0,1,12.94-7.49C107.28,150,107.06,150.2,106.77,150.29Zm15.51,16a10.9,10.9,0,0,1-14.3-3.09c-.25-.36.1-.61.49-.8,4.48-2.25,7.38-3.55,9-4.48,1.33-.78,4.37-2.66,8.36-5.57.35-.25.76-.4.94,0A10.9,10.9,0,0,1,122.28,166.27Z"/></g></g></g></svg>
