<svg xmlns="http://www.w3.org/2000/svg" xmlns:xlink="http://www.w3.org/1999/xlink" viewBox="0 0 350 350"><defs><style>.cls-1{isolation:isolate;}.cls-2{fill:#f4f0e6;}.cls-3{opacity:0.16;mix-blend-mode:multiply;}.cls-4{fill:gray;}.cls-5,.cls-7{fill:none;}.cls-10,.cls-11,.cls-12,.cls-13,.cls-5,.cls-7,.cls-8,.cls-9{stroke:#000;}.cls-10,.cls-11,.cls-5,.cls-7,.cls-8,.cls-9{stroke-linecap:round;stroke-linejoin:round;}.cls-10,.cls-11,.cls-12,.cls-13,.cls-5,.cls-8,.cls-9{stroke-width:0.6px;}.cls-6{fill:#fff;}.cls-7{stroke-width:0.61px;}.cls-10,.cls-8,.cls-9{fill-opacity:0.85;}.cls-8{fill:url(#linear-gradient);}.cls-9{fill:url(#linear-gradient-2);}.cls-10{fill:url(#linear-gradient-3);}.cls-11{fill:#feda7c;}.cls-12{fill:#792ee5;}.cls-12,.cls-13{stroke-miterlimit:10;}.cls-13{fill:#cfa5bc;}</style><linearGradient id="linear-gradient" x1="67.13" y1="122.68" x2="135.36" y2="122.68" gradientTransform="translate(223.92 21.43) rotate(90)" gradientUnits="userSpaceOnUse"><stop offset="0" stop-color="#fff"/><stop offset="0" stop-color="#fffbf2"/><stop offset="0" stop-color="#fff2d3"/><stop offset="0" stop-color="#feebb7"/><stop offset="0" stop-color="#fee5a1"/><stop offset="0" stop-color="#fee090"/><stop offset="0" stop-color="#fedc85"/><stop offset="0" stop-color="#fedb7e"/><stop offset="0" stop-color="#feda7c"/><stop offset="0.03" stop-color="#fad57f"/><stop offset="1" stop-color="#792ee5"/></linearGradient><linearGradient id="linear-gradient-2" x1="91.67" y1="134.91" x2="110.83" y2="168.1" gradientTransform="translate(252.75 50.26) rotate(90)" xlink:href="#linear-gradient"/><linearGradient id="linear-gradient-3" x1="110.83" y1="163.74" x2="91.67" y2="196.92" gradientTransform="translate(281.57 79.08) rotate(90)" gradientUnits="userSpaceOnUse"><stop offset="0" stop-color="#792ee5"/><stop offset="0.97" stop-color="#fad57f"/><stop offset="1" stop-color="#feda7c"/><stop offset="1" stop-color="#fedb7e"/><stop offset="1" stop-color="#fedc85"/><stop offset="1" stop-color="#fee090"/><stop offset="1" stop-color="#fee5a1"/><stop offset="1" stop-color="#feebb7"/><stop offset="1" stop-color="#fff2d3"/><stop offset="1" stop-color="#fffbf2"/><stop offset="1" stop-color="#fff"/></linearGradient></defs><g class="cls-1"><g id="Layer_2" data-name="Layer 2"><g id="boundary_boxes" data-name="boundary boxes"><rect class="cls-2" width="350" height="350"/></g><g id="multi-label_text_class" data-name="multi-label text class"><g class="cls-3"><rect class="cls-4" x="184.22" y="137.14" width="103.56" height="38.72" rx="4.89"/><rect class="cls-5" x="184.22" y="137.14" width="103.56" height="38.72" rx="4.89"/></g><rect class="cls-6" x="179.22" y="132.14" width="103.56" height="38.72" rx="4.89"/><rect class="cls-5" x="179.22" y="132.14" width="103.56" height="38.72" rx="4.89"/><g class="cls-3"><rect class="cls-4" x="184.22" y="194.79" width="72.75" height="38.72" rx="4.89"/><rect class="cls-5" x="184.22" y="194.79" width="72.75" height="38.72" rx="4.89"/></g><rect class="cls-6" x="179.22" y="189.79" width="72.75" height="38.72" rx="4.89"/><rect class="cls-5" x="179.22" y="189.79" width="72.75" height="38.72" rx="4.89"/><polygon class="cls-6" points="149.16 128.25 149.16 234.3 53.34 234.3 53.34 101.46 128.66 101.46 149.16 101.46 149.16 128.25"/><polygon class="cls-7" points="53.34 234.3 149.16 234.3 149.16 128.25 149.16 101.46 128.66 101.46 53.34 101.46 53.34 234.3"/><rect class="cls-8" x="97.49" y="88.56" width="7.51" height="68.23" rx="3.14" transform="translate(-21.43 223.92) rotate(-90)"/><rect class="cls-9" x="97.49" y="117.39" width="7.51" height="68.23" rx="3.14" transform="translate(-50.26 252.75) rotate(-90)"/><rect class="cls-10" x="97.49" y="146.22" width="7.51" height="68.23" rx="3.14" transform="translate(-79.08 281.57) rotate(-90)"/><path class="cls-11" d="M101.25,212.91H69.75c-1.45,0-2.62-1.68-2.62-3.75h0c0-2.08,1.17-3.76,2.62-3.76h31.5"/><path class="cls-12" d="M101.25,205.4h31.49c1.45,0,2.62,1.68,2.62,3.76h0c0,2.07-1.17,3.75-2.62,3.75H101.25"/><rect class="cls-11" x="186.56" y="139.43" width="24.43" height="24.43" rx="12.22"/><rect class="cls-13" x="218.57" y="139.43" width="24.43" height="24.43" rx="12.22"/><rect class="cls-12" x="250.58" y="139.43" width="24.43" height="24.43" rx="12.22"/><rect class="cls-11" x="186.56" y="196.94" width="24.43" height="24.43" rx="12.22"/><rect class="cls-12" x="218.57" y="196.94" width="24.43" height="24.43" rx="12.22"/><polyline class="cls-5" points="155.16 112.74 163.74 112.74 163.74 190.13 155.16 190.13"/><polyline class="cls-5" points="155.22 196.46 163.81 196.46 163.81 221.85 155.22 221.85"/><line class="cls-5" x1="163.81" y1="151.64" x2="179.22" y2="151.64"/><line class="cls-5" x1="163.81" y1="209.16" x2="179.22" y2="209.16"/></g></g></g></svg>
