<svg xmlns="http://www.w3.org/2000/svg" xmlns:xlink="http://www.w3.org/1999/xlink" viewBox="0 0 350 350"><defs><style>.cls-1{isolation:isolate;}.cls-2{fill:#f4f0e6;}.cls-11,.cls-15,.cls-16,.cls-3{fill:#fff;}.cls-10,.cls-11,.cls-13,.cls-16,.cls-3,.cls-4,.cls-5,.cls-7,.cls-8,.cls-9{stroke:#000;stroke-width:0.6px;}.cls-11,.cls-3,.cls-4,.cls-5,.cls-8,.cls-9{stroke-linecap:round;}.cls-11,.cls-3,.cls-8,.cls-9{stroke-linejoin:round;}.cls-4,.cls-5{fill-opacity:0.85;}.cls-10,.cls-13,.cls-16,.cls-4,.cls-5,.cls-7{stroke-miterlimit:10;}.cls-4{fill:url(#linear-gradient);}.cls-5{fill:url(#linear-gradient-2);}.cls-6{opacity:0.16;mix-blend-mode:multiply;}.cls-7{fill:#006;}.cls-8{fill:gray;}.cls-11,.cls-8{opacity:0.58;}.cls-13,.cls-9{fill:none;}.cls-10{fill:#792ee5;}.cls-12{fill:#757167;}.cls-14{opacity:0.85;}</style><linearGradient id="linear-gradient" x1="213.99" y1="105.54" x2="198.75" y2="131.95" gradientUnits="userSpaceOnUse"><stop offset="0" stop-color="#fff"/><stop offset="0" stop-color="#fffbf2"/><stop offset="0" stop-color="#fff2d3"/><stop offset="0" stop-color="#feebb7"/><stop offset="0" stop-color="#fee5a1"/><stop offset="0" stop-color="#fee090"/><stop offset="0" stop-color="#fedc85"/><stop offset="0" stop-color="#fedb7e"/><stop offset="0" stop-color="#feda7c"/><stop offset="0.09" stop-color="#e6bb8f"/><stop offset="0.24" stop-color="#c590a9"/><stop offset="0.39" stop-color="#aa6dbf"/><stop offset="0.54" stop-color="#9451cf"/><stop offset="0.69" stop-color="#853edb"/><stop offset="0.84" stop-color="#7c32e3"/><stop offset="1" stop-color="#792ee5"/></linearGradient><linearGradient id="linear-gradient-2" x1="234.46" y1="200.13" x2="80.01" y2="200.13" gradientUnits="userSpaceOnUse"><stop offset="0" stop-color="#fff"/><stop offset="0" stop-color="#fffbf2"/><stop offset="0" stop-color="#fff2d3"/><stop offset="0" stop-color="#feebb7"/><stop offset="0" stop-color="#fee5a1"/><stop offset="0" stop-color="#fee090"/><stop offset="0" stop-color="#fedc85"/><stop offset="0" stop-color="#fedb7e"/><stop offset="0" stop-color="#feda7c"/><stop offset="0.03" stop-color="#fad57f"/><stop offset="1" stop-color="#792ee5"/></linearGradient></defs><g class="cls-1"><g id="Layer_2" data-name="Layer 2"><g id="boundary_boxes" data-name="boundary boxes"><rect class="cls-2" width="350" height="350"/></g><g id="object_detection" data-name="object detection"><rect class="cls-3" x="80.01" y="90.44" width="154.45" height="154.45" rx="13.59"/><circle class="cls-4" cx="206.37" cy="118.74" r="15.25"/><path class="cls-5" d="M234.46,178s-39.55,22.62-53.69,22.62c-17.18,0-39.39-45.23-56.57-45.26-18.12,0-44.19,31.18-44.19,31.18V231.3A13.59,13.59,0,0,0,93.6,244.89H220.87a13.59,13.59,0,0,0,13.59-13.59Z"/><g class="cls-6"><path class="cls-7" d="M149.65,234l-9.52,9.53a3.19,3.19,0,0,1-4.52,0l-1.47-1.47a3.19,3.19,0,0,1,0-4.52l9.53-9.52Z"/><path class="cls-7" d="M148.36,238.72,104,283.09a5,5,0,0,1-7.1,0l-2.3-2.3a5,5,0,0,1,0-7.1L139,229.31Z"/><circle class="cls-8" cx="170.82" cy="206.86" r="31.58"/><path class="cls-7" d="M170.82,172a34.84,34.84,0,1,0,34.84,34.84A34.84,34.84,0,0,0,170.82,172Zm0,65.08a30.24,30.24,0,1,1,30.24-30.24A30.24,30.24,0,0,1,170.82,237.1Z"/><path class="cls-9" d="M193.05,192.22A24.51,24.51,0,0,1,195,218.07"/></g><path class="cls-10" d="M141.65,226l-9.52,9.53a3.19,3.19,0,0,1-4.52,0l-1.47-1.47a3.19,3.19,0,0,1,0-4.52l9.53-9.52Z"/><path class="cls-10" d="M140.36,230.72,96,275.09a5,5,0,0,1-7.1,0l-2.3-2.3a5,5,0,0,1,0-7.1L131,221.31Z"/><circle class="cls-11" cx="162.82" cy="198.86" r="31.58"/><path class="cls-10" d="M162.82,164a34.84,34.84,0,1,0,34.84,34.84A34.84,34.84,0,0,0,162.82,164Zm0,65.08a30.24,30.24,0,1,1,30.24-30.24A30.24,30.24,0,0,1,162.82,229.1Z"/><path class="cls-9" d="M185.05,184.22A24.51,24.51,0,0,1,187,210.07"/><g class="cls-6"><rect class="cls-12" x="233.82" y="115.8" width="47.59" height="47.59" rx="5.48"/><rect class="cls-13" x="233.82" y="115.8" width="47.59" height="47.59" rx="5.48"/></g><rect class="cls-2" x="225.82" y="107.8" width="47.59" height="47.59" rx="5.48"/><rect class="cls-13" x="225.82" y="107.8" width="47.59" height="47.59" rx="5.48"/><g class="cls-14"><path class="cls-15" d="M250.51,136.21H235.87a3.8,3.8,0,0,0-1.62.23c-.58.27-1-.25-1.26-.67a7,7,0,0,1-1.14-3.17,10.1,10.1,0,0,1,.56-5.16,3.65,3.65,0,0,1,1.1-1.56c.28-.21.58-.41.85,0,.13.19.28.35.53.21s.16-.31.15-.49c-.12-1.66-.2-3.31-.38-5-.08-.77-.77-1.34-.84-2.18s.09-1.1.89-1.09c1.91,0,3.81,0,5.71,0,.81,0,1,.29,1,1.12s-.74,1.34-.85,2.09-.13,1.59-.19,2.38-.11,1.53-.16,2.3c0,.15-.06.37,0,.44.75.72,1.67.22,2.52.33.53.06.66-.33.65-.78s0-.86,0-1.29c0-1.18.2-1.38,1.41-1.39,3.24,0,3-.12,2.9,2.65,0,.59.22.81.81.83,1.86.09,1.86.11,1.86-1.79,0-.25,0-.49,0-.74-.06-.67.25-1,.91-1h.18c3.05,0,2.65-.19,2.64,2.48,0,.77.29,1.07,1,1a4.45,4.45,0,0,1,.73,0c.65.05.95-.19.93-.89,0-1.38,0-2.76,0-4.14a1.91,1.91,0,0,0-.38-1.2,2,2,0,0,1-.09-2c.27-.6.9-.43,1.4-.43h8.19c.52,0,1.14-.08,1.37.51a1.87,1.87,0,0,1-.07,1.85,2,2,0,0,0-.35,1.37v13.44c0,1.52-.13,1.65-1.61,1.65Zm11-10.72h2a.63.63,0,0,0,.73-.71c0-1.14,0-2.27,0-3.41,0-.59-.27-.81-.84-.8-.83,0-1.66,0-2.49,0-2.37,0-2.16-.25-2.17,2.18C258.73,125.5,258.73,125.5,261.48,125.49Z"/></g><path class="cls-9" d="M250.51,136.21H235.87a3.8,3.8,0,0,0-1.62.23c-.58.27-1-.25-1.26-.67a7,7,0,0,1-1.14-3.17,10.1,10.1,0,0,1,.56-5.16,3.65,3.65,0,0,1,1.1-1.56c.28-.21.58-.41.85,0,.13.19.28.35.53.21s.16-.31.15-.49c-.12-1.66-.2-3.31-.38-5-.08-.77-.77-1.34-.84-2.18s.09-1.1.89-1.09c1.91,0,3.81,0,5.71,0,.81,0,1,.29,1,1.12s-.74,1.34-.85,2.09-.13,1.59-.19,2.38-.11,1.53-.16,2.3c0,.15-.06.37,0,.44.75.72,1.67.22,2.52.33.53.06.66-.33.65-.78s0-.86,0-1.29c0-1.18.2-1.38,1.41-1.39,3.24,0,3-.12,2.9,2.65,0,.59.22.81.81.83,1.86.09,1.86.11,1.86-1.79,0-.25,0-.49,0-.74-.06-.67.25-1,.91-1h.18c3.05,0,2.65-.19,2.64,2.48,0,.77.29,1.07,1,1a4.45,4.45,0,0,1,.73,0c.65.05.95-.19.93-.89,0-1.38,0-2.76,0-4.14a1.91,1.91,0,0,0-.38-1.2,2,2,0,0,1-.09-2c.27-.6.9-.43,1.4-.43h8.19c.52,0,1.14-.08,1.37.51a1.87,1.87,0,0,1-.07,1.85,2,2,0,0,0-.35,1.37v13.44c0,1.52-.13,1.65-1.61,1.65Zm11-10.72h2a.63.63,0,0,0,.73-.71c0-1.14,0-2.27,0-3.41,0-.59-.27-.81-.84-.8-.83,0-1.66,0-2.49,0-2.37,0-2.16-.25-2.17,2.18C258.73,125.5,258.73,125.5,261.48,125.49Z"/><path class="cls-3" d="M250,137.55h15.65c1.2,0,1.24,0,1.24,1.25v3.32c0,.54,0,1-.77,1.08s-1-.16-1.08-.88a3.77,3.77,0,0,0-2.86-3.27,4,4,0,0,0-4.27,1.21c-.37.42-.57.48-1,0a4.06,4.06,0,0,0-6.18,0c-.42.44-.63.49-1.08,0a4,4,0,0,0-6.15,0c-.56.59-.77.24-1.14-.13a4.08,4.08,0,0,0-6.53.77,2.62,2.62,0,0,0-.47,1.47,6.16,6.16,0,0,1-.68,2.73,1.36,1.36,0,0,1-1.46,1c-.89,0-1.78,0-2.67,0-.62,0-.86-.27-.6-.88q1.55-3.54,3.07-7.1c.26-.62.79-.58,1.32-.58H250Z"/><path class="cls-3" d="M242.54,143.24a3.2,3.2,0,0,1-3.18,3.14,3.16,3.16,0,0,1,0-6.31A3.21,3.21,0,0,1,242.54,143.24Z"/><path class="cls-3" d="M249.73,143.22a3.18,3.18,0,0,1-3.15,3.16,3.16,3.16,0,1,1,.07-6.31A3.2,3.2,0,0,1,249.73,143.22Z"/><path class="cls-3" d="M256.91,143.26a3.14,3.14,0,0,1-3.18,3.12,3.15,3.15,0,0,1,.08-6.3A3.11,3.11,0,0,1,256.91,143.26Z"/><path class="cls-3" d="M264.11,143.19a3.12,3.12,0,1,1-3.11-3.12A3.12,3.12,0,0,1,264.11,143.19Z"/><g class="cls-6"><rect class="cls-12" x="233.64" y="168.43" width="47.59" height="47.59" rx="5.48"/><rect class="cls-13" x="233.64" y="168.43" width="47.59" height="47.59" rx="5.48"/></g><rect class="cls-2" x="225.64" y="160.43" width="47.59" height="47.59" rx="5.48"/><rect class="cls-13" x="225.64" y="160.43" width="47.59" height="47.59" rx="5.48"/><g class="cls-6"><rect class="cls-12" x="233.64" y="221.06" width="47.59" height="47.59" rx="5.48"/><rect class="cls-13" x="233.64" y="221.06" width="47.59" height="47.59" rx="5.48"/></g><rect class="cls-2" x="225.64" y="213.06" width="47.59" height="47.59" rx="5.48"/><rect class="cls-13" x="225.64" y="213.06" width="47.59" height="47.59" rx="5.48"/><path class="cls-3" d="M267.16,193.9c.51,0,1,0,1.55-.09a1.58,1.58,0,0,0,1.39-1.55c0-1.91,0-3.82,0-5.72a3.16,3.16,0,0,0-.65-1.7c-.71-.94-1.56-1.76-2.34-2.64a1.15,1.15,0,0,1-.25-.33,64.05,64.05,0,0,0-4.1-8.41,2.76,2.76,0,0,0-2.61-1.48,26.2,26.2,0,0,0-2.94,0c-1.56.18-3.11-.09-4.66,0s-3.11,0-4.66,0h-9.41c-1.55,0-3.11.09-4.65,0a2.5,2.5,0,0,0-2.64,2.64c0,5.59.05,11.17,0,16.76a2.56,2.56,0,0,0,2.32,2.46c1,0,2.07.05,3.1.08"/><path class="cls-3" d="M255.79,172.31c.25,1.28.45,2.57.75,3.84.33,1.43.76,2.83,1.13,4.25a1.68,1.68,0,0,0,1.55,1.39c2.1.17,4.2.35,6.3.48a5.55,5.55,0,0,0,1.31-.23"/><path class="cls-3" d="M260.12,193.9H243.61"/><path class="cls-3" d="M243.52,193.9a9.53,9.53,0,0,0-.58-1.63,3.11,3.11,0,0,0-3.34-1.63,3.18,3.18,0,0,0-2.7,2.44,3.23,3.23,0,0,0,1.48,3.51,3.18,3.18,0,0,0,3.67-.16,5.25,5.25,0,0,0,1.47-2.45"/><path class="cls-3" d="M267.07,193.9c-.54-1.27-1-2.71-2.43-3.17a3.26,3.26,0,0,0-2.07.07A3.38,3.38,0,0,0,261,192a3.21,3.21,0,0,0,4.92,4.12,6.85,6.85,0,0,0,1.16-2.12"/><circle class="cls-16" cx="240.16" cy="193.57" r="3.74"/><circle class="cls-16" cx="263.62" cy="193.57" r="3.74"/><path class="cls-3" d="M249,228.27c-.07-.14-.23-.14-.35-.22a10.5,10.5,0,0,0-2.18-1.07,13.12,13.12,0,0,0-1.83-.52,11,11,0,0,0-2.42-.21,9.76,9.76,0,0,0-1.79.24,7.14,7.14,0,0,0-2.39,1.06,7.89,7.89,0,0,0-1.52,1.37,9.42,9.42,0,0,0-1,1.41,10.77,10.77,0,0,0-.79,1.64c-.13.36-.26.72-.36,1.1s-.2.79-.27,1.2a13.52,13.52,0,0,0-.22,1.78,13.88,13.88,0,0,0,0,2.14c0,.27,0,.55.07.82.06.45.13.89.21,1.33s.23,1.07.38,1.6.38,1.21.61,1.8a21.52,21.52,0,0,0,1,2.14c.29.53.59,1.06.93,1.56a19.47,19.47,0,0,0,1.52,2,13.38,13.38,0,0,0,2.46,2.17,9.11,9.11,0,0,0,2.84,1.33,6.87,6.87,0,0,0,2.47.21,5.25,5.25,0,0,0,2.07-.63,4.12,4.12,0,0,0,.9-.76s.09-.08.13-.13.19.15.27.24a3.85,3.85,0,0,0,1.93,1.11,6.07,6.07,0,0,0,2,.18,7.81,7.81,0,0,0,1.52-.27,8.87,8.87,0,0,0,2.43-1.09,12,12,0,0,0,1.37-1c.44-.38.86-.79,1.26-1.21a19,19,0,0,0,1.21-1.48c.24-.34.47-.69.7-1s.37-.65.56-1,.47-.91.68-1.38a21.08,21.08,0,0,0,.83-2.17,15.59,15.59,0,0,0,.44-1.66q.18-.86.3-1.74a15.93,15.93,0,0,0,.13-2.67c0-.51-.07-1-.13-1.52a12.49,12.49,0,0,0-.42-2,11.83,11.83,0,0,0-.61-1.63,9.84,9.84,0,0,0-.88-1.55,7.93,7.93,0,0,0-1.42-1.59,7.57,7.57,0,0,0-1.56-1.07,7.48,7.48,0,0,0-1.54-.57,7,7,0,0,0-1.18-.21,8.7,8.7,0,0,0-1.35,0c-.46,0-.91.07-1.36.14a11.19,11.19,0,0,0-1.64.39,11.8,11.8,0,0,0-2.41,1.07l-.51.3s-.07.07-.12,0"/><path class="cls-3" d="M250.21,223a.59.59,0,0,1-.17-.32,5.1,5.1,0,0,0-.91-1.6,4.47,4.47,0,0,0-1.94-1.34,6.75,6.75,0,0,0-1.27-.32,8,8,0,0,0-1.55-.07,8.3,8.3,0,0,0-1,.1c-.3,0-.58.1-.87.16s-.2.09-.18.24a12.58,12.58,0,0,0,.27,1.49,6.9,6.9,0,0,0,.92,2.12,5.06,5.06,0,0,0,1.3,1.35,5.69,5.69,0,0,0,2.27,1,7.93,7.93,0,0,0,1.68.13,1.55,1.55,0,0,1,.48,0,1.08,1.08,0,0,1-.05.47c-.06.47-.14.93-.18,1.41a.84.84,0,0,1-.08.41"/><path class="cls-3" d="M249.85,228.3a.14.14,0,0,0,0-.11,3.59,3.59,0,0,1,.05-1,10.41,10.41,0,0,1,.16-1.12,10.1,10.1,0,0,1,.63-2.14,6.09,6.09,0,0,1,1.2-1.88,4.12,4.12,0,0,1,1.73-1,3.23,3.23,0,0,1,1.07-.16.4.4,0,0,0,.41-.32.37.37,0,0,0-.39-.43,5,5,0,0,0-1.79.29,4.67,4.67,0,0,0-2.2,1.75,7.25,7.25,0,0,1-.53.79.19.19,0,0,0,0,.18"/></g></g></g></svg>
