<svg xmlns="http://www.w3.org/2000/svg" xmlns:xlink="http://www.w3.org/1999/xlink" viewBox="0 0 350 350"><defs><style>.cls-1{fill:#f4f0e6;}.cls-10,.cls-2{fill:#fff;}.cls-10,.cls-2,.cls-3,.cls-4,.cls-5,.cls-6,.cls-7,.cls-8,.cls-9{stroke:#000;stroke-width:0.6px;}.cls-10,.cls-2,.cls-3,.cls-4,.cls-5,.cls-6,.cls-7,.cls-9{stroke-linecap:round;}.cls-2{stroke-linejoin:round;}.cls-10,.cls-3,.cls-4,.cls-9{fill-opacity:0.85;}.cls-10,.cls-3,.cls-4,.cls-5,.cls-6,.cls-7,.cls-8,.cls-9{stroke-miterlimit:10;}.cls-3{fill:url(#linear-gradient);}.cls-4{fill:url(#linear-gradient-2);}.cls-5{fill:url(#linear-gradient-3);}.cls-6{fill:url(#linear-gradient-4);}.cls-7{fill:url(#linear-gradient-5);}.cls-8{fill:#f1efe6;}.cls-9{fill:url(#linear-gradient-6);}</style><linearGradient id="linear-gradient" x1="111.42" y1="161.59" x2="174.35" y2="161.59" gradientUnits="userSpaceOnUse"><stop offset="0" stop-color="#fff"/><stop offset="0" stop-color="#fffbf2"/><stop offset="0" stop-color="#fff2d3"/><stop offset="0" stop-color="#feebb7"/><stop offset="0" stop-color="#fee5a1"/><stop offset="0" stop-color="#fee090"/><stop offset="0" stop-color="#fedc85"/><stop offset="0" stop-color="#fedb7e"/><stop offset="0" stop-color="#feda7c"/><stop offset="0.09" stop-color="#e6bb8f"/><stop offset="0.24" stop-color="#c590a9"/><stop offset="0.39" stop-color="#aa6dbf"/><stop offset="0.54" stop-color="#9451cf"/><stop offset="0.69" stop-color="#853edb"/><stop offset="0.84" stop-color="#7c32e3"/><stop offset="1" stop-color="#792ee5"/></linearGradient><linearGradient id="linear-gradient-2" x1="131.09" y1="179.6" x2="194.03" y2="179.6" xlink:href="#linear-gradient"/><linearGradient id="linear-gradient-3" x1="174.35" y1="139.13" x2="194.03" y2="139.13" xlink:href="#linear-gradient"/><linearGradient id="linear-gradient-4" x1="111.42" y1="139.13" x2="131.09" y2="139.13" xlink:href="#linear-gradient"/><linearGradient id="linear-gradient-5" x1="111.42" y1="202.06" x2="131.09" y2="202.06" xlink:href="#linear-gradient"/><linearGradient id="linear-gradient-6" x1="235.92" y1="210.69" x2="298.84" y2="210.69" xlink:href="#linear-gradient"/></defs><g id="Layer_2" data-name="Layer 2"><g id="boundary_boxes" data-name="boundary boxes"><rect class="cls-1" width="350" height="350"/></g><g id="point_cloud_object_detection" data-name="point cloud object detection"><rect class="cls-2" x="68.6" y="82.01" width="145.07" height="165.49" rx="14.93"/><g id="Layer_1-2" data-name="Layer 1"><rect class="cls-3" x="111.42" y="130.12" width="62.93" height="62.93"/></g><circle class="cls-2" cx="123.77" cy="110.68" r="1.88"/><circle class="cls-2" cx="133.09" cy="115.18" r="1.88"/><circle class="cls-2" cx="129.33" cy="121.65" r="1.88"/><circle class="cls-2" cx="138.61" cy="126.77" r="1.88"/><circle class="cls-2" cx="147.2" cy="136.49" r="1.88"/><circle class="cls-2" cx="147.2" cy="122.73" r="1.88"/><circle class="cls-2" cx="121.89" cy="137.55" r="1.88"/><circle class="cls-2" cx="116.62" cy="118.97" r="1.88"/><circle class="cls-2" cx="118.5" cy="129.55" r="1.88"/><circle class="cls-2" cx="133.09" cy="134.61" r="1.88"/><circle class="cls-2" cx="138.61" cy="139.43" r="1.88"/><circle class="cls-2" cx="142.37" cy="154.46" r="1.88"/><circle class="cls-2" cx="131.21" cy="150.7" r="1.88"/><circle class="cls-2" cx="140.49" cy="111.42" r="1.88"/><circle class="cls-2" cx="125.65" cy="99.27" r="1.88"/><circle class="cls-2" cx="92.35" cy="170.03" r="1.88"/><circle class="cls-2" cx="102.53" cy="168.16" r="1.88"/><circle class="cls-2" cx="103.31" cy="175.61" r="1.88"/><circle class="cls-2" cx="113.83" cy="174.27" r="1.88"/><circle class="cls-2" cx="126.5" cy="177.04" r="1.88"/><circle class="cls-2" cx="118.38" cy="165.93" r="1.88"/><circle class="cls-2" cx="106.69" cy="192.84" r="1.88"/><circle class="cls-2" cx="91.47" cy="180.94" r="1.88"/><circle class="cls-2" cx="99.23" cy="188.38" r="1.88"/><circle class="cls-2" cx="114" cy="183.85" r="1.88"/><circle class="cls-2" cx="121.3" cy="184.49" r="1.88"/><circle class="cls-2" cx="133.2" cy="194.4" r="1.88"/><circle class="cls-2" cx="134.14" cy="199.11" r="1.88"/><circle class="cls-2" cx="138.33" cy="196.07" r="1.88"/><circle class="cls-2" cx="138.41" cy="200.62" r="1.88"/><circle class="cls-2" cx="121.97" cy="197.95" r="1.88"/><circle class="cls-2" cx="106.28" cy="160.76" r="1.88"/><circle class="cls-2" cx="87.14" cy="159.71" r="1.88"/><circle class="cls-2" cx="138.41" cy="174.02" r="1.88"/><circle class="cls-2" cx="148.59" cy="172.15" r="1.88"/><circle class="cls-2" cx="149.37" cy="179.6" r="1.88"/><circle class="cls-2" cx="159.89" cy="178.26" r="1.88"/><circle class="cls-2" cx="172.56" cy="181.03" r="1.88"/><circle class="cls-2" cx="164.44" cy="169.92" r="1.88"/><circle class="cls-2" cx="152.75" cy="196.83" r="1.88"/><circle class="cls-2" cx="137.53" cy="184.93" r="1.88"/><circle class="cls-2" cx="148.35" cy="199.53" r="1.88"/><circle class="cls-2" cx="145.29" cy="192.37" r="1.88"/><circle class="cls-2" cx="160.06" cy="187.84" r="1.88"/><circle class="cls-2" cx="167.36" cy="188.48" r="1.88"/><circle class="cls-2" cx="179.26" cy="198.39" r="1.88"/><circle class="cls-2" cx="168.03" cy="201.94" r="1.88"/><circle class="cls-2" cx="127.03" cy="202.82" r="1.88"/><circle class="cls-2" cx="127.82" cy="210.26" r="1.88"/><circle class="cls-2" cx="138.33" cy="208.92" r="1.88"/><circle class="cls-2" cx="151" cy="211.7" r="1.88"/><circle class="cls-2" cx="142.88" cy="200.59" r="1.88"/><circle class="cls-2" cx="131.19" cy="227.49" r="1.88"/><circle class="cls-2" cx="138.5" cy="218.51" r="1.88"/><circle class="cls-2" cx="145.8" cy="219.14" r="1.88"/><circle class="cls-2" cx="157.7" cy="229.06" r="1.88"/><circle class="cls-2" cx="146.47" cy="232.61" r="1.88"/><circle class="cls-2" cx="100.54" cy="204.73" r="1.88"/><circle class="cls-2" cx="101.33" cy="212.18" r="1.88"/><circle class="cls-2" cx="111.84" cy="210.84" r="1.88"/><circle class="cls-2" cx="122.63" cy="208.92" r="1.88"/><circle class="cls-2" cx="115.88" cy="194.95" r="1.88"/><circle class="cls-2" cx="125.15" cy="189.72" r="1.88"/><circle class="cls-2" cx="125.94" cy="183.85" r="1.88"/><circle class="cls-2" cx="130.26" cy="190.96" r="1.88"/><circle class="cls-2" cx="126.5" cy="194.19" r="1.88"/><circle class="cls-2" cx="129.7" cy="186.37" r="1.88"/><circle class="cls-2" cx="129.7" cy="180.73" r="1.88"/><circle class="cls-2" cx="133.46" cy="183.36" r="1.88"/><circle class="cls-2" cx="134.02" cy="187.84" r="1.88"/><circle class="cls-2" cx="137.22" cy="191.78" r="1.88"/><circle class="cls-2" cx="141.29" cy="188.69" r="1.88"/><circle class="cls-2" cx="147.68" cy="187.35" r="1.88"/><circle class="cls-2" cx="153.44" cy="189.08" r="1.88"/><circle class="cls-2" cx="128.91" cy="197.95" r="1.88"/><circle class="cls-2" cx="134.96" cy="203.82" r="1.88"/><circle class="cls-2" cx="133.07" cy="213.19" r="1.88"/><circle class="cls-2" cx="122.63" cy="214.6" r="1.88"/><circle class="cls-2" cx="116.5" cy="209.82" r="1.88"/><circle class="cls-2" cx="110.45" cy="202.47" r="1.88"/><circle class="cls-2" cx="109.96" cy="196.07" r="1.88"/><circle class="cls-2" cx="115.71" cy="189.08" r="1.88"/><circle class="cls-2" cx="121.3" cy="192.37" r="1.88"/><circle class="cls-2" cx="116.39" cy="202.5" r="1.88"/><circle class="cls-2" cx="104.7" cy="229.4" r="1.88"/><circle class="cls-2" cx="112.01" cy="220.42" r="1.88"/><circle class="cls-2" cx="119.31" cy="221.06" r="1.88"/><circle class="cls-2" cx="131.32" cy="219.18" r="1.88"/><circle class="cls-2" cx="119.98" cy="234.52" r="1.88"/><circle class="cls-2" cx="152.34" cy="164.75" r="1.88"/><circle class="cls-2" cx="154.34" cy="128.24" r="1.88"/><circle class="cls-2" cx="155.13" cy="135.68" r="1.88"/><circle class="cls-2" cx="165.64" cy="134.34" r="1.88"/><circle class="cls-2" cx="178.32" cy="137.12" r="1.88"/><circle class="cls-2" cx="170.2" cy="126.01" r="1.88"/><circle class="cls-2" cx="158.5" cy="152.91" r="1.88"/><circle class="cls-2" cx="151.05" cy="148.45" r="1.88"/><circle class="cls-2" cx="165.81" cy="143.93" r="1.88"/><circle class="cls-2" cx="173.11" cy="144.57" r="1.88"/><circle class="cls-2" cx="185.01" cy="154.48" r="1.88"/><circle class="cls-2" cx="173.79" cy="158.03" r="1.88"/><circle class="cls-2" cx="158.1" cy="120.84" r="1.88"/><circle class="cls-2" cx="133.2" cy="163.7" r="1.88"/><rect class="cls-4" x="131.09" y="148.13" width="62.93" height="62.93"/><line class="cls-5" x1="174.35" y1="130.12" x2="194.03" y2="148.13"/><line class="cls-6" x1="111.42" y1="130.12" x2="131.09" y2="148.13"/><line class="cls-7" x1="111.42" y1="193.06" x2="131.09" y2="211.06"/><rect class="cls-2" x="230.43" y="164.37" width="44.01" height="44.01"/><circle class="cls-2" cx="244.32" cy="198.75" r="1.43"/><circle class="cls-2" cx="238.21" cy="201.24" r="1.43"/><circle class="cls-2" cx="242.19" cy="190.21" r="1.43"/><circle class="cls-2" cx="245.9" cy="186.06" r="1.43"/><circle class="cls-2" cx="257.36" cy="183.35" r="1.43"/><circle class="cls-2" cx="260.65" cy="184.93" r="1.43"/><circle class="cls-2" cx="260.71" cy="180.99" r="1.43"/><circle class="cls-2" cx="263.51" cy="183.02" r="1.43"/><circle class="cls-2" cx="254.39" cy="191.79" r="1.43"/><circle class="cls-2" cx="267.75" cy="172.57" r="1.43"/><circle class="cls-2" cx="252.77" cy="173.12" r="1.43"/><circle class="cls-2" cx="267.38" cy="176.47" r="1.43"/><circle class="cls-2" cx="261.64" cy="175.07" r="1.43"/><circle class="cls-2" cx="259.66" cy="190.93" r="1.43"/><circle class="cls-2" cx="265.53" cy="180.28" r="1.43"/><circle class="cls-2" cx="249.79" cy="194.12" r="1.43"/><circle class="cls-2" cx="250.84" cy="186.11" r="1.43"/><circle class="cls-2" cx="247.63" cy="182.95" r="1.43"/><circle class="cls-2" cx="253.92" cy="183.56" r="1.43"/><circle class="cls-2" cx="254.18" cy="187.32" r="1.43"/><circle class="cls-2" cx="250.07" cy="178.53" r="1.43"/><circle class="cls-2" cx="238.73" cy="176.79" r="1.43"/><circle class="cls-2" cx="246.14" cy="172.57" r="1.43"/><circle class="cls-2" cx="252.94" cy="176.58" r="1.43"/><circle class="cls-2" cx="257.6" cy="179.71" r="1.43"/><circle class="cls-2" cx="257.58" cy="175.82" r="1.43"/><circle class="cls-2" cx="259.68" cy="171.33" r="1.43"/><circle class="cls-2" cx="257.56" cy="187.57" r="1.43"/><circle class="cls-2" cx="263.88" cy="186.58" r="1.43"/><circle class="cls-2" cx="251.88" cy="200.85" r="1.43"/><circle class="cls-2" cx="247.77" cy="198.23" r="1.43"/><circle class="cls-2" cx="246.14" cy="191.55" r="1.43"/><circle class="cls-2" cx="250.69" cy="189.65" r="1.43"/><circle class="cls-2" cx="254.61" cy="197.25" r="1.43"/><path class="cls-8" d="M274.52,197.2H226.86a6.88,6.88,0,0,0-6.93-5.36H209.27a6.76,6.76,0,0,0-7,6.47v70.53h83.82v-61C286.06,202,280.89,197.2,274.52,197.2Z"/><path class="cls-8" d="M278.39,200.94H230.72a6.88,6.88,0,0,0-6.92-5.36H213.14a6.77,6.77,0,0,0-7,6.47v70.53h83.82v-61C289.92,205.69,284.76,200.94,278.39,200.94Z"/><path class="cls-2" d="M282.56,204.67H234.89a6.89,6.89,0,0,0-6.92-5.36H217.31a6.77,6.77,0,0,0-7,6.47v70.53h83.82v-61C294.09,209.42,288.93,204.67,282.56,204.67Z"/><rect class="cls-9" x="235.92" y="202.89" width="62.92" height="15.59"/><rect class="cls-10" x="241.97" y="206.8" width="50.82" height="1.86" rx="0.93"/><rect class="cls-10" x="241.97" y="211.28" width="32.76" height="1.86" rx="0.93"/><path class="cls-2" d="M291.87,216.67h-59c-6.92,0-13.25,4.28-14.14,9.56l-8.43,50.08h84.09l8.43-50.08C303.68,221,298.79,216.67,291.87,216.67Z"/></g></g></svg>
