<svg xmlns="http://www.w3.org/2000/svg" xmlns:xlink="http://www.w3.org/1999/xlink" viewBox="0 0 350 350"><defs><style>.cls-1{isolation:isolate;}.cls-2,.cls-36,.cls-8{fill:#f4f0e6;}.cls-3,.cls-32,.cls-34,.cls-38,.cls-39,.cls-7{fill:#fff;}.cls-10,.cls-11,.cls-12,.cls-13,.cls-14,.cls-15,.cls-16,.cls-17,.cls-18,.cls-19,.cls-20,.cls-21,.cls-22,.cls-23,.cls-24,.cls-25,.cls-26,.cls-27,.cls-28,.cls-3,.cls-31,.cls-33,.cls-34,.cls-35,.cls-36,.cls-37,.cls-38,.cls-39,.cls-4,.cls-5,.cls-6,.cls-7,.cls-8,.cls-9{stroke:#000;}.cls-10,.cls-11,.cls-12,.cls-13,.cls-14,.cls-15,.cls-16,.cls-17,.cls-18,.cls-19,.cls-20,.cls-21,.cls-22,.cls-23,.cls-24,.cls-25,.cls-26,.cls-27,.cls-28,.cls-3,.cls-31,.cls-33,.cls-34,.cls-35,.cls-38,.cls-4,.cls-5,.cls-7,.cls-9{stroke-linecap:round;}.cls-3,.cls-31,.cls-34,.cls-4,.cls-7,.cls-9{stroke-linejoin:round;}.cls-3{stroke-width:0.58px;}.cls-4{fill:#feda7c;}.cls-10,.cls-11,.cls-12,.cls-13,.cls-14,.cls-15,.cls-16,.cls-17,.cls-18,.cls-19,.cls-20,.cls-21,.cls-22,.cls-23,.cls-24,.cls-25,.cls-26,.cls-27,.cls-28,.cls-4,.cls-5,.cls-6,.cls-7,.cls-8,.cls-9{stroke-width:0.6px;}.cls-10,.cls-11,.cls-12,.cls-13,.cls-14,.cls-15,.cls-16,.cls-17,.cls-18,.cls-19,.cls-20,.cls-21,.cls-22,.cls-23,.cls-24,.cls-25,.cls-26,.cls-27,.cls-28,.cls-33,.cls-35,.cls-36,.cls-37,.cls-38,.cls-39,.cls-5,.cls-6,.cls-8{stroke-miterlimit:10;}.cls-5{fill:url(#linear-gradient);}.cls-37,.cls-6{fill:#792ee5;}.cls-10{fill:url(#linear-gradient-2);}.cls-11{fill:url(#linear-gradient-3);}.cls-12{fill:url(#linear-gradient-4);}.cls-13{fill:url(#linear-gradient-5);}.cls-14{fill:url(#linear-gradient-6);}.cls-15{fill:url(#linear-gradient-7);}.cls-16{fill:url(#linear-gradient-8);}.cls-17{fill:url(#linear-gradient-9);}.cls-18{fill:url(#linear-gradient-10);}.cls-19{fill:url(#linear-gradient-11);}.cls-20{fill:url(#linear-gradient-12);}.cls-21{fill:url(#linear-gradient-13);}.cls-22{fill:url(#linear-gradient-14);}.cls-23{fill:url(#linear-gradient-15);}.cls-24{fill:url(#linear-gradient-16);}.cls-25{fill:url(#linear-gradient-17);}.cls-26{fill:url(#linear-gradient-18);}.cls-27{fill:url(#linear-gradient-19);}.cls-28{fill:url(#linear-gradient-20);}.cls-29{opacity:0.16;mix-blend-mode:multiply;}.cls-30{fill:gray;}.cls-31{fill:none;}.cls-31,.cls-33,.cls-34,.cls-35,.cls-36,.cls-37,.cls-38,.cls-39{stroke-width:0.57px;}.cls-33{fill:url(#linear-gradient-21);}.cls-35{fill:url(#linear-gradient-22);}</style><linearGradient id="linear-gradient" x1="160.86" y1="254.75" x2="164.62" y2="254.75" gradientTransform="translate(-34.92 315.08) rotate(-90)" gradientUnits="userSpaceOnUse"><stop offset="0" stop-color="#792ee5"/><stop offset="0.15" stop-color="#8740da"/><stop offset="0.44" stop-color="#ac70bd"/><stop offset="0.85" stop-color="#e7bc8e"/><stop offset="1" stop-color="#feda7c"/><stop offset="1" stop-color="#fedb7e"/><stop offset="1" stop-color="#fedc85"/><stop offset="1" stop-color="#fee090"/><stop offset="1" stop-color="#fee5a1"/><stop offset="1" stop-color="#feebb7"/><stop offset="1" stop-color="#fff2d3"/><stop offset="1" stop-color="#fffbf2"/><stop offset="1" stop-color="#fff"/></linearGradient><linearGradient id="linear-gradient-2" x1="157.1" y1="227.06" x2="160.86" y2="227.06" xlink:href="#linear-gradient"/><linearGradient id="linear-gradient-3" x1="168.26" y1="230.82" x2="172.01" y2="230.82" xlink:href="#linear-gradient"/><linearGradient id="linear-gradient-4" x1="181.08" y1="215.59" x2="184.84" y2="215.59" xlink:href="#linear-gradient"/><linearGradient id="linear-gradient-5" x1="161.05" y1="207.5" x2="164.81" y2="207.5" xlink:href="#linear-gradient"/><linearGradient id="linear-gradient-6" x1="150.87" y1="209.37" x2="154.63" y2="209.37" xlink:href="#linear-gradient"/><linearGradient id="linear-gradient-7" x1="171.65" y1="171.26" x2="175.41" y2="171.26" xlink:href="#linear-gradient"/><linearGradient id="linear-gradient-8" x1="168.27" y1="154.03" x2="172.03" y2="154.03" xlink:href="#linear-gradient"/><linearGradient id="linear-gradient-9" x1="176.83" y1="172.6" x2="180.59" y2="172.6" xlink:href="#linear-gradient"/><linearGradient id="linear-gradient-10" x1="172.43" y1="225.37" x2="176.19" y2="225.37" xlink:href="#linear-gradient"/><linearGradient id="linear-gradient-11" x1="166.39" y1="168.33" x2="170.15" y2="168.33" xlink:href="#linear-gradient"/><linearGradient id="linear-gradient-12" x1="176.83" y1="166.92" x2="180.59" y2="166.92" xlink:href="#linear-gradient"/><linearGradient id="linear-gradient-13" x1="180.15" y1="160.46" x2="183.91" y2="160.46" xlink:href="#linear-gradient"/><linearGradient id="linear-gradient-14" x1="168.14" y1="162.34" x2="171.9" y2="162.34" xlink:href="#linear-gradient"/><linearGradient id="linear-gradient-15" x1="147.12" y1="216.77" x2="150.88" y2="216.77" xlink:href="#linear-gradient"/><linearGradient id="linear-gradient-16" x1="145.12" y1="253.28" x2="148.88" y2="253.28" xlink:href="#linear-gradient"/><linearGradient id="linear-gradient-17" x1="133.82" y1="247.17" x2="137.58" y2="247.17" xlink:href="#linear-gradient"/><linearGradient id="linear-gradient-18" x1="129.27" y1="255.51" x2="133.03" y2="255.51" xlink:href="#linear-gradient"/><linearGradient id="linear-gradient-19" x1="141.36" y1="260.68" x2="145.12" y2="260.68" xlink:href="#linear-gradient"/><linearGradient id="linear-gradient-20" x1="166.26" y1="217.82" x2="170.02" y2="217.82" xlink:href="#linear-gradient"/><linearGradient id="linear-gradient-21" x1="102.49" y1="244.67" x2="141.73" y2="244.67" gradientTransform="matrix(1, 0, 0, 1, 0, 0)" xlink:href="#linear-gradient"/><linearGradient id="linear-gradient-22" x1="102.49" y1="265.77" x2="140.03" y2="265.77" gradientTransform="matrix(1, 0, 0, 1, 0, 0)" xlink:href="#linear-gradient"/></defs><g class="cls-1"><g id="Layer_2" data-name="Layer 2"><g id="boundary_boxes" data-name="boundary boxes"><rect class="cls-2" width="350" height="350"/></g><g id="point_cloud_segmentation" data-name="point cloud segmentation"><rect class="cls-3" x="108.89" y="63.98" width="137.33" height="165.49" rx="14.52" transform="translate(30.84 324.28) rotate(-90)"/><circle class="cls-4" cx="235.92" cy="137.51" r="1.88"/><circle class="cls-4" cx="231.42" cy="146.83" r="1.88"/><circle class="cls-4" cx="224.95" cy="143.07" r="1.88"/><circle class="cls-5" cx="219.83" cy="152.35" r="1.88"/><circle class="cls-6" cx="210.11" cy="160.94" r="1.88"/><circle class="cls-7" cx="223.87" cy="160.94" r="1.88"/><circle class="cls-8" cx="209.05" cy="135.63" r="1.88"/><circle class="cls-4" cx="227.63" cy="130.36" r="1.88"/><circle class="cls-8" cx="217.05" cy="132.24" r="1.88"/><circle class="cls-9" cx="211.99" cy="146.83" r="1.88"/><circle class="cls-7" cx="207.17" cy="152.35" r="1.88"/><circle class="cls-10" cx="192.14" cy="156.11" r="1.88"/><circle class="cls-11" cx="195.9" cy="144.95" r="1.88"/><circle class="cls-7" cx="235.18" cy="154.23" r="1.88"/><circle class="cls-8" cx="247.33" cy="139.39" r="1.88"/><circle class="cls-8" cx="176.57" cy="106.09" r="1.88"/><circle class="cls-8" cx="178.44" cy="116.27" r="1.88"/><circle class="cls-6" cx="170.99" cy="117.05" r="1.88"/><circle class="cls-6" cx="172.33" cy="127.57" r="1.88"/><circle class="cls-7" cx="169.56" cy="140.24" r="1.88"/><circle class="cls-12" cx="180.67" cy="132.12" r="1.88"/><circle class="cls-4" cx="153.77" cy="120.43" r="1.88"/><circle class="cls-6" cx="165.66" cy="105.21" r="1.88"/><circle class="cls-4" cx="158.23" cy="112.97" r="1.88"/><circle class="cls-4" cx="162.75" cy="127.74" r="1.88"/><circle class="cls-7" cx="162.11" cy="135.04" r="1.88"/><circle class="cls-4" cx="136.78" cy="173.32" r="1.88"/><circle class="cls-8" cx="228.71" cy="120.43" r="1.88"/><circle class="cls-7" cx="145.98" cy="152.15" r="1.88"/><circle class="cls-7" cx="148.65" cy="135.71" r="1.88"/><circle class="cls-8" cx="185.84" cy="120.02" r="1.88"/><circle class="cls-8" cx="186.89" cy="100.88" r="1.88"/><circle class="cls-13" cx="172.58" cy="152.15" r="1.88"/><circle class="cls-14" cx="174.45" cy="162.33" r="1.88"/><circle class="cls-7" cx="167" cy="163.12" r="1.88"/><circle class="cls-9" cx="168.34" cy="173.63" r="1.88"/><circle class="cls-8" cx="165.57" cy="186.3" r="1.88"/><circle class="cls-6" cx="176.68" cy="178.18" r="1.88"/><circle class="cls-9" cx="205.29" cy="145.06" r="1.88"/><circle class="cls-7" cx="147.08" cy="162.09" r="1.88"/><circle class="cls-7" cx="154.24" cy="159.04" r="1.88"/><circle class="cls-4" cx="158.76" cy="173.8" r="1.88"/><circle class="cls-4" cx="158.12" cy="181.1" r="1.88"/><circle class="cls-8" cx="148.21" cy="193" r="1.88"/><circle class="cls-4" cx="144.66" cy="181.77" r="1.88"/><circle class="cls-7" cx="143.79" cy="140.77" r="1.88"/><circle class="cls-15" cx="136.34" cy="141.56" r="1.88"/><circle class="cls-7" cx="137.68" cy="152.07" r="1.88"/><circle class="cls-9" cx="134.9" cy="164.75" r="1.88"/><circle class="cls-9" cx="187.72" cy="178.18" r="1.88"/><circle class="cls-16" cx="119.11" cy="144.93" r="1.88"/><circle class="cls-7" cx="128.09" cy="152.24" r="1.88"/><circle class="cls-9" cx="127.46" cy="159.54" r="1.88"/><circle class="cls-6" cx="117.54" cy="171.44" r="1.88"/><circle class="cls-8" cx="114" cy="160.21" r="1.88"/><circle class="cls-8" cx="141.87" cy="114.28" r="1.88"/><circle class="cls-8" cx="134.43" cy="115.07" r="1.88"/><circle class="cls-6" cx="135.77" cy="125.58" r="1.88"/><circle class="cls-17" cx="137.68" cy="136.38" r="1.88"/><circle class="cls-7" cx="151.66" cy="129.62" r="1.88"/><circle class="cls-7" cx="156.88" cy="138.89" r="1.88"/><circle class="cls-7" cx="162.75" cy="139.68" r="1.88"/><circle class="cls-7" cx="165.87" cy="143.44" r="1.88"/><circle class="cls-18" cx="190.45" cy="140.77" r="1.88"/><circle class="cls-7" cx="154.82" cy="150.96" r="1.88"/><circle class="cls-7" cx="157.91" cy="155.03" r="1.88"/><circle class="cls-7" cx="159.25" cy="161.42" r="1.88"/><circle class="cls-9" cx="157.53" cy="167.18" r="1.88"/><circle class="cls-7" cx="148.65" cy="142.65" r="1.88"/><circle class="cls-7" cx="142.78" cy="148.7" r="1.88"/><circle class="cls-19" cx="133.41" cy="146.81" r="1.88"/><circle class="cls-20" cx="132.01" cy="136.38" r="1.88"/><circle class="cls-7" cx="136.78" cy="130.24" r="1.88"/><circle class="cls-9" cx="144.14" cy="124.19" r="1.88"/><circle class="cls-7" cx="150.53" cy="123.7" r="1.88"/><circle class="cls-4" cx="157.53" cy="129.45" r="1.88"/><circle class="cls-7" cx="154.24" cy="135.04" r="1.88"/><circle class="cls-7" cx="144.1" cy="130.13" r="1.88"/><circle class="cls-6" cx="117.2" cy="118.44" r="1.88"/><circle class="cls-8" cx="126.18" cy="125.75" r="1.88"/><circle class="cls-21" cx="125.55" cy="133.05" r="1.88"/><circle class="cls-22" cx="127.43" cy="145.06" r="1.88"/><circle class="cls-7" cx="112.08" cy="133.73" r="1.88"/><circle class="cls-23" cx="181.85" cy="166.09" r="1.88"/><circle class="cls-24" cx="218.36" cy="168.09" r="1.88"/><circle class="cls-7" cx="210.92" cy="168.87" r="1.88"/><circle class="cls-25" cx="212.26" cy="179.38" r="1.88"/><circle class="cls-8" cx="209.48" cy="192.06" r="1.88"/><circle class="cls-26" cx="220.6" cy="183.94" r="1.88"/><circle class="cls-6" cx="193.69" cy="172.25" r="1.88"/><circle class="cls-7" cx="198.15" cy="164.79" r="1.88"/><circle class="cls-6" cx="202.67" cy="179.55" r="1.88"/><circle class="cls-8" cx="202.04" cy="186.85" r="1.88"/><circle class="cls-8" cx="192.12" cy="198.76" r="1.88"/><circle class="cls-8" cx="188.57" cy="187.53" r="1.88"/><circle class="cls-27" cx="225.76" cy="171.84" r="1.88"/><circle class="cls-28" cx="182.9" cy="146.94" r="1.88"/><g class="cls-29"><rect class="cls-30" x="102.74" y="228.58" width="49.18" height="49.18" rx="5.02"/><rect class="cls-31" x="102.74" y="228.58" width="49.18" height="49.18" rx="5.02"/></g><rect class="cls-32" x="96.08" y="221.92" width="49.18" height="49.18" rx="5.02"/><rect class="cls-31" x="96.08" y="221.92" width="49.18" height="49.18" rx="5.02"/><g class="cls-29"><rect class="cls-30" x="159.52" y="228.58" width="49.18" height="49.18" rx="5.02"/><rect class="cls-31" x="159.52" y="228.58" width="49.18" height="49.18" rx="5.02"/></g><rect class="cls-32" x="152.86" y="221.92" width="49.18" height="49.18" rx="5.02"/><rect class="cls-31" x="152.86" y="221.92" width="49.18" height="49.18" rx="5.02"/><g class="cls-29"><rect class="cls-30" x="215.86" y="228.58" width="49.18" height="49.18" rx="5.02"/><rect class="cls-31" x="215.86" y="228.58" width="49.18" height="49.18" rx="5.02"/></g><rect class="cls-32" x="209.2" y="221.92" width="49.18" height="49.18" rx="5.02"/><rect class="cls-31" x="209.2" y="221.92" width="49.18" height="49.18" rx="5.02"/><path class="cls-33" d="M138.23,251.42a.75.75,0,0,0,.23.07,19.65,19.65,0,0,0,2.17,0,1.74,1.74,0,0,0,.63-.21,1,1,0,0,0,.46-.91c0-.71,0-1.43,0-2.14a4.56,4.56,0,0,0-1.18-2.9,5.67,5.67,0,0,0-1.83-1.32,7.52,7.52,0,0,0-2.51-.66l-2.39-.28-2.62-.29a.68.68,0,0,1-.46-.21,16.07,16.07,0,0,0-2.26-1.94,15.39,15.39,0,0,0-4-2.05,13,13,0,0,0-3.44-.64c-.6-.05-1.2-.06-1.8-.06a18.34,18.34,0,0,0-4.43.54,15.36,15.36,0,0,0-4.17,1.72,9.74,9.74,0,0,0-2,1.46,1.52,1.52,0,0,1-1.24.4c-.45,0-.9,0-1.34,0a4.84,4.84,0,0,0-.85,0,3.17,3.17,0,0,0-2.59,2.17,3.34,3.34,0,0,0-.12,1.48c0,.43,0,.86.06,1.3.07.83.11,1.67.14,2.51a1.9,1.9,0,0,0,.17.88,1.72,1.72,0,0,0,1.18.83,9,9,0,0,0,1.37.15c.29,0,.59,0,.89.08a1.23,1.23,0,0,0,.43,0"/><path class="cls-34" d="M117.66,243.44c1.13,0,2.25.05,3.38.1.58,0,1.15,0,1.73,0,1.86.05,3.73,0,5.59,0h.14c.37,0,.52-.25.34-.57a6.1,6.1,0,0,0-1.55-1.73,10.14,10.14,0,0,0-2.9-1.55,14,14,0,0,0-3.67-.75,16,16,0,0,0-2.85,0,18.37,18.37,0,0,0-2.1.34,15.86,15.86,0,0,0-2.6.78,7.18,7.18,0,0,0-2.12,1.16,2.16,2.16,0,0,0-.27.25,1,1,0,0,0-.14,1.12c.07.21.31.23.5.27.76.12,1.52.2,2.28.25s1.67.13,2.51.18c.43,0,.87,0,1.3,0l.41,0"/><path class="cls-34" d="M114.4,251.45a7.4,7.4,0,0,0-.5.86,3.91,3.91,0,0,1-2.87,1.78,4,4,0,0,1-4-2.23,2.11,2.11,0,0,0-.24-.44c-.07-.09,0-.24,0-.36a2.89,2.89,0,0,1-.11-.82,3.87,3.87,0,0,1,1.89-3.42,3.77,3.77,0,0,1,3.33-.36,3.82,3.82,0,0,1,2.33,2.14,4,4,0,0,1,.24,2.39c-.06.38-.15.5.42.5h15.32a.59.59,0,0,0,.37-.07"/><path class="cls-34" d="M138.21,251.42a10.09,10.09,0,0,1,.12-1.09,3.92,3.92,0,0,0-2.31-3.76,4,4,0,0,0-1.82-.33,3.93,3.93,0,0,0-3.72,3.52,3.25,3.25,0,0,0,.09,1.28.55.55,0,0,1,0,.38c.22.15.27.42.4.65a4,4,0,0,0,1.94,1.73,3.88,3.88,0,0,0,1.94.27,3.81,3.81,0,0,0,2.16-1,3.46,3.46,0,0,0,1-1.41.44.44,0,0,1,.2-.25"/><path class="cls-34" d="M134.42,248.14a2,2,0,0,1,1.91,1.44,2,2,0,0,1-3.08,2.25,2,2,0,0,1-.85-2,2,2,0,0,1,1.66-1.71,2,2,0,0,1,.34,0"/><path class="cls-34" d="M110.48,248.14a2.16,2.16,0,0,0-1.33.61,2,2,0,0,0-.06,2.76,2,2,0,1,0,2.09-3.27,1.93,1.93,0,0,0-.68-.1"/><rect class="cls-35" x="102.49" y="264.89" width="37.54" height="1.76" rx="0.88"/><rect class="cls-36" x="159.26" y="265.93" width="37.54" height="1.76" rx="0.88"/><rect class="cls-37" x="215.61" y="265.19" width="37.54" height="1.76" rx="0.88"/><rect class="cls-38" x="102.49" y="225.3" width="37.54" height="1.76" rx="0.88"/><rect class="cls-34" x="159.26" y="224.8" width="37.54" height="1.76" rx="0.88"/><rect class="cls-39" x="215.61" y="224.29" width="37.54" height="1.76" rx="0.88"/><g id="Layer_1-2" data-name="Layer 1"><path class="cls-37" d="M236.57,245.83c-.34,1.19-.66,2.32-1,3.44a.75.75,0,0,0,.31.88c.69.57,1.34,1.18,2,1.73a3.45,3.45,0,0,1,1.45,2.64c.11,1.93.31,3.85.37,5.78.06,1.73-1.17,2.47-2.73,1.75a1.5,1.5,0,0,1-1-1.32c-.14-1.71-.31-3.43-.43-5.15a1.5,1.5,0,0,0-.62-1.25c-.57-.42-1.08-.91-1.61-1.38-.3-.26-.5-.3-.53.18,0,.18,0,.37-.06.55a6.8,6.8,0,0,1-2.25,5c-1,.94-1.84,2.07-2.78,3.09-1.19,1.27-2.46,1.13-3.23-.33a1.64,1.64,0,0,1,.25-2c1-1.14,2-2.31,3.1-3.43a3.88,3.88,0,0,0,1.1-2.25,55.59,55.59,0,0,1,1.79-10.16c.15-.48,0-.6-.47-.49a2.56,2.56,0,0,0-2.15,1.76,27.51,27.51,0,0,1-1.42,3.14,1.65,1.65,0,0,1-2.31.78,1.42,1.42,0,0,1-.84-1.94,48.2,48.2,0,0,1,2.51-5.47,2.4,2.4,0,0,1,1.52-1c2-.61,4-1.23,6-1.82a3,3,0,0,1,3.54,1.47c.82,1.37,1.66,2.72,2.48,4.09a1.32,1.32,0,0,0,1,.71c1.39.21,2.78.47,4.16.73,1,.18,1.44.88,1.34,2a1.37,1.37,0,0,1-1.63,1.3,47.82,47.82,0,0,1-5.94-1,2.35,2.35,0,0,1-1.35-1.14A2.17,2.17,0,0,0,236.57,245.83Z"/><path class="cls-37" d="M239.11,235.11a3.25,3.25,0,0,1-3.18,3.21,3.24,3.24,0,1,1,3.18-3.21Z"/></g><g id="meta"><path class="cls-36" d="M179.63,249.14c.22.25.55.09.84.29a3.75,3.75,0,0,0,4.77-.34c1-.87,2.09-1.67,3.09-2.56a3,3,0,0,0,0-4.82c-.19-.16-.35-.34-.54-.53a6.72,6.72,0,0,0,.2-1.55c-.05-1.09-.3-1.42-1.37-1.56-.49-.06-.68-.19-.76-.74a8.17,8.17,0,0,0-1.29-3.75,4.93,4.93,0,0,0-5.57-1.79c-.27.07-.55.12-.81.21a1.73,1.73,0,0,1-1.79-.27,3.58,3.58,0,0,0-4.78.39,2.69,2.69,0,0,1-1.64.75,3.94,3.94,0,0,0-3.64,3.63,6.76,6.76,0,0,1-.36,1.37,7.06,7.06,0,0,0,.18,6.16c.34.62,0,1.31.12,2,.24,1.49,1,2.2,2.43,2.19a4,4,0,0,1,2.18.5c1,.61,2.18.25,3.27,0"/><path class="cls-36" d="M178.26,247.36a3.75,3.75,0,0,1,1.13,3.25,27.5,27.5,0,0,0,1.25,9.93,3.05,3.05,0,0,1,0,.83h-6.58c-.72,0-.49-.6-.41-.93a34.68,34.68,0,0,0,.75-4.29,59.73,59.73,0,0,0,0-6.69,3.48,3.48,0,0,0-.23-.85l1.13-1.35"/></g></g></g></g></svg>
