<svg xmlns="http://www.w3.org/2000/svg" xmlns:xlink="http://www.w3.org/1999/xlink" viewBox="0 0 350 350"><defs><style>.cls-1{isolation:isolate;}.cls-10,.cls-2{fill:#f4f0e6;}.cls-3{opacity:0.16;mix-blend-mode:multiply;}.cls-20,.cls-4,.cls-5{fill:gray;}.cls-10,.cls-11,.cls-12,.cls-14,.cls-18,.cls-24,.cls-4,.cls-6,.cls-7{stroke:#000;stroke-width:0.6px;}.cls-11,.cls-18,.cls-22,.cls-4,.cls-6,.cls-7{stroke-linecap:round;}.cls-11,.cls-18,.cls-4,.cls-7{stroke-linejoin:round;}.cls-5,.cls-8,.cls-9{opacity:0.85;}.cls-14,.cls-18,.cls-22,.cls-6{fill:none;}.cls-10,.cls-12,.cls-14,.cls-22,.cls-24,.cls-6{stroke-miterlimit:10;}.cls-21,.cls-24,.cls-7{fill:#fff;}.cls-8{fill:url(#linear-gradient);}.cls-9{fill:url(#linear-gradient-2);}.cls-11,.cls-19{fill:#feda7c;}.cls-12,.cls-15{fill:#792ee5;}.cls-13{fill:#006;}.cls-16{fill:#757167;}.cls-17{fill:#7f5a00;}.cls-22{stroke:url(#linear-gradient-3);}.cls-23{fill:url(#linear-gradient-4);}</style><linearGradient id="linear-gradient" x1="141.85" y1="148.49" x2="130.23" y2="168.62" gradientUnits="userSpaceOnUse"><stop offset="0" stop-color="#fff"/><stop offset="0" stop-color="#fffbf2"/><stop offset="0" stop-color="#fff2d3"/><stop offset="0" stop-color="#feebb7"/><stop offset="0" stop-color="#fee5a1"/><stop offset="0" stop-color="#fee090"/><stop offset="0" stop-color="#fedc85"/><stop offset="0" stop-color="#fedb7e"/><stop offset="0" stop-color="#feda7c"/><stop offset="0.09" stop-color="#e6bb8f"/><stop offset="0.24" stop-color="#c590a9"/><stop offset="0.39" stop-color="#aa6dbf"/><stop offset="0.54" stop-color="#9451cf"/><stop offset="0.69" stop-color="#853edb"/><stop offset="0.84" stop-color="#7c32e3"/><stop offset="1" stop-color="#792ee5"/></linearGradient><linearGradient id="linear-gradient-2" x1="157.45" y1="220.57" x2="39.75" y2="220.57" gradientUnits="userSpaceOnUse"><stop offset="0" stop-color="#fff"/><stop offset="0" stop-color="#fffbf2"/><stop offset="0" stop-color="#fff2d3"/><stop offset="0" stop-color="#feebb7"/><stop offset="0" stop-color="#fee5a1"/><stop offset="0" stop-color="#fee090"/><stop offset="0" stop-color="#fedc85"/><stop offset="0" stop-color="#fedb7e"/><stop offset="0" stop-color="#feda7c"/><stop offset="0.03" stop-color="#fad57f"/><stop offset="1" stop-color="#792ee5"/></linearGradient><linearGradient id="linear-gradient-3" x1="167.19" y1="135.28" x2="177.82" y2="122.02" xlink:href="#linear-gradient"/><linearGradient id="linear-gradient-4" x1="172" y1="139.14" x2="182.63" y2="125.88" xlink:href="#linear-gradient"/></defs><g class="cls-1"><g id="Layer_2" data-name="Layer 2"><g id="boundary_boxes" data-name="boundary boxes"><rect class="cls-2" width="350" height="350"/></g><g id="semantic_segmentation" data-name="semantic segmentation"><g class="cls-3"><rect class="cls-4" x="46.75" y="143.98" width="117.7" height="117.7" rx="10.36"/><circle class="cls-5" cx="143.04" cy="165.55" r="11.62"/><circle class="cls-6" cx="143.04" cy="165.55" r="11.62"/><path class="cls-5" d="M164.45,210.72S134.31,228,123.53,228c-13.09,0-30-34.47-43.1-34.49-13.81,0-33.68,23.76-33.68,23.76v34.1A10.35,10.35,0,0,0,57.1,261.68h97a10.35,10.35,0,0,0,10.36-10.35Z"/><path class="cls-6" d="M164.45,210.72S134.31,228,123.53,228c-13.09,0-30-34.47-43.1-34.49-13.81,0-33.68,23.76-33.68,23.76v34.1A10.35,10.35,0,0,0,57.1,261.68h97a10.35,10.35,0,0,0,10.36-10.35Z"/></g><rect class="cls-7" x="39.75" y="136.98" width="117.7" height="117.7" rx="10.36"/><circle class="cls-8" cx="136.04" cy="158.55" r="11.62"/><circle class="cls-6" cx="136.04" cy="158.55" r="11.62"/><path class="cls-9" d="M157.45,203.72S127.31,221,116.53,221c-13.09,0-30-34.47-43.1-34.49-13.81,0-33.68,23.76-33.68,23.76v34.1A10.35,10.35,0,0,0,50.1,254.68h97a10.35,10.35,0,0,0,10.36-10.35Z"/><path class="cls-6" d="M157.45,203.72S127.31,221,116.53,221c-13.09,0-30-34.47-43.1-34.49-13.81,0-33.68,23.76-33.68,23.76v34.1A10.35,10.35,0,0,0,50.1,254.68h97a10.35,10.35,0,0,0,10.36-10.35Z"/><rect class="cls-10" x="190.01" y="136.98" width="117.7" height="117.7" rx="10.36"/><circle class="cls-11" cx="286.31" cy="158.55" r="11.62"/><path class="cls-12" d="M307.71,203.72S277.57,221,266.8,221c-13.09,0-30-34.47-43.11-34.49-13.81,0-33.68,23.76-33.68,23.76v34.1a10.35,10.35,0,0,0,10.36,10.35h97a10.35,10.35,0,0,0,10.35-10.35Z"/><g class="cls-3"><rect class="cls-13" x="250.26" y="275.57" width="75.56" height="11.56"/><rect class="cls-14" x="250.26" y="275.57" width="75.56" height="11.56"/></g><rect class="cls-15" x="243.26" y="268.57" width="75.56" height="11.56"/><rect class="cls-14" x="243.26" y="268.57" width="75.56" height="11.56"/><g class="cls-3"><rect class="cls-16" x="250.26" y="255.9" width="75.56" height="11.56"/><rect class="cls-14" x="250.26" y="255.9" width="75.56" height="11.56"/></g><rect class="cls-2" x="243.26" y="248.9" width="75.56" height="11.56"/><rect class="cls-14" x="243.26" y="248.9" width="75.56" height="11.56"/><g class="cls-3"><rect class="cls-17" x="250.26" y="236.24" width="75.56" height="11.56"/><rect class="cls-18" x="250.26" y="236.24" width="75.56" height="11.56"/></g><rect class="cls-19" x="243.26" y="229.24" width="75.56" height="11.56"/><rect class="cls-18" x="243.26" y="229.24" width="75.56" height="11.56"/><g class="cls-3"><rect class="cls-20" x="255.86" y="280.24" width="64.35" height="2.22" rx="1.11"/><rect class="cls-18" x="255.86" y="280.24" width="64.35" height="2.22" rx="1.11"/></g><rect class="cls-21" x="248.86" y="273.24" width="64.35" height="2.22" rx="1.11"/><rect class="cls-18" x="248.86" y="273.24" width="64.35" height="2.22" rx="1.11"/><g class="cls-3"><rect class="cls-20" x="255.86" y="260.57" width="64.35" height="2.22" rx="1.11"/><rect class="cls-18" x="255.86" y="260.57" width="64.35" height="2.22" rx="1.11"/></g><rect class="cls-21" x="248.86" y="253.57" width="64.35" height="2.22" rx="1.11"/><rect class="cls-18" x="248.86" y="253.57" width="64.35" height="2.22" rx="1.11"/><g class="cls-3"><rect class="cls-20" x="255.86" y="240.9" width="64.35" height="2.22" rx="1.11"/><rect class="cls-18" x="255.86" y="240.9" width="64.35" height="2.22" rx="1.11"/></g><rect class="cls-21" x="248.86" y="233.9" width="64.35" height="2.22" rx="1.11"/><rect class="cls-18" x="248.86" y="233.9" width="64.35" height="2.22" rx="1.11"/><path class="cls-22" d="M160.44,129.23s3.15-5.42,12.77-5.44c5.27,0,9.58,2.88,11.39,4.3"/><path class="cls-23" d="M176.27,127.35a.5.5,0,0,1,.57-.43l7.58,1-2.28-7.3a.51.51,0,0,1,.33-.63.5.5,0,0,1,.62.33l2.51,8.06a.47.47,0,0,1-.09.47.51.51,0,0,1-.45.17l-8.36-1.13a.44.44,0,0,1-.25-.11A.51.51,0,0,1,176.27,127.35Z"/><g id="transformers_and_multi-head" data-name="transformers and multi-head"><rect class="cls-24" x="139.9" y="72.21" width="68.67" height="42.75"/><line class="cls-18" x1="190.64" y1="104.86" x2="198.09" y2="82.72"/><line class="cls-18" x1="174.24" y1="82.81" x2="190.64" y2="104.86"/><line class="cls-18" x1="174.24" y1="104.86" x2="174.24" y2="82.72"/><polyline class="cls-18" points="157.1 104.86 149.9 82.72 174.24 104.86"/><line class="cls-18" x1="149.9" y1="82.72" x2="190.64" y2="104.86"/><line class="cls-18" x1="174.24" y1="82.81" x2="157.1" y2="104.86"/><polyline class="cls-18" points="190.64 105.05 198.09 82.9 174.24 104.86"/><line class="cls-18" x1="198.09" y1="82.81" x2="157.1" y2="104.86"/><circle class="cls-24" cx="149.9" cy="79.57" r="3.15"/><circle class="cls-24" cx="174.24" cy="79.57" r="3.15"/><circle class="cls-24" cx="198.09" cy="79.57" r="3.15"/><circle class="cls-24" cx="157.1" cy="108.02" r="3.15"/><circle class="cls-24" cx="174.24" cy="108.02" r="3.15"/><circle class="cls-24" cx="190.64" cy="108.02" r="3.15"/></g></g></g></g></svg>
