<svg xmlns="http://www.w3.org/2000/svg" xmlns:xlink="http://www.w3.org/1999/xlink" viewBox="0 0 350 350"><defs><style>.cls-1,.cls-21,.cls-4,.cls-7{fill:none;}.cls-2{isolation:isolate;}.cls-3{fill:#f4f0e6;}.cls-10,.cls-11,.cls-12,.cls-13,.cls-14,.cls-15,.cls-20,.cls-21,.cls-4,.cls-7,.cls-8,.cls-9{stroke-linecap:round;}.cls-10,.cls-11,.cls-12,.cls-13,.cls-14,.cls-15,.cls-4,.cls-8,.cls-9{stroke-miterlimit:10;}.cls-4{stroke:url(#linear-gradient);}.cls-5{fill:url(#linear-gradient-2);}.cls-20,.cls-6{fill:#fff;}.cls-10,.cls-11,.cls-12,.cls-13,.cls-14,.cls-15,.cls-20,.cls-21,.cls-7,.cls-8,.cls-9{stroke:#000;}.cls-20,.cls-21,.cls-7{stroke-linejoin:round;}.cls-7{stroke-width:0.44px;}.cls-10,.cls-11,.cls-12,.cls-13,.cls-14,.cls-15,.cls-8,.cls-9{fill-opacity:0.85;stroke-width:0.71px;}.cls-8{fill:url(#linear-gradient-3);}.cls-9{fill:url(#linear-gradient-4);}.cls-10{fill:url(#linear-gradient-5);}.cls-11{fill:url(#linear-gradient-6);}.cls-12{fill:url(#linear-gradient-7);}.cls-13{fill:url(#linear-gradient-8);}.cls-14{fill:url(#linear-gradient-9);}.cls-15{fill:url(#linear-gradient-10);}.cls-16{opacity:0.16;mix-blend-mode:multiply;}.cls-17{fill:gray;}.cls-18{fill:url(#linear-gradient-11);}.cls-19{clip-path:url(#clip-path);}.cls-20{stroke-width:0.6px;}.cls-21{stroke-width:0.44px;}</style><linearGradient id="linear-gradient" x1="175.44" y1="230.15" x2="178.46" y2="246.88" gradientUnits="userSpaceOnUse"><stop offset="0" stop-color="#fff"/><stop offset="0" stop-color="#fffbf2"/><stop offset="0" stop-color="#fff2d3"/><stop offset="0" stop-color="#feebb7"/><stop offset="0" stop-color="#fee5a1"/><stop offset="0" stop-color="#fee090"/><stop offset="0" stop-color="#fedc85"/><stop offset="0" stop-color="#fedb7e"/><stop offset="0" stop-color="#feda7c"/><stop offset="0.09" stop-color="#e6bb8f"/><stop offset="0.24" stop-color="#c590a9"/><stop offset="0.39" stop-color="#aa6dbf"/><stop offset="0.54" stop-color="#9451cf"/><stop offset="0.69" stop-color="#853edb"/><stop offset="0.84" stop-color="#7c32e3"/><stop offset="1" stop-color="#792ee5"/></linearGradient><linearGradient id="linear-gradient-2" x1="181.51" y1="229.05" x2="184.53" y2="245.78" xlink:href="#linear-gradient"/><linearGradient id="linear-gradient-3" x1="216.09" y1="175.77" x2="254.15" y2="175.77" gradientTransform="translate(410.89 -59.35) rotate(90)" gradientUnits="userSpaceOnUse"><stop offset="0" stop-color="#fff"/><stop offset="0" stop-color="#fffbf2"/><stop offset="0" stop-color="#fff2d3"/><stop offset="0" stop-color="#feebb7"/><stop offset="0" stop-color="#fee5a1"/><stop offset="0" stop-color="#fee090"/><stop offset="0" stop-color="#fedc85"/><stop offset="0" stop-color="#fedb7e"/><stop offset="0" stop-color="#feda7c"/><stop offset="0.03" stop-color="#fad57f"/><stop offset="1" stop-color="#792ee5"/></linearGradient><linearGradient id="linear-gradient-4" x1="259.39" y1="171.36" x2="241.02" y2="203.18" gradientTransform="translate(437.48 -62.94) rotate(90)" xlink:href="#linear-gradient-3"/><linearGradient id="linear-gradient-5" x1="241.02" y1="182.86" x2="259.39" y2="214.68" gradientTransform="translate(448.98 -51.44) rotate(90)" xlink:href="#linear-gradient-3"/><linearGradient id="linear-gradient-6" x1="250.21" y1="212.89" x2="250.21" y2="207.65" gradientTransform="translate(460.48 -39.94) rotate(90)" xlink:href="#linear-gradient-3"/><linearGradient id="linear-gradient-7" x1="216.09" y1="221.77" x2="284.32" y2="221.77" gradientTransform="translate(471.98 -28.44) rotate(90)" xlink:href="#linear-gradient-3"/><linearGradient id="linear-gradient-8" x1="267.81" y1="215.67" x2="232.61" y2="250.87" gradientTransform="translate(483.48 -16.94) rotate(90)" xlink:href="#linear-gradient-3"/><linearGradient id="linear-gradient-9" x1="216.09" y1="244.77" x2="284.32" y2="244.77" gradientTransform="translate(494.98 -5.44) rotate(90)" xlink:href="#linear-gradient-3"/><linearGradient id="linear-gradient-10" x1="276.1" y1="241.32" x2="224.32" y2="271.22" gradientTransform="translate(506.48 6.06) rotate(90)" xlink:href="#linear-gradient-3"/><linearGradient id="linear-gradient-11" x1="48.26" y1="162.05" x2="191.26" y2="162.05" gradientTransform="matrix(1, 0, 0, 1, 0, 0)" xlink:href="#linear-gradient-3"/><clipPath id="clip-path"><circle class="cls-1" cx="119.76" cy="162.05" r="71.5"/></clipPath></defs><g class="cls-2"><g id="Layer_2" data-name="Layer 2"><g id="boundary_boxes" data-name="boundary boxes"><rect class="cls-3" width="350" height="350"/></g><g id="semantic_segmentation" data-name="semantic segmentation"><path class="cls-4" d="M166.62,232.25s.18,6.27,8.63,10.87c4.62,2.52,9.79,2,12.06,1.65"/><path class="cls-5" d="M181.59,250.85a.48.48,0,0,1,0-.7l5.48-5.34-7.15-2.71a.5.5,0,0,1-.29-.65.52.52,0,0,1,.65-.29l7.88,3a.49.49,0,0,1,.31.36.47.47,0,0,1-.14.46l-6,5.88a.47.47,0,0,1-.25.13A.47.47,0,0,1,181.59,250.85Z"/></g><g id="speech_recognition" data-name="speech recognition"><polygon class="cls-6" points="295.14 179.1 295.14 271.76 206.17 271.76 206.17 155.69 276.12 155.69 276.12 179.1 295.14 179.1"/><polygon class="cls-6" points="276.12 155.69 295.14 179.1 276.12 179.1 276.12 155.69"/><polygon class="cls-7" points="276.12 155.69 206.17 155.69 206.17 271.76 295.14 271.76 295.14 179.1 276.12 179.1 276.12 155.69"/><line class="cls-7" x1="276.12" y1="155.69" x2="295.14" y2="179.1"/><rect class="cls-8" x="232.5" y="156.74" width="5.24" height="38.06" rx="2.62" transform="translate(59.35 410.89) rotate(-90)"/><rect class="cls-9" x="247.59" y="153.16" width="5.24" height="68.23" rx="2.62" transform="translate(62.94 437.48) rotate(-90)"/><rect class="cls-10" x="247.59" y="164.66" width="5.24" height="68.23" rx="2.62" transform="translate(51.44 448.98) rotate(-90)"/><rect class="cls-11" x="247.59" y="176.16" width="5.24" height="68.23" rx="2.62" transform="translate(39.94 460.48) rotate(-90)"/><rect class="cls-12" x="247.59" y="187.66" width="5.24" height="68.23" rx="2.62" transform="translate(28.44 471.98) rotate(-90)"/><rect class="cls-13" x="247.59" y="199.16" width="5.24" height="68.23" rx="2.62" transform="translate(16.94 483.48) rotate(-90)"/><rect class="cls-14" x="247.59" y="210.66" width="5.24" height="68.23" rx="2.62" transform="translate(5.44 494.98) rotate(-90)"/><rect class="cls-15" x="247.59" y="222.16" width="5.24" height="68.23" rx="2.62" transform="translate(-6.06 506.48) rotate(-90)"/><g class="cls-16"><circle class="cls-17" cx="126.76" cy="169.05" r="71.5"/></g><circle class="cls-18" cx="119.76" cy="162.05" r="71.5"/><g id="audio"><g class="cls-19"><rect class="cls-20" x="64.77" y="139.33" width="5.24" height="40.96" rx="2.62"/><rect class="cls-20" x="57.29" y="144.06" width="5.24" height="31.5" rx="2.3"/><rect class="cls-20" x="49.82" y="141.38" width="5.24" height="36.85" rx="2.49"/><rect class="cls-20" x="42.34" y="146.05" width="5.24" height="27.52" rx="2.15"/><rect class="cls-20" x="72.24" y="134.25" width="5.24" height="51.12" rx="2.62"/><rect class="cls-20" x="79.72" y="120.41" width="5.24" height="78.8" rx="2.62"/><rect class="cls-20" x="87.19" y="142.31" width="5.24" height="35" rx="2.62"/><rect class="cls-20" x="94.67" y="148.61" width="5.24" height="22.39" rx="2.62"/><rect class="cls-20" x="102.14" y="137.75" width="5.24" height="44.11" rx="2.62"/><rect class="cls-20" x="109.62" y="112.76" width="5.24" height="94.08" rx="2.62"/><rect class="cls-20" x="124.57" y="112.76" width="5.24" height="94.08" rx="2.62"/><rect class="cls-20" x="117.09" y="106.74" width="5.24" height="106.13" rx="2.62"/><rect class="cls-20" x="132.04" y="116.55" width="5.24" height="86.51" rx="2.62"/><rect class="cls-20" x="139.52" y="110.24" width="5.24" height="99.12" rx="2.62"/><rect class="cls-20" x="146.99" y="134.25" width="5.24" height="51.12" rx="2.62"/><rect class="cls-20" x="154.47" y="144.06" width="5.24" height="31.5" rx="2.62"/><rect class="cls-20" x="169.42" y="147.21" width="5.24" height="25.18" rx="2.34"/><rect class="cls-20" x="161.94" y="152.47" width="5.24" height="14.68" rx="2.62"/><rect class="cls-20" x="176.89" y="154.21" width="5.24" height="11.18" rx="2.29"/><rect class="cls-20" x="184.37" y="145.02" width="5.24" height="29.56" rx="2.62"/></g></g><circle class="cls-21" cx="119.71" cy="162.05" r="71.55"/></g></g></g></svg>
