<svg xmlns="http://www.w3.org/2000/svg" xmlns:xlink="http://www.w3.org/1999/xlink" viewBox="0 0 350 350"><defs><style>.cls-1{isolation:isolate;}.cls-15,.cls-2{fill:#f4f0e6;}.cls-14,.cls-3{fill:#fff;}.cls-19,.cls-4{fill:none;}.cls-12,.cls-13,.cls-14,.cls-15,.cls-16,.cls-19,.cls-4,.cls-5,.cls-6,.cls-7,.cls-8,.cls-9{stroke:#000;stroke-linecap:round;stroke-linejoin:round;}.cls-12,.cls-13,.cls-14,.cls-4,.cls-5,.cls-6,.cls-7,.cls-8,.cls-9{stroke-width:0.6px;}.cls-12,.cls-13,.cls-16,.cls-5,.cls-6,.cls-7,.cls-8,.cls-9{fill-opacity:0.85;}.cls-5{fill:url(#linear-gradient);}.cls-6{fill:url(#linear-gradient-2);}.cls-7{fill:url(#linear-gradient-3);}.cls-8{fill:url(#linear-gradient-4);}.cls-9{fill:url(#linear-gradient-5);}.cls-10{opacity:0.16;mix-blend-mode:multiply;}.cls-11,.cls-17{fill:gray;}.cls-12{fill:url(#linear-gradient-6);}.cls-13{fill:url(#linear-gradient-7);}.cls-15{stroke-width:0.25px;}.cls-16,.cls-19{stroke-width:0.5px;}.cls-16{fill:url(#linear-gradient-8);}.cls-17,.cls-18{opacity:0.85;}.cls-18{fill:url(#linear-gradient-9);}</style><linearGradient id="linear-gradient" x1="78.2" y1="151.74" x2="108.47" y2="151.74" gradientTransform="translate(245.07 58.41) rotate(90)" gradientUnits="userSpaceOnUse"><stop offset="0" stop-color="#fff"/><stop offset="0" stop-color="#fffbf2"/><stop offset="0" stop-color="#fff2d3"/><stop offset="0" stop-color="#feebb7"/><stop offset="0" stop-color="#fee5a1"/><stop offset="0" stop-color="#fee090"/><stop offset="0" stop-color="#fedc85"/><stop offset="0" stop-color="#fedb7e"/><stop offset="0" stop-color="#feda7c"/><stop offset="0.03" stop-color="#fad57f"/><stop offset="1" stop-color="#792ee5"/></linearGradient><linearGradient id="linear-gradient-2" x1="98.02" y1="155.09" x2="112.63" y2="180.4" gradientTransform="translate(273.07 62.42) rotate(90)" xlink:href="#linear-gradient"/><linearGradient id="linear-gradient-3" x1="78.2" y1="183.75" x2="132.46" y2="183.75" gradientTransform="translate(289.08 78.42) rotate(90)" xlink:href="#linear-gradient"/><linearGradient id="linear-gradient-4" x1="78.2" y1="199.76" x2="132.46" y2="199.76" gradientTransform="translate(305.09 94.43) rotate(90)" xlink:href="#linear-gradient"/><linearGradient id="linear-gradient-5" x1="125.92" y1="203.88" x2="84.74" y2="227.65" gradientTransform="translate(321.1 110.44) rotate(90)" xlink:href="#linear-gradient"/><linearGradient id="linear-gradient-6" x1="191.28" y1="65.74" x2="173.56" y2="96.44" gradientTransform="translate(263.51 -101.32) rotate(90)" xlink:href="#linear-gradient"/><linearGradient id="linear-gradient-7" x1="191.28" y1="77.04" x2="173.56" y2="107.74" gradientTransform="translate(274.81 -90.03) rotate(90)" gradientUnits="userSpaceOnUse"><stop offset="0" stop-color="#fff"/><stop offset="0" stop-color="#fffbf2"/><stop offset="0" stop-color="#fff2d3"/><stop offset="0" stop-color="#feebb7"/><stop offset="0" stop-color="#fee5a1"/><stop offset="0" stop-color="#fee090"/><stop offset="0" stop-color="#fedc85"/><stop offset="0" stop-color="#fedb7e"/><stop offset="0" stop-color="#feda7c"/><stop offset="0.07" stop-color="#e3b792"/><stop offset="0.15" stop-color="#c792a8"/><stop offset="0.24" stop-color="#ae73bb"/><stop offset="0.34" stop-color="#9b5aca"/><stop offset="0.44" stop-color="#8c46d6"/><stop offset="0.57" stop-color="#8138df"/><stop offset="0.72" stop-color="#7b30e4"/><stop offset="1" stop-color="#792ee5"/></linearGradient><linearGradient id="linear-gradient-8" x1="210.57" y1="136.56" x2="261.03" y2="223.96" gradientUnits="userSpaceOnUse"><stop offset="0" stop-color="#fff"/><stop offset="0" stop-color="#fffbf2"/><stop offset="0" stop-color="#fff2d3"/><stop offset="0" stop-color="#feebb7"/><stop offset="0" stop-color="#fee5a1"/><stop offset="0" stop-color="#fee090"/><stop offset="0" stop-color="#fedc85"/><stop offset="0" stop-color="#fedb7e"/><stop offset="0" stop-color="#feda7c"/><stop offset="0.06" stop-color="#f5ce83"/><stop offset="0.52" stop-color="#b378b8"/><stop offset="0.84" stop-color="#8943d8"/><stop offset="1" stop-color="#792ee5"/></linearGradient><linearGradient id="linear-gradient-9" x1="139.22" y1="265.8" x2="231.98" y2="265.8" gradientUnits="userSpaceOnUse"><stop offset="0" stop-color="#fff"/><stop offset="0" stop-color="#fffbf2"/><stop offset="0" stop-color="#fff2d3"/><stop offset="0" stop-color="#feebb7"/><stop offset="0" stop-color="#fee5a1"/><stop offset="0" stop-color="#fee090"/><stop offset="0" stop-color="#fedc85"/><stop offset="0" stop-color="#fedb7e"/><stop offset="0" stop-color="#feda7c"/><stop offset="0.04" stop-color="#f7d182"/><stop offset="0.29" stop-color="#ca97a5"/><stop offset="0.51" stop-color="#a76ac1"/><stop offset="0.72" stop-color="#8e49d4"/><stop offset="0.89" stop-color="#7f35e1"/><stop offset="1" stop-color="#792ee5"/></linearGradient></defs><g class="cls-1"><g id="Layer_2" data-name="Layer 2"><g id="boundary_boxes" data-name="boundary boxes"><rect class="cls-2" width="350" height="350"/></g><g id="summarization"><polygon class="cls-3" points="141.07 155.71 141.07 229.41 70.31 229.41 70.31 137.09 125.94 137.09 125.94 155.71 141.07 155.71"/><polygon class="cls-3" points="125.94 137.09 141.07 155.71 125.94 155.71 125.94 137.09"/><polygon class="cls-4" points="125.94 137.09 70.31 137.09 70.31 229.41 141.07 229.41 141.07 155.71 125.94 155.71 125.94 137.09"/><line class="cls-4" x1="125.94" y1="137.09" x2="141.07" y2="155.71"/><rect class="cls-5" x="91.25" y="136.6" width="4.17" height="30.27" rx="2.08" transform="translate(-58.41 245.07) rotate(-90)"/><rect class="cls-6" x="103.24" y="140.61" width="4.17" height="54.27" rx="2.08" transform="translate(-62.42 273.07) rotate(-90)"/><rect class="cls-7" x="103.24" y="156.62" width="4.17" height="54.27" rx="2.08" transform="translate(-78.42 289.08) rotate(-90)"/><rect class="cls-8" x="103.24" y="172.63" width="4.17" height="54.27" rx="2.08" transform="translate(-94.43 305.09) rotate(-90)"/><rect class="cls-9" x="103.24" y="188.63" width="4.17" height="54.27" rx="2.08" transform="translate(-110.44 321.1) rotate(-90)"/><polyline class="cls-4" points="61.76 162.21 61.76 128.77 93.33 128.77"/><polyline class="cls-4" points="94.26 239.52 60.82 239.52 60.82 207.94"/><polyline class="cls-4" points="148.25 162.21 148.25 128.77 116.67 128.77"/><polyline class="cls-4" points="115.74 239.52 149.18 239.52 149.18 207.94"/><g class="cls-10"><polygon class="cls-11" points="234.36 72.77 141.61 72.77 141.61 112.59 147.84 112.59 147.84 124.98 160.23 112.59 234.36 112.59 234.36 72.77"/><polygon class="cls-4" points="234.36 72.77 141.61 72.77 141.61 112.59 147.84 112.59 147.84 124.98 160.23 112.59 234.36 112.59 234.36 72.77"/></g><polygon class="cls-3" points="228.8 67.2 136.04 67.2 136.04 107.02 142.27 107.02 142.27 119.41 154.66 107.02 228.8 107.02 228.8 67.2"/><polygon class="cls-4" points="228.8 67.2 136.04 67.2 136.04 107.02 142.27 107.02 142.27 119.41 154.66 107.02 228.8 107.02 228.8 67.2"/><rect class="cls-12" x="180.33" y="47.73" width="4.17" height="66.73" rx="2.08" transform="translate(101.32 263.51) rotate(-90)"/><rect class="cls-13" x="180.33" y="59.03" width="4.17" height="66.73" rx="2.08" transform="translate(90.03 274.81) rotate(-90)"/><rect class="cls-14" x="198.71" y="125.21" width="74.18" height="106.76" rx="4.07" transform="translate(414.39 -57.21) rotate(90)"/><rect class="cls-15" x="185.6" y="144.68" width="100.39" height="67.82"/><rect class="cls-15" x="185.6" y="209.55" width="100.39" height="2.95"/><rect class="cls-16" x="185.6" y="150.98" width="100.39" height="58.57"/><rect class="cls-14" x="212.82" y="157.59" width="42.24" height="2.48" rx="1.15"/><rect class="cls-14" x="197.14" y="165.5" width="73.62" height="2.48" rx="1.15"/><rect class="cls-14" x="197.14" y="173.4" width="73.62" height="2.48" rx="1.15"/><rect class="cls-14" x="197.14" y="181.3" width="73.62" height="2.48" rx="1.15"/><rect class="cls-14" x="197.14" y="189.21" width="73.62" height="2.48" rx="1.15"/><rect class="cls-14" x="197.14" y="197.11" width="73.62" height="2.48" rx="1.15"/><polygon class="cls-14" points="242.28 215.68 225.61 215.68 222.88 230.89 245.01 230.89 242.28 215.68"/><g class="cls-10"><polygon class="cls-17" points="144.79 297.48 237.55 297.48 237.55 257.66 231.32 257.66 231.32 245.26 218.93 257.66 144.79 257.66 144.79 297.48"/><polygon class="cls-4" points="144.79 297.48 237.55 297.48 237.55 257.66 231.32 257.66 231.32 245.26 218.93 257.66 144.79 257.66 144.79 297.48"/></g><polygon class="cls-18" points="139.22 291.91 231.98 291.91 231.98 252.09 225.75 252.09 225.75 239.69 213.36 252.09 139.22 252.09 139.22 291.91"/><polygon class="cls-4" points="139.22 291.91 231.98 291.91 231.98 252.09 225.75 252.09 225.75 239.69 213.36 252.09 139.22 252.09 139.22 291.91"/><rect class="cls-14" x="183.52" y="232.6" width="4.17" height="66.73" rx="2.08" transform="matrix(0, -1, 1, 0, -80.37, 451.57)"/><rect class="cls-14" x="183.52" y="243.9" width="4.17" height="66.73" rx="2.08" transform="translate(-91.67 462.87) rotate(-90)"/><rect class="cls-19" x="185.6" y="144.68" width="100.39" height="67.82"/></g></g></g></svg>
