<svg xmlns="http://www.w3.org/2000/svg" xmlns:xlink="http://www.w3.org/1999/xlink" viewBox="0 0 350 350"><defs><style>.cls-1{isolation:isolate;}.cls-2{fill:#f4f0e6;}.cls-13,.cls-3,.cls-6{fill:none;}.cls-10,.cls-11,.cls-12,.cls-13,.cls-14,.cls-16,.cls-3,.cls-6,.cls-8,.cls-9{stroke:#000;}.cls-10,.cls-11,.cls-16,.cls-3,.cls-6,.cls-8{stroke-linecap:round;stroke-linejoin:round;}.cls-10,.cls-15,.cls-16,.cls-3,.cls-9{stroke-width:0.6px;}.cls-4{opacity:0.21;mix-blend-mode:multiply;}.cls-5{fill:gray;}.cls-5,.cls-7{opacity:0.85;}.cls-6,.cls-8{stroke-width:0.49px;}.cls-7{fill:url(#linear-gradient);}.cls-12,.cls-16,.cls-8{fill:#fff;}.cls-14,.cls-15,.cls-9{fill:#792ee5;}.cls-12,.cls-13,.cls-14,.cls-15,.cls-9{stroke-miterlimit:10;}.cls-10,.cls-11{fill:#feda7c;}.cls-11{stroke-width:0.63px;}.cls-12,.cls-13{stroke-width:0.5px;}.cls-14{stroke-width:0.73px;}.cls-15{stroke:#fff;}</style><linearGradient id="linear-gradient" x1="55.85" y1="164.72" x2="178.77" y2="164.72" gradientUnits="userSpaceOnUse"><stop offset="0" stop-color="#fff"/><stop offset="0" stop-color="#fffbf2"/><stop offset="0" stop-color="#fff2d3"/><stop offset="0" stop-color="#feebb7"/><stop offset="0" stop-color="#fee5a1"/><stop offset="0" stop-color="#fee090"/><stop offset="0" stop-color="#fedc85"/><stop offset="0" stop-color="#fedb7e"/><stop offset="0" stop-color="#feda7c"/><stop offset="0.34" stop-color="#d3a29e"/><stop offset="1" stop-color="#792ee5"/></linearGradient></defs><g class="cls-1"><g id="Layer_2" data-name="Layer 2"><g id="boundary_boxes" data-name="boundary boxes"><rect class="cls-2" width="350" height="350"/></g><g id="tabular_classifiication" data-name="tabular classifiication"><path class="cls-3" d="M257.83,187.49H215.06a6.19,6.19,0,0,0-6.22-4.81h-9.57a6.07,6.07,0,0,0-6.31,5.8v63.3h75.23V197C268.19,191.75,263.55,187.49,257.83,187.49Z"/><g class="cls-4"><rect class="cls-5" x="62.85" y="105.22" width="122.92" height="133.01" rx="6.85"/><rect class="cls-6" x="62.85" y="105.22" width="122.92" height="133.01" rx="6.85"/></g><rect class="cls-7" x="55.85" y="98.22" width="122.92" height="133.01" rx="6.85"/><rect class="cls-6" x="55.85" y="98.22" width="122.92" height="133.01" rx="6.85"/><rect class="cls-8" x="59.87" y="116.41" width="25.53" height="18.41"/><rect class="cls-8" x="89.69" y="116.41" width="25.53" height="18.41"/><rect class="cls-8" x="118.99" y="116.41" width="25.53" height="18.41"/><rect class="cls-8" x="148.8" y="116.41" width="25.53" height="18.41"/><rect class="cls-8" x="59.87" y="138.76" width="25.53" height="18.41"/><rect class="cls-8" x="89.69" y="138.76" width="25.53" height="18.41"/><rect class="cls-8" x="118.99" y="138.76" width="25.53" height="18.41"/><rect class="cls-8" x="148.8" y="138.76" width="25.53" height="18.41"/><rect class="cls-8" x="59.87" y="162.15" width="25.53" height="18.41"/><rect class="cls-8" x="89.69" y="162.15" width="25.53" height="18.41"/><rect class="cls-8" x="118.99" y="162.15" width="25.53" height="18.41"/><rect class="cls-8" x="148.8" y="162.15" width="25.53" height="18.41"/><rect class="cls-8" x="59.87" y="185.53" width="25.53" height="18.41"/><rect class="cls-8" x="89.69" y="185.53" width="25.53" height="18.41"/><rect class="cls-8" x="118.99" y="185.53" width="25.53" height="18.41"/><rect class="cls-8" x="148.8" y="185.53" width="25.53" height="18.41"/><rect class="cls-8" x="59.87" y="208.92" width="25.53" height="18.41"/><rect class="cls-8" x="89.69" y="208.92" width="25.53" height="18.41"/><rect class="cls-8" x="118.99" y="208.92" width="25.53" height="18.41"/><rect class="cls-8" x="148.8" y="208.92" width="25.53" height="18.41"/><rect class="cls-6" x="55.85" y="98.22" width="122.92" height="133.01" rx="6.85"/><rect class="cls-9" x="64.73" y="124.59" width="15.67" height="2.06"/><rect class="cls-9" x="98.61" y="124.59" width="7.18" height="2.06"/><rect class="cls-9" x="98.61" y="146.94" width="7.18" height="2.06"/><rect class="cls-9" x="98.61" y="170.02" width="7.18" height="2.06"/><rect class="cls-9" x="98.61" y="193.71" width="7.18" height="2.06"/><rect class="cls-9" x="98.61" y="217.1" width="7.18" height="2.06"/><rect class="cls-10" x="153.74" y="124.59" width="15.67" height="2.06"/><rect class="cls-10" x="153.74" y="146.94" width="15.67" height="2.06"/><rect class="cls-10" x="153.74" y="170.02" width="15.67" height="2.06"/><rect class="cls-10" x="153.74" y="193.71" width="15.67" height="2.06"/><rect class="cls-10" x="153.74" y="217.1" width="15.67" height="2.06"/><rect class="cls-9" x="64.73" y="146.94" width="15.67" height="2.06"/><rect class="cls-9" x="64.73" y="170.32" width="15.67" height="2.06"/><rect class="cls-9" x="64.73" y="193.71" width="15.67" height="2.06"/><rect class="cls-9" x="64.73" y="217.1" width="15.67" height="2.06"/><rect class="cls-11" x="250.38" y="156.73" width="49.54" height="47.67"/><rect class="cls-12" x="256.9" y="163.51" width="37.11" height="23.39" rx="2.51"/><line class="cls-13" x1="256.9" y1="167.53" x2="294.01" y2="167.53"/><line class="cls-13" x1="256.9" y1="182.87" x2="294.01" y2="182.87"/><circle class="cls-13" cx="259.55" cy="184.71" r="1.28"/><rect class="cls-13" x="259.96" y="168.89" width="30.25" height="1.07" rx="0.53"/><rect class="cls-13" x="259.96" y="176.57" width="11.5" height="1.07" rx="0.53"/><rect class="cls-13" x="259.96" y="179.72" width="11.5" height="1.07" rx="0.53"/><rect class="cls-13" x="278.71" y="171.73" width="11.5" height="1.07" rx="0.53"/><rect class="cls-13" x="266.38" y="171.73" width="10.5" height="1.42"/><line class="cls-13" x1="266.81" y1="171.73" x2="266.81" y2="173.14"/><line class="cls-13" x1="267.19" y1="171.73" x2="267.19" y2="173.14"/><line class="cls-13" x1="268.92" y1="171.73" x2="268.92" y2="173.14"/><line class="cls-13" x1="269.27" y1="171.73" x2="269.27" y2="173.14"/><line class="cls-13" x1="269.73" y1="171.73" x2="269.73" y2="173.14"/><line class="cls-13" x1="271.63" y1="171.73" x2="271.63" y2="173.14"/><line class="cls-13" x1="273.13" y1="171.73" x2="273.13" y2="173.14"/><line class="cls-13" x1="275.08" y1="171.73" x2="275.08" y2="173.14"/><line class="cls-13" x1="275.96" y1="171.73" x2="275.96" y2="173.14"/><line class="cls-13" x1="275.73" y1="171.73" x2="275.73" y2="173.14"/><line class="cls-13" x1="275.41" y1="171.73" x2="275.41" y2="173.14"/><rect class="cls-10" x="267.03" y="190.82" width="15.67" height="2.06"/><rect class="cls-14" x="199.99" y="134.82" width="47.33" height="70.63"/><path class="cls-12" d="M229.86,161.4l-3.56-2.27-.78-3.83-4,.08-.79,3.83-1.69,1.09-1.88,1.2h0c-3.39,2.12-5.64,6.56-5.64,14.79h24.22C235.76,168,233.39,163.52,229.86,161.4Z"/><ellipse class="cls-12" cx="215.4" cy="147.9" rx="1.35" ry="1.81" transform="matrix(0.95, -0.3, 0.3, 0.95, -34.41, 71.33)"/><ellipse class="cls-12" cx="231.9" cy="147.9" rx="1.81" ry="1.35" transform="matrix(0.3, -0.95, 0.95, 0.3, 21.32, 324.84)"/><path class="cls-12" d="M215.4,147.44c0,5.15,4.25,9.33,8.25,9.33,3.51,0,8.25-4.18,8.25-9.33a8.36,8.36,0,0,0-8.35-8.72C219,138.72,215.4,142.28,215.4,147.44Z"/><path class="cls-12" d="M219.4,160.08a4.89,4.89,0,0,0,4.15,2.38c2.5,0,4.15-2.38,4.15-2.38"/><circle class="cls-9" cx="131.76" cy="125.62" r="2.71"/><circle class="cls-9" cx="131.76" cy="147.97" r="2.71"/><circle class="cls-9" cx="131.76" cy="172.21" r="2.71"/><circle class="cls-9" cx="131.76" cy="194.56" r="2.71"/><circle class="cls-9" cx="131.76" cy="218.13" r="2.71"/><rect class="cls-15" x="215.41" y="180.76" width="15.67" height="2.06"/><rect class="cls-15" x="219.65" y="188.42" width="7.18" height="2.06"/><circle class="cls-15" cx="223.24" cy="197.27" r="2.71"/><path class="cls-16" d="M266.71,198.25h-53c-6.21,0-11.89,3.84-12.69,8.58l-7.57,44.95H269l7.56-44.94C277.31,202.1,272.92,198.25,266.71,198.25Z"/></g></g></g></svg>
