<svg xmlns="http://www.w3.org/2000/svg" xmlns:xlink="http://www.w3.org/1999/xlink" viewBox="0 0 350 350"><defs><style>.cls-1,.cls-15,.cls-7{fill:#f4f0e6;}.cls-17,.cls-2,.cls-5{fill:#feda7c;}.cls-3{fill:none;}.cls-10,.cls-11,.cls-12,.cls-13,.cls-14,.cls-15,.cls-16,.cls-17,.cls-3,.cls-4,.cls-5,.cls-6,.cls-7,.cls-8,.cls-9{stroke:#000;stroke-linecap:round;stroke-linejoin:round;}.cls-10,.cls-11,.cls-3,.cls-4,.cls-5,.cls-6,.cls-7,.cls-8,.cls-9{stroke-width:0.52px;}.cls-12,.cls-4{fill:#fff;}.cls-16,.cls-6{fill:#792ee5;}.cls-10,.cls-11,.cls-13,.cls-14,.cls-8,.cls-9{fill-opacity:0.85;}.cls-8{fill:url(#linear-gradient);}.cls-9{fill:url(#linear-gradient-2);}.cls-10{fill:url(#linear-gradient-3);}.cls-11{fill:url(#linear-gradient-4);}.cls-12,.cls-13,.cls-14,.cls-15,.cls-16,.cls-17{stroke-width:0.6px;}.cls-13{fill:url(#linear-gradient-5);}.cls-14{fill:url(#linear-gradient-6);}</style><linearGradient id="linear-gradient" x1="223.62" y1="257.42" x2="268.91" y2="231.27" gradientUnits="userSpaceOnUse"><stop offset="0" stop-color="#fff"/><stop offset="0" stop-color="#fffbf2"/><stop offset="0" stop-color="#fff2d3"/><stop offset="0" stop-color="#feebb7"/><stop offset="0" stop-color="#fee5a1"/><stop offset="0" stop-color="#fee090"/><stop offset="0" stop-color="#fedc85"/><stop offset="0" stop-color="#fedb7e"/><stop offset="0" stop-color="#feda7c"/><stop offset="0.03" stop-color="#fad57f"/><stop offset="1" stop-color="#792ee5"/></linearGradient><linearGradient id="linear-gradient-2" x1="258.01" y1="227.72" x2="279.07" y2="215.56" xlink:href="#linear-gradient"/><linearGradient id="linear-gradient-3" x1="258.01" y1="233.02" x2="279.07" y2="220.86" gradientUnits="userSpaceOnUse"><stop offset="0" stop-color="#792ee5"/><stop offset="0.97" stop-color="#fad57f"/><stop offset="1" stop-color="#feda7c"/><stop offset="1" stop-color="#fedb7e"/><stop offset="1" stop-color="#fedc85"/><stop offset="1" stop-color="#fee090"/><stop offset="1" stop-color="#fee5a1"/><stop offset="1" stop-color="#feebb7"/><stop offset="1" stop-color="#fff2d3"/><stop offset="1" stop-color="#fffbf2"/><stop offset="1" stop-color="#fff"/></linearGradient><linearGradient id="linear-gradient-4" x1="226.34" y1="262.13" x2="272.65" y2="235.38" xlink:href="#linear-gradient"/><linearGradient id="linear-gradient-5" x1="80.4" y1="114.58" x2="177.88" y2="58.3" xlink:href="#linear-gradient"/><linearGradient id="linear-gradient-6" x1="80.4" y1="137.68" x2="177.88" y2="81.4" xlink:href="#linear-gradient-3"/></defs><g id="Layer_2" data-name="Layer 2"><g id="boundary_boxes" data-name="boundary boxes"><rect class="cls-1" width="350" height="350"/></g><g id="text_classification" data-name="text classification"><g id="front_folders" data-name="front folders"><path class="cls-2" d="M262.61,176.18H238.74a3.45,3.45,0,0,0-3.47-2.69h-5.34a3.39,3.39,0,0,0-3.52,3.24v35.32h42V181.49A5.56,5.56,0,0,0,262.61,176.18Z"/><path class="cls-3" d="M262.61,176.18H238.74a3.45,3.45,0,0,0-3.47-2.69h-5.34a3.39,3.39,0,0,0-3.52,3.24v35.32h42V181.49A5.56,5.56,0,0,0,262.61,176.18Z"/><rect class="cls-4" x="250.94" y="167.11" width="35.19" height="12.76"/><rect class="cls-5" x="255.45" y="170.47" width="26.18" height="2.05" rx="1.02"/><rect class="cls-5" x="255.45" y="174.71" width="26.18" height="2.05" rx="1.02"/><path class="cls-5" d="M267.27,182.18H237.72c-3.47,0-6.64,2.15-7.09,4.79l-4.22,25.08h42.11L272.74,187C273.19,184.33,270.74,182.18,267.27,182.18Z"/><path class="cls-6" d="M262.76,127.23H238.89a3.45,3.45,0,0,0-3.47-2.69h-5.33a3.39,3.39,0,0,0-3.53,3.24V163.1h42V132.54A5.56,5.56,0,0,0,262.76,127.23Z"/><rect class="cls-4" x="249.6" y="116.11" width="35.19" height="15.56"/><rect class="cls-6" x="254.15" y="127.51" width="26.09" height="1.58" rx="0.79"/><rect class="cls-6" x="254.15" y="122.83" width="26.09" height="1.58" rx="0.79"/><rect class="cls-6" x="261.77" y="118.15" width="18.48" height="1.58" rx="0.79"/><path class="cls-6" d="M267.43,133.25H237.87c-3.47,0-6.64,2.14-7.09,4.79l-4.22,25.08h42.12L272.9,138C273.34,135.4,270.89,133.25,267.43,133.25Z"/><path class="cls-7" d="M262.76,76.9H238.89a3.45,3.45,0,0,0-3.47-2.69h-5.33a3.39,3.39,0,0,0-3.53,3.24v35.32h42V82.21A5.56,5.56,0,0,0,262.76,76.9Z"/><rect class="cls-4" x="249.6" y="67.9" width="35.19" height="12.63"/><rect class="cls-7" x="252.67" y="76.27" width="29.27" height="1.77" rx="0.89"/><rect class="cls-7" x="252.67" y="70.27" width="7.01" height="1.77" rx="0.89"/><rect class="cls-7" x="274.93" y="72.7" width="7.01" height="1.77" rx="0.89"/><path class="cls-7" d="M267.43,82.91H237.87c-3.47,0-6.64,2.15-7.09,4.79l-4.22,25.08h42.12L272.9,87.7C273.34,85.05,270.89,82.91,267.43,82.91Z"/><path class="cls-8" d="M262.61,226.38H238.74a3.45,3.45,0,0,0-3.47-2.69h-5.34a3.39,3.39,0,0,0-3.52,3.24v35.32h42V231.69A5.56,5.56,0,0,0,262.61,226.38Z"/><rect class="cls-4" x="250.94" y="217.75" width="35.19" height="12.76"/><rect class="cls-9" x="254.66" y="220.74" width="27.77" height="1.79" rx="0.87"/><rect class="cls-10" x="254.66" y="226.05" width="27.77" height="1.79" rx="0.87"/><path class="cls-11" d="M267.27,232.39H237.72c-3.47,0-6.64,2.14-7.09,4.79l-4.22,25.07h42.11l4.22-25.08C273.19,234.53,270.74,232.39,267.27,232.39Z"/></g><rect class="cls-12" x="51.29" y="69.07" width="155.81" height="194.21"/><rect class="cls-13" x="64.76" y="82.54" width="128.77" height="7.8" rx="3.9"/><rect class="cls-14" x="64.76" y="105.64" width="128.77" height="7.8" rx="3.9"/><rect class="cls-15" x="64.76" y="221.13" width="128.77" height="7.8" rx="3.9"/><rect class="cls-16" x="64.76" y="174.93" width="128.77" height="7.8" rx="3.9"/><rect class="cls-15" x="64.76" y="128.74" width="30.83" height="7.8" rx="3.9"/><rect class="cls-15" x="162.69" y="198.03" width="30.83" height="7.8" rx="3.9"/><rect class="cls-17" x="64.76" y="198.03" width="93.38" height="7.8" rx="3.9"/><rect class="cls-17" x="64.76" y="244.23" width="128.77" height="7.8" rx="3.9"/><rect class="cls-16" x="64.76" y="151.83" width="128.77" height="7.8" rx="3.9"/><rect class="cls-16" x="102.32" y="128.74" width="91.2" height="7.8" rx="3.9"/></g></g></svg>
