<svg xmlns="http://www.w3.org/2000/svg" xmlns:xlink="http://www.w3.org/1999/xlink" viewBox="0 0 350 350"><defs><style>.cls-1{isolation:isolate;}.cls-2{fill:#f4f0e6;}.cls-3,.cls-5,.cls-9{fill:none;}.cls-11,.cls-12,.cls-15,.cls-3,.cls-5,.cls-9{stroke-linecap:round;}.cls-3,.cls-5{stroke-miterlimit:10;stroke-width:1.19px;}.cls-3{stroke:url(#linear-gradient);}.cls-4{fill:url(#linear-gradient-2);}.cls-5{stroke:url(#linear-gradient-3);}.cls-6{fill:url(#linear-gradient-4);}.cls-7{opacity:0.16;mix-blend-mode:multiply;}.cls-13,.cls-8{fill:gray;}.cls-11,.cls-12,.cls-15,.cls-9{stroke:#000;stroke-linejoin:round;stroke-width:0.72px;}.cls-10,.cls-15{fill:#fff;}.cls-11,.cls-12{fill-opacity:0.85;}.cls-11{fill:url(#linear-gradient-5);}.cls-12{fill:url(#linear-gradient-6);}.cls-13,.cls-14{opacity:0.85;}.cls-14{fill:url(#New_Gradient_Swatch);}</style><linearGradient id="linear-gradient" x1="243.19" y1="142.84" x2="263.42" y2="144.03" gradientUnits="userSpaceOnUse"><stop offset="0" stop-color="#fff"/><stop offset="0" stop-color="#fffbf2"/><stop offset="0" stop-color="#fff2d3"/><stop offset="0" stop-color="#feebb7"/><stop offset="0" stop-color="#fee5a1"/><stop offset="0" stop-color="#fee090"/><stop offset="0" stop-color="#fedc85"/><stop offset="0" stop-color="#fedb7e"/><stop offset="0" stop-color="#feda7c"/><stop offset="0.09" stop-color="#e6bb8f"/><stop offset="0.24" stop-color="#c590a9"/><stop offset="0.39" stop-color="#aa6dbf"/><stop offset="0.54" stop-color="#9451cf"/><stop offset="0.69" stop-color="#853edb"/><stop offset="0.84" stop-color="#7c32e3"/><stop offset="1" stop-color="#792ee5"/></linearGradient><linearGradient id="linear-gradient-2" x1="242.75" y1="150.19" x2="262.99" y2="151.38" xlink:href="#linear-gradient"/><linearGradient id="linear-gradient-3" x1="115.15" y1="212.22" x2="94.91" y2="211.03" xlink:href="#linear-gradient"/><linearGradient id="linear-gradient-4" x1="115.58" y1="204.88" x2="95.34" y2="203.69" xlink:href="#linear-gradient"/><linearGradient id="linear-gradient-5" x1="156.89" y1="91.79" x2="130.31" y2="137.82" gradientTransform="translate(258.41 -28.79) rotate(90)" gradientUnits="userSpaceOnUse"><stop offset="0" stop-color="#fff"/><stop offset="0" stop-color="#fffbf2"/><stop offset="0" stop-color="#fff2d3"/><stop offset="0" stop-color="#feebb7"/><stop offset="0" stop-color="#fee5a1"/><stop offset="0" stop-color="#fee090"/><stop offset="0" stop-color="#fedc85"/><stop offset="0" stop-color="#fedb7e"/><stop offset="0" stop-color="#feda7c"/><stop offset="0.03" stop-color="#fad57f"/><stop offset="1" stop-color="#792ee5"/></linearGradient><linearGradient id="linear-gradient-6" x1="156.89" y1="108.73" x2="130.31" y2="154.76" gradientTransform="translate(275.34 -11.86) rotate(90)" gradientUnits="userSpaceOnUse"><stop offset="0" stop-color="#fff"/><stop offset="0" stop-color="#fffbf2"/><stop offset="0" stop-color="#fff2d3"/><stop offset="0" stop-color="#feebb7"/><stop offset="0" stop-color="#fee5a1"/><stop offset="0" stop-color="#fee090"/><stop offset="0" stop-color="#fedc85"/><stop offset="0" stop-color="#fedb7e"/><stop offset="0" stop-color="#feda7c"/><stop offset="0.07" stop-color="#e3b792"/><stop offset="0.15" stop-color="#c792a8"/><stop offset="0.24" stop-color="#ae73bb"/><stop offset="0.34" stop-color="#9b5aca"/><stop offset="0.44" stop-color="#8c46d6"/><stop offset="0.57" stop-color="#8138df"/><stop offset="0.72" stop-color="#7b30e4"/><stop offset="1" stop-color="#792ee5"/></linearGradient><linearGradient id="New_Gradient_Swatch" x1="147.55" y1="255.99" x2="272.47" y2="183.87" gradientUnits="userSpaceOnUse"><stop offset="0" stop-color="#fff"/><stop offset="0" stop-color="#fffbf2"/><stop offset="0" stop-color="#fff2d3"/><stop offset="0" stop-color="#feebb7"/><stop offset="0" stop-color="#fee5a1"/><stop offset="0" stop-color="#fee090"/><stop offset="0" stop-color="#fedc85"/><stop offset="0" stop-color="#fedb7e"/><stop offset="0" stop-color="#feda7c"/><stop offset="0.04" stop-color="#f7d182"/><stop offset="0.29" stop-color="#ca97a5"/><stop offset="0.51" stop-color="#a76ac1"/><stop offset="0.72" stop-color="#8e49d4"/><stop offset="0.89" stop-color="#7f35e1"/><stop offset="1" stop-color="#792ee5"/></linearGradient></defs><g class="cls-1"><g id="Layer_2" data-name="Layer 2"><g id="boundary_boxes" data-name="boundary boxes"><rect class="cls-2" width="350" height="350"/></g><g id="semantic_segmentation" data-name="semantic segmentation"><path class="cls-3" d="M244.41,132.11s7.45-.68,14.11,8.66c3.64,5.12,3.81,11.31,3.67,14"/><path class="cls-4" d="M257.17,146.21a.59.59,0,0,1,.8.25l4.24,8.08,5.53-7.25a.58.58,0,0,1,.83-.12.61.61,0,0,1,.12.84l-6.1,8a.6.6,0,0,1-.53.23.62.62,0,0,1-.48-.32L256.92,147a.52.52,0,0,1-.07-.32A.6.6,0,0,1,257.17,146.21Z"/><path class="cls-5" d="M113.92,223s-7.45.68-14.11-8.66C96.17,209.18,96,203,96.14,200.25"/><path class="cls-6" d="M101.16,208.86a.59.59,0,0,1-.8-.25l-4.23-8.08-5.54,7.25a.59.59,0,0,1-.94-.72l6.09-8a.61.61,0,0,1,.53-.23.59.59,0,0,1,.48.31l4.67,8.91a.65.65,0,0,1,.06.33A.59.59,0,0,1,101.16,208.86Z"/></g><g id="translation"><g class="cls-7"><path class="cls-8" d="M215.35,102.32H88.55a6.13,6.13,0,0,0-6.13,6.13v47.44A6.12,6.12,0,0,0,88.55,162h3.21V180.6L110.33,162h105a6.12,6.12,0,0,0,6.12-6.13V108.45A6.13,6.13,0,0,0,215.35,102.32Z"/><path class="cls-9" d="M215.35,102.32H88.55a6.13,6.13,0,0,0-6.13,6.13v47.44A6.12,6.12,0,0,0,88.55,162h3.21V180.6L110.33,162h105a6.12,6.12,0,0,0,6.12-6.13V108.45A6.13,6.13,0,0,0,215.35,102.32Z"/></g><path class="cls-10" d="M207,94H80.2a6.14,6.14,0,0,0-6.13,6.13v47.45a6.13,6.13,0,0,0,6.13,6.12h3.21v18.58L102,153.67H207a6.13,6.13,0,0,0,6.13-6.12V100.1A6.14,6.14,0,0,0,207,94Z"/><path class="cls-9" d="M207,94H80.2a6.14,6.14,0,0,0-6.13,6.13v47.45a6.13,6.13,0,0,0,6.13,6.12h3.21v18.58L102,153.67H207a6.13,6.13,0,0,0,6.13-6.12V100.1A6.14,6.14,0,0,0,207,94Z"/><rect class="cls-11" x="140.48" y="64.78" width="6.25" height="100.04" rx="3.12" transform="translate(28.79 258.41) rotate(-90)"/><rect class="cls-12" x="140.48" y="81.72" width="6.25" height="100.04" rx="3.12" transform="translate(11.86 275.34) rotate(-90)"/><g class="cls-7"><path class="cls-13" d="M153.45,192.18H276a8.22,8.22,0,0,1,8.23,8.23v43.23a8.23,8.23,0,0,1-8.23,8.24h-1.1v18.57l-18.58-18.57H153.45a8.24,8.24,0,0,1-8.23-8.24V200.41A8.23,8.23,0,0,1,153.45,192.18Z"/><path class="cls-9" d="M153.45,192.18H276a8.22,8.22,0,0,1,8.23,8.23v43.23a8.23,8.23,0,0,1-8.23,8.24h-1.1v18.57l-18.58-18.57H153.45a8.24,8.24,0,0,1-8.23-8.24V200.41A8.23,8.23,0,0,1,153.45,192.18Z"/></g><path class="cls-14" d="M145.11,183.83H267.69a8.24,8.24,0,0,1,8.24,8.23v43.23a8.24,8.24,0,0,1-8.24,8.24h-1.1v18.58L248,243.53H145.11a8.24,8.24,0,0,1-8.24-8.24V192.06A8.24,8.24,0,0,1,145.11,183.83Z"/><path class="cls-9" d="M145.11,183.83H267.69a8.24,8.24,0,0,1,8.24,8.23v43.23a8.24,8.24,0,0,1-8.24,8.24h-1.1v18.58L248,243.53H145.11a8.24,8.24,0,0,1-8.24-8.24V192.06A8.24,8.24,0,0,1,145.11,183.83Z"/><rect class="cls-15" x="203.28" y="154.64" width="6.25" height="100.04" rx="3.12" transform="translate(1.74 411.06) rotate(-90)"/><rect class="cls-15" x="203.28" y="171.58" width="6.25" height="100.04" rx="3.12" transform="translate(-15.2 428) rotate(-90)"/></g></g></g></svg>
