<svg xmlns="http://www.w3.org/2000/svg" viewBox="0 0 1579 312.4"><defs><style>.cls-1{fill:#363c41;stroke:#fff;stroke-miterlimit:10;stroke-width:2px;}.cls-1,.cls-2{fill-rule:evenodd;}.cls-2{fill:#792ee5;}</style></defs><g id="Layer_2" data-name="Layer 2"><g id="Layer_1-2" data-name="Layer 1"><g id="Layer_2-2" data-name="Layer 2"><g id="Layer_1-2-2" data-name="Layer 1-2"><g id="mask0"><path class="cls-1" d="M1203.1,216H1182V89h75v21.1h-53.9V134H1242v22h-38.9ZM1287,89h-23V216h23Zm239.7,40.3a32,32,0,0,1,15.2-3.5c10.7,0,19.5,3.3,26.1,9.7s10,15.6,10,27.2V216h-22.1V165.1a20.15,20.15,0,0,0-4.8-13.5c-3.2-3.6-7.7-5.4-13.7-5.4s-10.6,1.8-14.1,5.5-5.2,8.8-5.2,15V216H1496V89h22.1v46.4A39.52,39.52,0,0,1,1526.7,129.3Zm-153.2,86.8v-5.9a48.47,48.47,0,0,1-45.7,4.6,44.11,44.11,0,0,1-23.9-24.1,44.47,44.47,0,0,1-3.4-17.3,44.94,44.94,0,0,1,3.5-17.3,47.76,47.76,0,0,1,9.6-14.4,45.2,45.2,0,0,1,14.6-9.8,47.24,47.24,0,0,1,45.4,4.8v-8.3h21.9V216Zm-2.4-42.6a24.32,24.32,0,0,1-7.2,17.6,23.88,23.88,0,0,1-33.8.8,6,6,0,0,1-.8-.8,24.32,24.32,0,0,1-7.2-17.6,23.83,23.83,0,0,1,7.2-17.8,24.5,24.5,0,0,1,34.7,0A24.93,24.93,0,0,1,1371.1,173.5Zm112,18.2v2.4a22.09,22.09,0,0,1-11.4,17.9q-10.2,6-25.5,6c-15.1,0-25.7-2.4-31.7-7.3-5.6-4.4-8.4-11-8.4-19.6v-1.9h21c0,4.8,1.4,8.2,4.3,10s7.8,2.7,14.8,2.7c9.5,0,14.3-3.1,14.3-9.2,0-5.1-1.7-8.5-5-10.1a19.44,19.44,0,0,0-5.9-1.9l-18-2.7c-15.7-2.2-23.5-10.9-23.5-26.1,0-8.5,3.4-15,10.3-19.6s15.9-7.1,26.6-7.1c24.4,0,36.5,9.3,36.5,28v2.1h-20.2c-.2-5-1.7-8.3-4.4-10.1s-6.6-2.7-11.6-2.7-8.5.9-11,2.7-3.7,3.6-3.7,5.7c0,6,2.7,9.4,8.2,10.3l21.6,3.5c15,2.3,22.6,11.4,22.7,27ZM457.2,90h21.5v21.4H457.2ZM361,90h22.3V195.3h56.9v20.9H361Zm117.7,38.1H457.2v88.1h21.5Zm74.5,1.3a41.56,41.56,0,0,1,9.2,5.7h0v-7h21.5v86.3c0,11.5-3.8,21-11.1,28s-17.8,10.7-31,10.7a58.73,58.73,0,0,1-19.9-3.5,45.35,45.35,0,0,1-17-11l-.3-.4-6.7-16.9h22.5l.3.7a18.31,18.31,0,0,0,7.9,8.6c3.5,1.9,8,2.9,13.5,2.9,6,0,10.9-1.8,14.7-5.2s5.7-8.6,5.7-15.5v-5.1a37,37,0,0,1-9.2,5.4,38.52,38.52,0,0,1-14.2,2.7,44.73,44.73,0,0,1-17.7-3.5,41.75,41.75,0,0,1-13.9-9.6,45.51,45.51,0,0,1-9-14.3,46.66,46.66,0,0,1-3.3-17.3,43.5,43.5,0,0,1,3.4-17.1,41.75,41.75,0,0,1,9.3-14.1,46.55,46.55,0,0,1,14-9.6,42.57,42.57,0,0,1,17.3-3.6,32.66,32.66,0,0,1,14,2.7ZM564,171a23.37,23.37,0,0,0-6.9-17.3,24,24,0,0,0-33.5,0,24,24,0,0,0-6.7,17.3,24.82,24.82,0,0,0,6.7,17.4,21.41,21.41,0,0,0,16.8,7.2,21.74,21.74,0,0,0,16.8-7.2A24.48,24.48,0,0,0,564,171Zm84-44.4a30.74,30.74,0,0,0-14.8,3.5,33.23,33.23,0,0,0-8.3,6V90H603.4V216.2h21.5v-49c0-6.2,1.7-11.2,5-14.9s7.8-5.5,13.7-5.5,10.2,1.8,13.3,5.4a20.5,20.5,0,0,1,4.7,13.4v50.6h21.5v-53c0-11.5-3.2-20.6-9.7-27s-15.1-9.6-25.4-9.6Zm63.3-20.4L731,98.9h0v29.2h23.5V147H731v37.9c0,4.2,1.1,7.4,3.3,9.5a12.06,12.06,0,0,0,8.7,3.2h8.8v18.6l-1.2.1c-1.2.1-2.7.2-4.6.3s-3.9.1-6,.1c-8.5,0-15.8-2.5-21.6-7.5s-8.9-12.5-8.9-22.1V147H692.2V128.1h19.2ZM895.5,90H874v21.4h21.5ZM874,128.1h21.5v88.1H874Zm206.2,0v7a41.56,41.56,0,0,0-9.2-5.7,36.91,36.91,0,0,0-14.3-2.9,44.94,44.94,0,0,0-17.3,3.5,46.25,46.25,0,0,0-14,9.5,43.8,43.8,0,0,0-9.3,14.1,44.24,44.24,0,0,0-3.3,17.2,46.79,46.79,0,0,0,3.3,17.4,44.41,44.41,0,0,0,9,14.3,41.75,41.75,0,0,0,13.9,9.6,43,43,0,0,0,17.7,3.5,36.24,36.24,0,0,0,14.2-2.7,40.4,40.4,0,0,0,9.2-5.4v5.1c0,6.8-1.9,12-5.7,15.5s-8.8,5.2-14.7,5.2a29.41,29.41,0,0,1-13.5-2.8,18.31,18.31,0,0,1-7.9-8.6l-.3-.7h-22.5l6.7,16.9.3.4a46.6,46.6,0,0,0,17,11,58.73,58.73,0,0,0,19.9,3.5c13.2,0,23.7-3.6,31-10.7s11.1-16.5,11.1-28V128h-21.3Zm1.6,42.9a24.48,24.48,0,0,1-6.8,17.4,21.55,21.55,0,0,1-16.8,7.2,21.89,21.89,0,0,1-16.8-7.2,24.82,24.82,0,0,1-6.7-17.4c0-6.9,2.2-12.8,6.7-17.3a22.55,22.55,0,0,1,16.8-6.8,23.1,23.1,0,0,1,16.7,6.8,23.37,23.37,0,0,1,6.9,17.3ZM918.3,149.6h21.5V217H918.3Zm21.5-21.5v21.4h16.6a20.06,20.06,0,0,1,20,20V217h21.5V164.7a36.62,36.62,0,0,0-36.6-36.6H939.8ZM773,149.6h21.5V217H773Zm21.5-21.5v21.4h16.6a20.06,20.06,0,0,1,20,20V217h21.5V164.7A36.62,36.62,0,0,0,816,128.1H794.5Z"/></g><path class="cls-2" d="M0,78.1,135,0,270,78.1V234.3L135,312.4,0,234.3Zm61,70.6H75.9v14.9H61ZM120.4,119H105.5v14.9h14.9Zm-14.8,59.4h14.9v14.9H105.6Zm104-29.7H135.3v14.9h74.3ZM135.3,119h74.3v14.9H135.3Zm74.3,59.4H135.3v14.9h74.3ZM90.7,148.7h29.7v14.9H90.7Z"/></g></g></g></g></svg>
