<?xml version="1.0" encoding="utf-8"?>
<!-- Generator: Adobe Illustrator 25.0.0, SVG Export Plug-In . SVG Version: 6.00 Build 0)  -->
<svg version="1.1" id="Layer_1" xmlns="http://www.w3.org/2000/svg" xmlns:xlink="http://www.w3.org/1999/xlink" x="0px" y="0px"
	 viewBox="0 0 1578 312.5" style="enable-background:new 0 0 1578 312.5;" xml:space="preserve">
<style type="text/css">
	.st0{fill:none;stroke:#FFFFFF;stroke-miterlimit:10;}
	.st1{fill-rule:evenodd;clip-rule:evenodd;fill:#363C41;stroke:#FFFFFF;stroke-width:2;stroke-miterlimit:10;}
	.st2{fill-rule:evenodd;clip-rule:evenodd;fill:#792EE5;}
</style>
<g id="Layer_2_1_">
	<g id="Layer_1-2">
		<rect x="-102" y="-94" class="st0" width="1877" height="500"/>
		<g>
			<g id="mask0">
				<path class="st1" d="M1203.1,216H1182V89h75v21.1h-53.9V134h38.9v22h-38.9V216z M1287,89h-23v127h23V89z M1526.7,129.3
					c4.7-2.4,9.9-3.6,15.2-3.5c10.7,0,19.5,3.3,26.1,9.7s10,15.6,10,27.2V216h-22.1v-50.9c0.1-4.9-1.6-9.8-4.8-13.5
					c-3.2-3.6-7.7-5.4-13.7-5.4s-10.6,1.8-14.1,5.5s-5.2,8.8-5.2,15V216H1496V89h22.1v46.4C1520.7,133,1523.6,130.9,1526.7,129.3z
					 M1373.5,216.1v-5.9c-7.9,5.5-17.4,8.4-27,8.3c-6.4,0.1-12.8-1.2-18.7-3.7c-5.4-2.3-10.3-5.6-14.5-9.8c-4-4.1-7.2-9-9.4-14.3
					c-2.3-5.5-3.4-11.3-3.4-17.3c0-5.9,1.2-11.8,3.5-17.3c2.3-5.3,5.5-10.2,9.6-14.4c4.2-4.2,9.1-7.5,14.6-9.8
					c14.9-6.3,32.1-4.5,45.4,4.8v-8.3h21.9v87.6L1373.5,216.1z M1371.1,173.5c0.1,6.6-2.5,12.9-7.2,17.6c-9.1,9.6-24.2,9.9-33.8,0.8
					c-0.3-0.3-0.6-0.5-0.8-0.8c-4.7-4.7-7.3-11-7.2-17.6c-0.2-6.7,2.4-13.1,7.2-17.8c9.6-9.6,25.1-9.6,34.7,0
					C1368.6,160.4,1371.2,166.8,1371.1,173.5z M1483.1,191.7v2.4c-0.5,7.5-4.8,14.3-11.4,17.9c-6.8,4-15.3,6-25.5,6
					c-15.1,0-25.7-2.4-31.7-7.3c-5.6-4.4-8.4-11-8.4-19.6v-1.9h21c0,4.8,1.4,8.2,4.3,10s7.8,2.7,14.8,2.7c9.5,0,14.3-3.1,14.3-9.2
					c0-5.1-1.7-8.5-5-10.1c-1.8-0.9-3.8-1.6-5.9-1.9l-18-2.7c-15.7-2.2-23.5-10.9-23.5-26.1c0-8.5,3.4-15,10.3-19.6
					c7-4.7,15.9-7.1,26.6-7.1c24.4,0,36.5,9.3,36.5,28v2.1h-20.2c-0.2-5-1.7-8.3-4.4-10.1c-2.7-1.8-6.6-2.7-11.6-2.7
					c-4.9,0-8.5,0.9-11,2.7c-2.5,1.7-3.7,3.6-3.7,5.7c0,6,2.7,9.4,8.2,10.3l21.6,3.5C1475.4,167,1483,176.1,1483.1,191.7
					L1483.1,191.7z M457.2,90h21.5v21.4h-21.5V90z M361,90h22.3v105.3h56.9v20.9H361V90z M478.7,128.1h-21.5v88.1h21.5V128.1z
					 M553.2,129.4c3.3,1.5,6.4,3.4,9.2,5.7l0,0v-7h21.5v86.3c0,11.5-3.8,21-11.1,28s-17.8,10.7-31,10.7c-6.8,0-13.5-1.2-19.9-3.5
					c-6.4-2.3-12.2-6.1-17-11l-0.3-0.4l-6.7-16.9h22.5l0.3,0.7c1.6,3.6,4.4,6.7,7.9,8.6c3.5,1.9,8,2.9,13.5,2.9
					c6,0,10.9-1.8,14.7-5.2s5.7-8.6,5.7-15.5v-5.1c-2.8,2.2-5.9,4.1-9.2,5.4c-4.5,1.8-9.4,2.7-14.2,2.7c-6.1,0.1-12.1-1.2-17.7-3.5
					c-5.2-2.2-10-5.5-13.9-9.6c-3.9-4.2-6.9-9-9-14.3c-2.2-5.5-3.3-11.4-3.3-17.3c0-5.9,1.1-11.7,3.4-17.1
					c2.1-5.3,5.3-10.1,9.3-14.1c4-4,8.8-7.3,14-9.6c5.4-2.4,11.3-3.6,17.3-3.6C543.9,126.5,548.7,127.5,553.2,129.4L553.2,129.4z
					 M564,171c0.2-6.5-2.3-12.7-6.9-17.3c-4.4-4.5-10.4-6.9-16.7-6.8c-6.3-0.2-12.4,2.3-16.8,6.8c-4.4,4.5-6.7,10.4-6.7,17.3
					c-0.1,6.5,2.3,12.7,6.7,17.4c4.2,4.8,10.4,7.4,16.8,7.2c6.4,0.2,12.6-2.5,16.8-7.2C561.7,183.7,564.1,177.5,564,171z M648,126.6
					c-5.1-0.1-10.2,1.1-14.8,3.5c-3.1,1.6-5.9,3.6-8.3,6V90h-21.5v126.2h21.5v-49c0-6.2,1.7-11.2,5-14.9s7.8-5.5,13.7-5.5
					s10.2,1.8,13.3,5.4c3.1,3.8,4.8,8.5,4.7,13.4v50.6h21.5v-53c0-11.5-3.2-20.6-9.7-27S658.3,126.6,648,126.6L648,126.6z
					 M711.3,106.2l19.7-7.3l0,0v29.2h23.5V147H731v37.9c0,4.2,1.1,7.4,3.3,9.5c2.3,2.2,5.5,3.3,8.7,3.2h8.8v18.6l-1.2,0.1
					c-1.2,0.1-2.7,0.2-4.6,0.3s-3.9,0.1-6,0.1c-8.5,0-15.8-2.5-21.6-7.5s-8.9-12.5-8.9-22.1V147h-17.3v-18.9h19.2L711.3,106.2z
					 M895.5,90H874v21.4h21.5L895.5,90z M874,128.1h21.5v88.1H874V128.1z M1080.2,128.1v7c-2.8-2.3-5.9-4.2-9.2-5.7
					c-4.5-1.9-9.4-2.9-14.3-2.9c-5.9,0-11.8,1.2-17.3,3.5c-5.2,2.3-10,5.5-14,9.5c-4,4.1-7.2,8.9-9.3,14.1
					c-2.2,5.5-3.4,11.3-3.3,17.2c0,6,1.1,11.9,3.3,17.4c2.1,5.3,5.1,10.2,9,14.3c3.9,4.1,8.7,7.4,13.9,9.6
					c5.6,2.4,11.6,3.6,17.7,3.5c4.9,0.1,9.7-0.9,14.2-2.7c3.3-1.4,6.4-3.2,9.2-5.4v5.1c0,6.8-1.9,12-5.7,15.5s-8.8,5.2-14.7,5.2
					c-5.5,0-10-1-13.5-2.8c-3.5-1.9-6.3-5-7.9-8.6l-0.3-0.7h-22.5l6.7,16.9l0.3,0.4c4.8,4.9,10.6,8.6,17,11
					c6.4,2.3,13.1,3.5,19.9,3.5c13.2,0,23.7-3.6,31-10.7s11.1-16.5,11.1-28v-86.3H1080.2z M1081.8,171c0.1,6.5-2.3,12.7-6.8,17.4
					c-4.3,4.8-10.4,7.4-16.8,7.2c-6.4,0.2-12.5-2.5-16.8-7.2c-4.4-4.7-6.8-10.9-6.7-17.4c0-6.9,2.2-12.8,6.7-17.3
					c4.4-4.5,10.5-7,16.8-6.8c6.3-0.1,12.3,2.4,16.7,6.8C1079.5,158.3,1082,164.5,1081.8,171L1081.8,171z M918.3,149.6h21.5V217
					h-21.5V149.6z M939.8,128.1v21.4h16.6c11,0,20,9,20,20V217h21.5v-52.3c0-20.2-16.4-36.6-36.6-36.6c0,0,0,0,0,0H939.8z
					 M773,149.6h21.5V217H773V149.6z M794.5,128.1v21.4h16.6c11,0,20,9,20,20V217h21.5v-52.3c0-20.2-16.4-36.6-36.6-36.6
					c0,0,0,0,0,0L794.5,128.1z"/>
			</g>
			<path class="st2" d="M0,78.1L135,0l135,78.1v156.2l-135,78.1L0,234.3V78.1z M61,148.7h14.9v14.9H61V148.7z M120.4,119h-14.9v14.9
				h14.9L120.4,119z M105.6,178.4h14.9v14.9h-14.9L105.6,178.4z M209.6,148.7h-74.3v14.9h74.3V148.7z M135.3,119h74.3v14.9h-74.3
				V119z M209.6,178.4h-74.3v14.9h74.3V178.4z M90.7,148.7h29.7v14.9H90.7V148.7z"/>
		</g>
	</g>
</g>
</svg>
