<svg xmlns="http://www.w3.org/2000/svg" xmlns:xlink="http://www.w3.org/1999/xlink" viewBox="0 0 1578 312.46"><defs><style>.cls-1{fill:none;}.cls-2{clip-path:url(#clip-path);}.cls-3{fill:#FFFFFF;}.cls-3,.cls-4{fill-rule:evenodd;}.cls-4{fill:#792ee5;}</style><clipPath id="clip-path" transform="translate(-102 -94)"><rect class="cls-1" width="1877" height="500"/></clipPath></defs><g id="Layer_2" data-name="Layer 2"><g id="Layer_1-2" data-name="Layer 1"><g class="cls-2"><g id="mask0"><path class="cls-3" d="M1305.14,310H1284V183h75v21.06h-53.86V228H1344v22h-38.86v60ZM1389,183h-23V310h23Zm239.73,40.33a32.56,32.56,0,0,1,15.23-3.52c10.7,0,19.48,3.27,26.09,9.71s10,15.59,10,27.18V310h-22.13V259.11a19.91,19.91,0,0,0-4.82-13.51c-3.19-3.65-7.67-5.42-13.7-5.42s-10.64,1.81-14.07,5.53-5.15,8.75-5.15,15V310H1598V183h22.13v46.38A37.73,37.73,0,0,1,1628.73,223.33Zm-153.19,86.82v-5.89a45.71,45.71,0,0,1-27,8.26,46.83,46.83,0,0,1-18.72-3.66,45.58,45.58,0,0,1-14.47-9.77,44.32,44.32,0,0,1-9.42-14.3,44.78,44.78,0,0,1-3.41-17.27,44,44,0,0,1,3.49-17.28,46.27,46.27,0,0,1,9.59-14.37,44.86,44.86,0,0,1,14.57-9.77,47.27,47.27,0,0,1,45.38,4.75v-8.33h21.91v87.63Zm-2.49-42.63a24.53,24.53,0,0,1-7.2,17.6,23.91,23.91,0,0,1-34.63,0,24.56,24.56,0,0,1-7.19-17.6,24.29,24.29,0,0,1,7.18-17.84,24.53,24.53,0,0,1,34.66,0A24.36,24.36,0,0,1,1473.05,267.52Zm112,18.18v2.38a21.91,21.91,0,0,1-11.41,17.9q-10.15,6-25.49,6-22.63,0-31.72-7.29-8.39-6.65-8.38-19.64v-1.9h21q0,7.27,4.28,10t14.79,2.69q14.26,0,14.26-9.19,0-7.61-5-10.14a19.34,19.34,0,0,0-5.88-1.9l-18-2.69Q1510,268.59,1510,245.77q0-12.68,10.34-19.64,10.52-7.12,26.56-7.13,36.54,0,36.54,28v2.06h-20.15q-.35-7.44-4.45-10.14t-11.59-2.69q-7.31,0-11,2.69-3.73,2.53-3.74,5.71,0,9,8.2,10.29l21.57,3.49Q1585,262.25,1585,285.7ZM559.25,184h21.46v21.45H559.25ZM463,184h22.32V289.26h56.89v20.93H463Zm117.71,38.11H559.25v88.06h21.46Zm74.52,1.31a39.67,39.67,0,0,1,9.2,5.7h0v-7H685.9v86.27c0,11.53-3.75,21-11.14,28.05s-17.82,10.66-31,10.66a58,58,0,0,1-19.86-3.51,45.13,45.13,0,0,1-17-10.95l-.27-.42-6.71-16.86h22.46l.35.73a18.46,18.46,0,0,0,7.88,8.61c3.46,1.89,8,2.85,13.47,2.85,6,0,10.89-1.77,14.7-5.25s5.68-8.65,5.68-15.45v-5.11a38.71,38.71,0,0,1-9.23,5.43A36.94,36.94,0,0,1,641,309.84a44.09,44.09,0,0,1-17.7-3.54,42.11,42.11,0,0,1-13.91-9.65,44.79,44.79,0,0,1-9-14.32A46.7,46.7,0,0,1,597.06,265a44.61,44.61,0,0,1,3.36-17.14,43.78,43.78,0,0,1,9.3-14.15,44.8,44.8,0,0,1,14-9.55A42.86,42.86,0,0,1,641,220.57,34.87,34.87,0,0,1,655.23,223.43ZM666,265a23.38,23.38,0,0,0-6.93-17.3,23,23,0,0,0-16.71-6.84,22.59,22.59,0,0,0-16.79,6.83c-4.44,4.53-6.69,10.36-6.69,17.31a24.89,24.89,0,0,0,6.72,17.42,21.64,21.64,0,0,0,16.76,7.23,21.91,21.91,0,0,0,16.85-7.24A24.74,24.74,0,0,0,666,265Zm83.95-44.39a31,31,0,0,0-14.78,3.5,36.41,36.41,0,0,0-8.35,6V184H705.34V310.18H726.8v-49c0-6.17,1.68-11.16,5-14.85s7.79-5.5,13.66-5.5,10.19,1.76,13.29,5.39a20.07,20.07,0,0,1,4.67,13.42v50.56h21.47v-53c0-11.52-3.25-20.61-9.65-27S760.31,220.57,749.93,220.57Zm63.31-20.45L833,192.89h0v29.22h23.54V241H833v37.88c0,4.19,1.1,7.38,3.29,9.46a12,12,0,0,0,8.66,3.17h8.84v18.57l-1.15.12c-1.17.11-2.69.21-4.56.26s-3.87.09-6.05.09c-8.53,0-15.81-2.53-21.64-7.52s-8.86-12.47-8.86-22.09V241h-17.3V222.11h19.23ZM997.49,184H976v21.45h21.47ZM976,222.12h21.47v88.06H976Zm206.25,0v7a39.88,39.88,0,0,0-9.2-5.7,35.1,35.1,0,0,0-14.27-2.85,42.66,42.66,0,0,0-17.27,3.54,44.61,44.61,0,0,0-14,9.54,43.78,43.78,0,0,0-9.3,14.15A44.68,44.68,0,0,0,1114.9,265a46.79,46.79,0,0,0,3.27,17.39,44.74,44.74,0,0,0,9,14.31,41.72,41.72,0,0,0,13.91,9.65,43.93,43.93,0,0,0,17.7,3.55,36.75,36.75,0,0,0,14.24-2.68,38.25,38.25,0,0,0,9.23-5.43v5.11c0,6.8-1.91,12-5.68,15.46s-8.76,5.24-14.7,5.24c-5.48,0-10-1-13.47-2.84a18.51,18.51,0,0,1-7.88-8.61l-.35-.74h-22.46l6.71,16.86.27.42a45,45,0,0,0,17,10.95,58,58,0,0,0,19.86,3.51c13.23,0,23.68-3.58,31-10.66s11.14-16.52,11.14-28.05V222.12Zm1.54,42.83a24.75,24.75,0,0,1-6.78,17.42,21.93,21.93,0,0,1-16.85,7.24,21.66,21.66,0,0,1-16.77-7.24A24.89,24.89,0,0,1,1136.7,265c0-6.94,2.25-12.77,6.69-17.3a22.59,22.59,0,0,1,16.79-6.83,23,23,0,0,1,16.71,6.84A23.37,23.37,0,0,1,1183.81,265Zm-163.45-21.39h21.46V311h-21.46Zm21.46-21.44v21.44h16.64a20,20,0,0,1,20,20V311h21.47V258.7a36.59,36.59,0,0,0-36.63-36.58ZM875,243.56h21.47V311H875Zm21.47-21.44v21.44h16.64a20,20,0,0,1,20,20V311h21.47V258.7a36.59,36.59,0,0,0-36.63-36.58Z" transform="translate(-102 -94)"/></g><path class="cls-4" d="M102,172.11,237,94l135,78.11V328.34L237,406.46,102,328.34Zm61,70.6h14.86v14.86H163ZM222.43,213H207.57v14.86h14.86Zm-14.86,59.43h14.86v14.86H207.57Zm104-29.72H237.29v14.86h74.28ZM237.29,213h74.28v14.86H237.29Zm74.28,59.43H237.29v14.86h74.28ZM192.71,242.71h29.72v14.86H192.71Z" transform="translate(-102 -94)"/></g></g></g></svg>
